M48
; DRILL file {KiCad (6.0.4-0)} date Monday, October 03, 2022 at 08:54:47 AM
; FORMAT={-:-/ absolute / inch / decimal}
; #@! TF.CreationDate,2022-10-03T08:54:47-06:00
; #@! TF.GenerationSoftware,Kicad,Pcbnew,(6.0.4-0)
; #@! TF.FileFunction,Plated,1,2,PTH
FMAT,2
INCH
; #@! TA.AperFunction,Plated,PTH,ViaDrill
T1C0.0118
; #@! TA.AperFunction,Plated,PTH,ViaDrill
T2C0.0157
; #@! TA.AperFunction,Plated,PTH,ComponentDrill
T3C0.0276
; #@! TA.AperFunction,Plated,PTH,ComponentDrill
T4C0.0354
; #@! TA.AperFunction,Plated,PTH,ComponentDrill
T5C0.1260
%
G90
G05
T1
X2.3591Y-1.6677
X2.3591Y-1.8646
X2.3591Y-2.0614
X2.3591Y-2.2583
X2.3591Y-2.4551
X2.3591Y-2.8488
X2.3591Y-3.4394
X2.3591Y-3.6362
X2.3591Y-3.8331
X2.3591Y-4.8173
X2.3591Y-5.6047
X2.3591Y-5.8016
X2.3591Y-6.3921
X2.3591Y-6.589
X2.3591Y-6.7858
X2.3591Y-6.9827
X2.3591Y-7.1795
X2.3591Y-7.3764
X2.5559Y-1.6677
X2.5559Y-1.8646
X2.5559Y-2.0614
X2.5559Y-2.2583
X2.5559Y-2.4551
X2.5559Y-2.652
X2.5559Y-3.0457
X2.5559Y-3.8331
X2.5559Y-4.8173
X2.5559Y-5.6047
X2.5559Y-5.8016
X2.5559Y-6.3921
X2.5559Y-6.589
X2.5559Y-6.7858
X2.5559Y-6.9827
X2.5559Y-7.1795
X2.5559Y-7.3764
X2.7528Y-1.6677
X2.7528Y-1.8646
X2.7528Y-2.0614
X2.7528Y-2.2583
X2.7528Y-2.4551
X2.7528Y-2.652
X2.7528Y-3.2425
X2.7528Y-3.4394
X2.7528Y-3.6362
X2.7528Y-5.8016
X2.7528Y-5.9984
X2.7528Y-6.1953
X2.7528Y-6.3921
X2.7528Y-6.589
X2.7528Y-6.7858
X2.7528Y-6.9827
X2.7528Y-7.1795
X2.7528Y-7.3764
X2.9496Y-1.6677
X2.9496Y-1.8646
X2.9496Y-2.2583
X2.9496Y-2.4551
X2.9496Y-6.589
X2.9496Y-6.7858
X2.9496Y-6.9827
X2.9496Y-7.1795
X2.9496Y-7.3764
X3.1465Y-1.6677
X3.1465Y-1.8646
X3.1465Y-2.0614
X3.1465Y-2.2583
X3.1465Y-2.4551
X3.1465Y-2.652
X3.1465Y-3.2425
X3.1465Y-4.6205
X3.1465Y-6.589
X3.1465Y-6.7858
X3.1465Y-6.9827
X3.1465Y-7.1795
X3.1465Y-7.3764
X3.3433Y-1.6677
X3.3433Y-1.8646
X3.3433Y-2.0614
X3.3433Y-2.4551
X3.3433Y-2.652
X3.3433Y-2.8488
X3.3433Y-3.8331
X3.3433Y-4.0299
X3.3433Y-4.4236
X3.3433Y-5.4079
X3.3433Y-5.8016
X3.3433Y-6.3921
X3.3433Y-6.589
X3.3433Y-6.7858
X3.3433Y-6.9827
X3.3433Y-7.1795
X3.3433Y-7.3764
X3.5402Y-1.6677
X3.5402Y-1.8646
X3.5402Y-2.0614
X3.5402Y-2.2583
X3.5402Y-2.4551
X3.5402Y-2.652
X3.5402Y-2.8488
X3.5402Y-3.0457
X3.5402Y-3.2425
X3.5402Y-3.4394
X3.5402Y-3.6362
X3.5402Y-3.8331
X3.5402Y-4.0299
X3.5402Y-4.2268
X3.5402Y-4.8173
X3.5402Y-5.4079
X3.5402Y-5.6047
X3.5402Y-5.8016
X3.5402Y-5.9984
X3.5402Y-6.1953
X3.5402Y-6.3921
X3.5402Y-6.589
X3.5402Y-6.7858
X3.5402Y-6.9827
X3.5402Y-7.1795
X3.5402Y-7.3764
X3.737Y-1.6677
X3.737Y-1.8646
X3.737Y-2.0614
X3.737Y-2.2583
X3.737Y-2.4551
X3.737Y-2.652
X3.737Y-2.8488
X3.737Y-3.8331
X3.737Y-4.0299
X3.737Y-4.2268
X3.737Y-4.4236
X3.737Y-4.6205
X3.737Y-4.8173
X3.737Y-5.4079
X3.737Y-5.6047
X3.737Y-6.589
X3.737Y-6.7858
X3.737Y-6.9827
X3.737Y-7.1795
X3.737Y-7.3764
X3.9339Y-1.6677
X3.9339Y-1.8646
X3.9339Y-2.0614
X3.9339Y-2.2583
X3.9339Y-2.4551
X3.9339Y-2.652
X3.9339Y-5.0142
X3.9339Y-6.3921
X3.9339Y-6.589
X3.9339Y-6.7858
X3.9339Y-6.9827
X3.9339Y-7.1795
X3.9339Y-7.3764
X4.1307Y-1.6677
X4.1307Y-1.8646
X4.1307Y-2.0614
X4.1307Y-2.2583
X4.1307Y-2.4551
X4.1307Y-2.652
X4.1307Y-2.8488
X4.1307Y-3.2425
X4.1307Y-3.4394
X4.1307Y-3.6362
X4.1307Y-3.8331
X4.1307Y-4.0299
X4.1307Y-4.2268
X4.1307Y-4.4236
X4.1307Y-4.6205
X4.1307Y-5.211
X4.1307Y-5.6047
X4.1307Y-5.8016
X4.1307Y-5.9984
X4.1307Y-6.1953
X4.1307Y-6.3921
X4.1307Y-6.589
X4.1307Y-6.7858
X4.1307Y-6.9827
X4.1307Y-7.1795
X4.1307Y-7.3764
X4.3276Y-1.6677
X4.3276Y-1.8646
X4.3276Y-2.0614
X4.3276Y-2.2583
X4.3276Y-2.4551
X4.3276Y-2.652
X4.3276Y-2.8488
X4.3276Y-3.0457
X4.3276Y-3.4394
X4.3276Y-3.6362
X4.3276Y-3.8331
X4.3276Y-4.0299
X4.3276Y-4.2268
X4.3276Y-4.4236
X4.3276Y-4.6205
X4.3276Y-6.1953
X4.3276Y-6.3921
X4.3276Y-6.589
X4.3276Y-6.7858
X4.3276Y-6.9827
X4.3276Y-7.1795
X4.3276Y-7.3764
X4.5244Y-1.6677
X4.5244Y-1.8646
X4.5244Y-2.0614
X4.5244Y-2.2583
X4.5244Y-2.4551
X4.5244Y-2.652
X4.5244Y-2.8488
X4.5244Y-3.0457
X4.5244Y-3.2425
X4.5244Y-3.6362
X4.5244Y-3.8331
X4.5244Y-4.0299
X4.5244Y-4.2268
X4.5244Y-4.4236
X4.5244Y-4.6205
X4.5244Y-4.8173
X4.5244Y-5.0142
X4.5244Y-5.211
X4.5244Y-5.4079
X4.5244Y-5.8016
X4.5244Y-6.1953
X4.5244Y-6.3921
X4.5244Y-6.589
X4.5244Y-6.7858
X4.5244Y-6.9827
X4.5244Y-7.1795
X4.5244Y-7.3764
X4.7213Y-1.6677
X4.7213Y-1.8646
X4.7213Y-2.0614
X4.7213Y-2.2583
X4.7213Y-2.4551
X4.7213Y-2.652
X4.7213Y-2.8488
X4.7213Y-3.0457
X4.7213Y-3.2425
X4.7213Y-3.4394
X4.7213Y-3.8331
X4.7213Y-4.0299
X4.7213Y-4.2268
X4.7213Y-4.4236
X4.7213Y-4.6205
X4.7213Y-4.8173
X4.7213Y-5.0142
X4.7213Y-5.211
X4.7213Y-5.4079
X4.7213Y-5.6047
X4.7213Y-5.8016
X4.7213Y-5.9984
X4.7213Y-6.1953
X4.7213Y-6.3921
X4.7213Y-6.589
X4.7213Y-6.7858
X4.7213Y-6.9827
X4.7213Y-7.1795
X4.7213Y-7.3764
X4.9181Y-1.6677
X4.9181Y-1.8646
X4.9181Y-2.0614
X4.9181Y-2.2583
X4.9181Y-2.4551
X4.9181Y-2.652
X4.9181Y-2.8488
X4.9181Y-3.0457
X4.9181Y-3.2425
X4.9181Y-3.4394
X4.9181Y-3.6362
X4.9181Y-4.0299
X4.9181Y-4.2268
X4.9181Y-4.4236
X4.9181Y-4.6205
X4.9181Y-4.8173
X4.9181Y-5.0142
X4.9181Y-5.211
X4.9181Y-5.4079
X4.9181Y-5.6047
X4.9181Y-5.8016
X4.9181Y-5.9984
X4.9181Y-6.1953
X4.9181Y-6.3921
X4.9181Y-6.589
X4.9181Y-6.7858
X4.9181Y-6.9827
X4.9181Y-7.1795
X4.9181Y-7.3764
X5.115Y-1.6677
X5.115Y-1.8646
X5.115Y-2.0614
X5.115Y-2.2583
X5.115Y-2.4551
X5.115Y-2.652
X5.115Y-2.8488
X5.115Y-3.0457
X5.115Y-3.2425
X5.115Y-3.4394
X5.115Y-3.6362
X5.115Y-3.8331
X5.115Y-4.2268
X5.115Y-4.4236
X5.115Y-4.6205
X5.115Y-4.8173
X5.115Y-5.0142
X5.115Y-5.211
X5.115Y-5.4079
X5.115Y-5.6047
X5.115Y-5.8016
X5.115Y-5.9984
X5.115Y-6.1953
X5.115Y-6.3921
X5.115Y-6.589
X5.115Y-6.7858
X5.115Y-6.9827
X5.115Y-7.1795
X5.115Y-7.3764
X5.3118Y-1.6677
X5.3118Y-1.8646
X5.3118Y-2.0614
X5.3118Y-2.2583
X5.3118Y-2.4551
X5.3118Y-2.652
X5.3118Y-2.8488
X5.3118Y-3.0457
X5.3118Y-3.2425
X5.3118Y-3.4394
X5.3118Y-3.6362
X5.3118Y-3.8331
X5.3118Y-4.0299
X5.3118Y-4.4236
X5.3118Y-4.6205
X5.3118Y-4.8173
X5.3118Y-5.0142
X5.3118Y-5.211
X5.3118Y-5.4079
X5.3118Y-5.6047
X5.3118Y-5.8016
X5.3118Y-5.9984
X5.3118Y-6.1953
X5.3118Y-6.3921
X5.3118Y-6.589
X5.3118Y-6.7858
X5.3118Y-6.9827
X5.3118Y-7.1795
X5.3118Y-7.3764
X5.5087Y-1.6677
X5.5087Y-1.8646
X5.5087Y-2.0614
X5.5087Y-2.2583
X5.5087Y-2.4551
X5.5087Y-2.652
X5.5087Y-2.8488
X5.5087Y-3.0457
X5.5087Y-3.2425
X5.5087Y-3.4394
X5.5087Y-3.6362
X5.5087Y-3.8331
X5.5087Y-4.0299
X5.5087Y-4.2268
X5.5087Y-4.6205
X5.5087Y-4.8173
X5.5087Y-5.0142
X5.5087Y-5.211
X5.5087Y-5.4079
X5.5087Y-5.6047
X5.5087Y-5.8016
X5.5087Y-5.9984
X5.5087Y-6.1953
X5.5087Y-6.3921
X5.5087Y-6.589
X5.5087Y-6.7858
X5.5087Y-6.9827
X5.5087Y-7.1795
X5.5087Y-7.3764
X5.7055Y-1.6677
X5.7055Y-1.8646
X5.7055Y-2.0614
X5.7055Y-2.2583
X5.7055Y-2.4551
X5.7055Y-2.652
X5.7055Y-2.8488
X5.7055Y-3.0457
X5.7055Y-3.2425
X5.7055Y-3.4394
X5.7055Y-3.6362
X5.7055Y-3.8331
X5.7055Y-4.0299
X5.7055Y-4.2268
X5.7055Y-4.4236
X5.7055Y-4.8173
X5.7055Y-5.0142
X5.7055Y-5.211
X5.7055Y-5.4079
X5.7055Y-5.6047
X5.7055Y-5.8016
X5.7055Y-5.9984
X5.7055Y-6.1953
X5.7055Y-6.3921
X5.7055Y-6.589
X5.7055Y-6.7858
X5.7055Y-6.9827
X5.7055Y-7.1795
X5.7055Y-7.3764
X5.9024Y-1.6677
X5.9024Y-1.8646
X5.9024Y-2.0614
X5.9024Y-2.2583
X5.9024Y-2.4551
X5.9024Y-2.652
X5.9024Y-2.8488
X5.9024Y-3.0457
X5.9024Y-3.2425
X5.9024Y-3.4394
X5.9024Y-3.6362
X5.9024Y-3.8331
X5.9024Y-4.0299
X5.9024Y-4.2268
X5.9024Y-4.4236
X5.9024Y-4.6205
X5.9024Y-4.8173
X5.9024Y-5.0142
X5.9024Y-5.211
X5.9024Y-5.4079
X5.9024Y-5.6047
X5.9024Y-5.8016
X5.9024Y-5.9984
X5.9024Y-6.1953
X5.9024Y-6.3921
X5.9024Y-6.589
X5.9024Y-6.7858
X5.9024Y-6.9827
X5.9024Y-7.1795
X5.9024Y-7.3764
X6.0992Y-1.6677
X6.0992Y-1.8646
X6.0992Y-2.0614
X6.0992Y-2.2583
X6.0992Y-2.4551
X6.0992Y-2.652
X6.0992Y-2.8488
X6.0992Y-3.0457
X6.0992Y-3.2425
X6.0992Y-3.4394
X6.0992Y-3.6362
X6.0992Y-3.8331
X6.0992Y-4.0299
X6.0992Y-4.2268
X6.0992Y-4.4236
X6.0992Y-4.6205
X6.0992Y-4.8173
X6.0992Y-5.0142
X6.0992Y-5.211
X6.0992Y-5.4079
X6.0992Y-5.6047
X6.0992Y-5.8016
X6.0992Y-5.9984
X6.0992Y-6.1953
X6.0992Y-6.3921
X6.0992Y-6.589
X6.0992Y-6.7858
X6.0992Y-6.9827
X6.0992Y-7.1795
X6.0992Y-7.3764
X6.2961Y-1.6677
X6.2961Y-1.8646
X6.2961Y-2.0614
X6.2961Y-2.2583
X6.2961Y-2.4551
X6.2961Y-2.652
X6.2961Y-2.8488
X6.2961Y-3.0457
X6.2961Y-3.2425
X6.2961Y-3.4394
X6.2961Y-3.6362
X6.2961Y-3.8331
X6.2961Y-4.0299
X6.2961Y-4.2268
X6.2961Y-4.4236
X6.2961Y-4.6205
X6.2961Y-4.8173
X6.2961Y-5.0142
X6.2961Y-5.211
X6.2961Y-5.4079
X6.2961Y-5.6047
X6.2961Y-5.8016
X6.2961Y-5.9984
X6.2961Y-6.1953
X6.2961Y-6.3921
X6.2961Y-6.589
X6.2961Y-6.7858
X6.2961Y-6.9827
X6.2961Y-7.1795
X6.2961Y-7.3764
X6.4929Y-1.6677
X6.4929Y-1.8646
X6.4929Y-2.0614
X6.4929Y-2.2583
X6.4929Y-2.4551
X6.4929Y-2.652
X6.4929Y-2.8488
X6.4929Y-3.0457
X6.4929Y-3.2425
X6.4929Y-3.4394
X6.4929Y-3.6362
X6.4929Y-3.8331
X6.4929Y-4.0299
X6.4929Y-4.2268
X6.4929Y-4.4236
X6.4929Y-4.6205
X6.4929Y-4.8173
X6.4929Y-5.0142
X6.4929Y-5.211
X6.4929Y-5.4079
X6.4929Y-5.6047
X6.4929Y-5.8016
X6.4929Y-5.9984
X6.4929Y-6.1953
X6.4929Y-6.3921
X6.4929Y-6.589
X6.4929Y-6.7858
X6.4929Y-6.9827
X6.4929Y-7.1795
X6.4929Y-7.3764
X6.6898Y-1.6677
X6.6898Y-1.8646
X6.6898Y-2.0614
X6.6898Y-2.2583
X6.6898Y-2.4551
X6.6898Y-2.652
X6.6898Y-2.8488
X6.6898Y-3.0457
X6.6898Y-3.2425
X6.6898Y-3.4394
X6.6898Y-3.6362
X6.6898Y-3.8331
X6.6898Y-4.0299
X6.6898Y-4.2268
X6.6898Y-4.4236
X6.6898Y-4.6205
X6.6898Y-4.8173
X6.6898Y-5.0142
X6.6898Y-5.211
X6.6898Y-5.4079
X6.6898Y-5.6047
X6.6898Y-5.8016
X6.6898Y-5.9984
X6.6898Y-6.1953
X6.6898Y-6.3921
X6.6898Y-6.589
X6.6898Y-6.7858
X6.6898Y-6.9827
X6.6898Y-7.1795
X6.6898Y-7.3764
X6.8866Y-1.6677
X6.8866Y-1.8646
X6.8866Y-2.0614
X6.8866Y-2.2583
X6.8866Y-2.4551
X6.8866Y-2.652
X6.8866Y-2.8488
X6.8866Y-3.0457
X6.8866Y-3.2425
X6.8866Y-3.4394
X6.8866Y-3.6362
X6.8866Y-3.8331
X6.8866Y-4.0299
X6.8866Y-4.2268
X6.8866Y-4.4236
X6.8866Y-4.6205
X6.8866Y-4.8173
X6.8866Y-5.211
X6.8866Y-5.4079
X6.8866Y-5.6047
X6.8866Y-5.8016
X6.8866Y-5.9984
X6.8866Y-6.1953
X6.8866Y-6.3921
X6.8866Y-6.589
X6.8866Y-6.7858
X6.8866Y-6.9827
X6.8866Y-7.1795
X6.8866Y-7.3764
X7.0835Y-1.6677
X7.0835Y-2.0614
X7.0835Y-2.2583
X7.0835Y-2.4551
X7.0835Y-2.652
X7.0835Y-2.8488
X7.0835Y-3.0457
X7.0835Y-3.2425
X7.0835Y-3.4394
X7.0835Y-3.6362
X7.0835Y-3.8331
X7.0835Y-4.0299
X7.0835Y-4.2268
X7.0835Y-4.4236
X7.0835Y-5.0142
X7.0835Y-5.211
X7.0835Y-5.4079
X7.0835Y-5.6047
X7.0835Y-5.8016
X7.0835Y-5.9984
X7.0835Y-6.1953
X7.0835Y-6.3921
X7.0835Y-6.589
X7.0835Y-6.7858
X7.0835Y-6.9827
X7.0835Y-7.3764
T2
X2.189Y-6.8185
X2.1894Y-6.6295
X2.1929Y-5.8193
X2.1953Y-4.8287
X2.2173Y-2.6283
X2.2232Y-4.6756
X2.2236Y-3.9827
X2.2433Y-3.3299
X2.2677Y-1.9134
X2.2677Y-2.0157
X2.2677Y-2.8189
X2.2677Y-4.0787
X2.2677Y-4.1811
X2.2677Y-4.2835
X2.2677Y-4.378
X2.2677Y-4.4854
X2.2677Y-4.5827
X2.2677Y-4.8189
X2.2677Y-4.9685
X2.2677Y-5.0787
X2.2677Y-5.1811
X2.2677Y-5.2756
X2.2677Y-5.378
X2.2677Y-5.4803
X2.2677Y-5.5827
X2.2689Y-3.8268
X2.3228Y-2.7047
X2.3701Y-2.9055
X2.4043Y-4.3646
X2.4094Y-4.1811
X2.4409Y-3.9685
X2.4409Y-4.0787
X2.4724Y-4.2598
X2.4803Y-3.3268
X2.4803Y-5.0197
X2.4803Y-5.0787
X2.4803Y-5.1378
X2.4803Y-5.1969
X2.4803Y-5.2559
X2.4803Y-5.315
X2.4803Y-5.374
X2.4803Y-5.4331
X2.5098Y-3.4291
X2.5197Y-3.3661
X2.5449Y-3.4945
X2.5449Y-3.5303
X2.5449Y-3.578
X2.5449Y-3.6283
X2.5449Y-3.6776
X2.5449Y-3.7307
X2.5449Y-3.7638
X2.5531Y-4.6201
X2.5531Y-5.4854
X2.5571Y-6.3531
X2.5909Y-2.6138
X2.5984Y-3.039
X2.5992Y-3.8283
X2.6657Y-5.6044
X2.6724Y-3.8874
X2.6724Y-4.85
X2.6732Y-3.8453
X2.6748Y-2.1657
X2.678Y-4.3882
X2.7075Y-5.6689
X2.7165Y-6.4803
X2.7776Y-4.3906
X2.8583Y-5.9764
X2.8583Y-6.0787
X2.8583Y-6.1811
X2.8583Y-6.2835
X2.8583Y-6.378
X2.8661Y-5.6693
X2.9134Y-4.1969
X2.9248Y-5.0614
X2.9571Y-2.7347
X3.037Y-6.3776
X3.0394Y-5.6693
X3.0461Y-2.1543
X3.0465Y-2.8346
X3.0472Y-2.976
X3.0472Y-4.7795
X3.0709Y-2.7362
X3.0945Y-5.6693
X3.126Y-4.1575
X3.1496Y-4.8228
X3.2339Y-5.122
X3.2677Y-6.0083
X3.2677Y-6.063
X3.2677Y-6.1264
X3.2677Y-6.1811
X3.2677Y-6.2402
X3.2677Y-6.2992
X3.271Y-5.9482
X3.2866Y-3.4815
X3.287Y-3.5295
X3.287Y-3.6319
X3.2874Y-3.3799
X3.2874Y-3.4315
X3.2874Y-3.5807
X3.2874Y-3.6791
X3.2882Y-3.3307
X3.3031Y-4.7992
X3.3071Y-5.0236
X3.3835Y-3.0409
X3.3858Y-5.6102
X3.4205Y-2.1264
X3.442Y-4.8819
X3.442Y-4.6457
X3.4423Y-5.0003
X3.452Y-5.9272
X3.5039Y-4.5443
X3.5276Y-4.6142
X3.5827Y-4.937
X3.5828Y-5.0365
X3.5906Y-5.6693
X3.6024Y-6.378
X3.622Y-2.6181
X3.6299Y-3.0079
X3.6417Y-4.3898
X3.6772Y-5.2244
X3.7087Y-3.3228
X3.7142Y-5.9287
X3.723Y-5.0593
X3.7736Y-4.5556
X3.7795Y-5.7402
X3.7992Y-5.315
X3.8346Y-4.6614
X3.8504Y-4.9449
X3.8783Y-5.0594
X3.9356Y-4.7531
X3.9409Y-4.9646
X3.9449Y-4.3071
X3.9504Y-4.6594
X4.0079Y-3.7953
X4.0157Y-4.4488
X4.0709Y-5.0394
X4.0906Y-4.9488
X4.1535Y-5.1575
X4.1575Y-5.4016
X4.2035Y-4.8465
X4.2059Y-4.7055
X4.2126Y-5.3193
X4.2126Y-5.4921
X4.2362Y-5.5512
X4.2402Y-5.7598
X4.252Y-5.9843
X4.252Y-6.0827
X4.3622Y-5.5709
X4.4094Y-5.3307
X4.4216Y-5.4792
X4.4567Y-5.5276
X4.4661Y-4.7524
X4.5276Y-5.6929
X4.622Y-5.5354
T4
X6.8543Y-4.7126
X6.8543Y-4.9803
X6.9528Y-4.7126
X6.9528Y-4.7953
X6.9528Y-4.9803
T5
X7.126Y-1.811
X7.126Y-7.1654
T3
G00X7.1004Y-4.5807
M15
G01X7.0413Y-4.5807
M16
G05
G00X7.1004Y-5.1122
M15
G01X7.0413Y-5.1122
M16
G05
G00X7.1024Y-4.8169
M15
G01X7.1024Y-4.876
M16
G05
T0
M30
