%TF.GenerationSoftware,KiCad,Pcbnew,(6.0.4-0)*%
%TF.CreationDate,2022-10-03T08:54:47-06:00*%
%TF.ProjectId,midiori,6d696469-6f72-4692-9e6b-696361645f70,rev?*%
%TF.SameCoordinates,Original*%
%TF.FileFunction,Paste,Top*%
%TF.FilePolarity,Positive*%
%FSLAX46Y46*%
G04 Gerber Fmt 4.6, Leading zero omitted, Abs format (unit mm)*
G04 Created by KiCad (PCBNEW (6.0.4-0)) date 2022-10-03 08:54:47*
%MOMM*%
%LPD*%
G01*
G04 APERTURE LIST*
G04 Aperture macros list*
%AMRoundRect*
0 Rectangle with rounded corners*
0 $1 Rounding radius*
0 $2 $3 $4 $5 $6 $7 $8 $9 X,Y pos of 4 corners*
0 Add a 4 corners polygon primitive as box body*
4,1,4,$2,$3,$4,$5,$6,$7,$8,$9,$2,$3,0*
0 Add four circle primitives for the rounded corners*
1,1,$1+$1,$2,$3*
1,1,$1+$1,$4,$5*
1,1,$1+$1,$6,$7*
1,1,$1+$1,$8,$9*
0 Add four rect primitives between the rounded corners*
20,1,$1+$1,$2,$3,$4,$5,0*
20,1,$1+$1,$4,$5,$6,$7,0*
20,1,$1+$1,$6,$7,$8,$9,0*
20,1,$1+$1,$8,$9,$2,$3,0*%
G04 Aperture macros list end*
%ADD10R,2.000000X1.800000*%
%ADD11RoundRect,0.250000X-0.325000X-0.450000X0.325000X-0.450000X0.325000X0.450000X-0.325000X0.450000X0*%
%ADD12RoundRect,0.250000X0.325000X0.450000X-0.325000X0.450000X-0.325000X-0.450000X0.325000X-0.450000X0*%
%ADD13RoundRect,0.250000X-0.250000X-0.475000X0.250000X-0.475000X0.250000X0.475000X-0.250000X0.475000X0*%
%ADD14R,2.000000X0.600000*%
%ADD15R,1.470000X0.280000*%
%ADD16R,0.280000X1.470000*%
%ADD17RoundRect,0.100000X-0.637500X-0.100000X0.637500X-0.100000X0.637500X0.100000X-0.637500X0.100000X0*%
%ADD18R,1.550000X0.600000*%
%ADD19R,1.060000X0.650000*%
%ADD20RoundRect,0.243750X-0.243750X-0.456250X0.243750X-0.456250X0.243750X0.456250X-0.243750X0.456250X0*%
%ADD21R,2.400000X0.740000*%
%ADD22RoundRect,0.243750X0.243750X0.456250X-0.243750X0.456250X-0.243750X-0.456250X0.243750X-0.456250X0*%
G04 APERTURE END LIST*
D10*
%TO.C,X1*%
X113440000Y-127090000D03*
X113440000Y-122010000D03*
X109240000Y-122010000D03*
X109240000Y-127090000D03*
%TD*%
D11*
%TO.C,R6*%
X79950000Y-69500000D03*
X82000000Y-69500000D03*
%TD*%
D12*
%TO.C,R9*%
X81995000Y-73080000D03*
X79945000Y-73080000D03*
%TD*%
D13*
%TO.C,C8*%
X111025000Y-134000000D03*
X112925000Y-134000000D03*
%TD*%
D14*
%TO.C,U4*%
X86300000Y-148015000D03*
X86300000Y-149285000D03*
X86300000Y-150555000D03*
X86300000Y-151825000D03*
X86300000Y-153095000D03*
X86300000Y-154365000D03*
X86300000Y-155635000D03*
X86300000Y-156905000D03*
X86300000Y-158175000D03*
X86300000Y-159445000D03*
X86300000Y-160715000D03*
X86300000Y-161985000D03*
X95700000Y-161985000D03*
X95700000Y-160715000D03*
X95700000Y-159445000D03*
X95700000Y-158175000D03*
X95700000Y-156905000D03*
X95700000Y-155635000D03*
X95700000Y-154365000D03*
X95700000Y-153095000D03*
X95700000Y-151825000D03*
X95700000Y-150555000D03*
X95700000Y-149285000D03*
X95700000Y-148015000D03*
%TD*%
%TO.C,U5*%
X66300000Y-126015000D03*
X66300000Y-127285000D03*
X66300000Y-128555000D03*
X66300000Y-129825000D03*
X66300000Y-131095000D03*
X66300000Y-132365000D03*
X66300000Y-133635000D03*
X66300000Y-134905000D03*
X66300000Y-136175000D03*
X66300000Y-137445000D03*
X66300000Y-138715000D03*
X66300000Y-139985000D03*
X75700000Y-139985000D03*
X75700000Y-138715000D03*
X75700000Y-137445000D03*
X75700000Y-136175000D03*
X75700000Y-134905000D03*
X75700000Y-133635000D03*
X75700000Y-132365000D03*
X75700000Y-131095000D03*
X75700000Y-129825000D03*
X75700000Y-128555000D03*
X75700000Y-127285000D03*
X75700000Y-126015000D03*
%TD*%
%TO.C,U6*%
X86300000Y-82015000D03*
X86300000Y-83285000D03*
X86300000Y-84555000D03*
X86300000Y-85825000D03*
X86300000Y-87095000D03*
X86300000Y-88365000D03*
X86300000Y-89635000D03*
X86300000Y-90905000D03*
X86300000Y-92175000D03*
X86300000Y-93445000D03*
X86300000Y-94715000D03*
X86300000Y-95985000D03*
X95700000Y-95985000D03*
X95700000Y-94715000D03*
X95700000Y-93445000D03*
X95700000Y-92175000D03*
X95700000Y-90905000D03*
X95700000Y-89635000D03*
X95700000Y-88365000D03*
X95700000Y-87095000D03*
X95700000Y-85825000D03*
X95700000Y-84555000D03*
X95700000Y-83285000D03*
X95700000Y-82015000D03*
%TD*%
%TO.C,U7*%
X66300000Y-148015000D03*
X66300000Y-149285000D03*
X66300000Y-150555000D03*
X66300000Y-151825000D03*
X66300000Y-153095000D03*
X66300000Y-154365000D03*
X66300000Y-155635000D03*
X66300000Y-156905000D03*
X66300000Y-158175000D03*
X66300000Y-159445000D03*
X66300000Y-160715000D03*
X66300000Y-161985000D03*
X75700000Y-161985000D03*
X75700000Y-160715000D03*
X75700000Y-159445000D03*
X75700000Y-158175000D03*
X75700000Y-156905000D03*
X75700000Y-155635000D03*
X75700000Y-154365000D03*
X75700000Y-153095000D03*
X75700000Y-151825000D03*
X75700000Y-150555000D03*
X75700000Y-149285000D03*
X75700000Y-148015000D03*
%TD*%
%TO.C,U9*%
X66300000Y-82015000D03*
X66300000Y-83285000D03*
X66300000Y-84555000D03*
X66300000Y-85825000D03*
X66300000Y-87095000D03*
X66300000Y-88365000D03*
X66300000Y-89635000D03*
X66300000Y-90905000D03*
X66300000Y-92175000D03*
X66300000Y-93445000D03*
X66300000Y-94715000D03*
X66300000Y-95985000D03*
X75700000Y-95985000D03*
X75700000Y-94715000D03*
X75700000Y-93445000D03*
X75700000Y-92175000D03*
X75700000Y-90905000D03*
X75700000Y-89635000D03*
X75700000Y-88365000D03*
X75700000Y-87095000D03*
X75700000Y-85825000D03*
X75700000Y-84555000D03*
X75700000Y-83285000D03*
X75700000Y-82015000D03*
%TD*%
D15*
%TO.C,U10*%
X86330000Y-116000000D03*
X86330000Y-116500000D03*
X86330000Y-117000000D03*
X86330000Y-117500000D03*
X86330000Y-118000000D03*
X86330000Y-118500000D03*
X86330000Y-119000000D03*
X86330000Y-119500000D03*
X86330000Y-120000000D03*
X86330000Y-120500000D03*
X86330000Y-121000000D03*
X86330000Y-121500000D03*
X86330000Y-122000000D03*
X86330000Y-122500000D03*
X86330000Y-123000000D03*
X86330000Y-123500000D03*
X86330000Y-124000000D03*
X86330000Y-124500000D03*
X86330000Y-125000000D03*
X86330000Y-125500000D03*
X86330000Y-126000000D03*
X86330000Y-126500000D03*
X86330000Y-127000000D03*
X86330000Y-127500000D03*
X86330000Y-128000000D03*
D16*
X88000000Y-129670000D03*
X88500000Y-129670000D03*
X89000000Y-129670000D03*
X89500000Y-129670000D03*
X90000000Y-129670000D03*
X90500000Y-129670000D03*
X91000000Y-129670000D03*
X91500000Y-129670000D03*
X92000000Y-129670000D03*
X92500000Y-129670000D03*
X93000000Y-129670000D03*
X93500000Y-129670000D03*
X94000000Y-129670000D03*
X94500000Y-129670000D03*
X95000000Y-129670000D03*
X95500000Y-129670000D03*
X96000000Y-129670000D03*
X96500000Y-129670000D03*
X97000000Y-129670000D03*
X97500000Y-129670000D03*
X98000000Y-129670000D03*
X98500000Y-129670000D03*
X99000000Y-129670000D03*
X99500000Y-129670000D03*
X100000000Y-129670000D03*
D15*
X101670000Y-128000000D03*
X101670000Y-127500000D03*
X101670000Y-127000000D03*
X101670000Y-126500000D03*
X101670000Y-126000000D03*
X101670000Y-125500000D03*
X101670000Y-125000000D03*
X101670000Y-124500000D03*
X101670000Y-124000000D03*
X101670000Y-123500000D03*
X101670000Y-123000000D03*
X101670000Y-122500000D03*
X101670000Y-122000000D03*
X101670000Y-121500000D03*
X101670000Y-121000000D03*
X101670000Y-120500000D03*
X101670000Y-120000000D03*
X101670000Y-119500000D03*
X101670000Y-119000000D03*
X101670000Y-118500000D03*
X101670000Y-118000000D03*
X101670000Y-117500000D03*
X101670000Y-117000000D03*
X101670000Y-116500000D03*
X101670000Y-116000000D03*
D16*
X100000000Y-114330000D03*
X99500000Y-114330000D03*
X99000000Y-114330000D03*
X98500000Y-114330000D03*
X98000000Y-114330000D03*
X97500000Y-114330000D03*
X97000000Y-114330000D03*
X96500000Y-114330000D03*
X96000000Y-114330000D03*
X95500000Y-114330000D03*
X95000000Y-114330000D03*
X94500000Y-114330000D03*
X94000000Y-114330000D03*
X93500000Y-114330000D03*
X93000000Y-114330000D03*
X92500000Y-114330000D03*
X92000000Y-114330000D03*
X91500000Y-114330000D03*
X91000000Y-114330000D03*
X90500000Y-114330000D03*
X90000000Y-114330000D03*
X89500000Y-114330000D03*
X89000000Y-114330000D03*
X88500000Y-114330000D03*
X88000000Y-114330000D03*
%TD*%
D17*
%TO.C,U1*%
X68137500Y-68050000D03*
X68137500Y-68700000D03*
X68137500Y-69350000D03*
X68137500Y-70000000D03*
X68137500Y-70650000D03*
X68137500Y-71300000D03*
X68137500Y-71950000D03*
X73862500Y-71950000D03*
X73862500Y-71300000D03*
X73862500Y-70650000D03*
X73862500Y-70000000D03*
X73862500Y-69350000D03*
X73862500Y-68700000D03*
X73862500Y-68050000D03*
%TD*%
D14*
%TO.C,U8*%
X66300000Y-104015000D03*
X66300000Y-105285000D03*
X66300000Y-106555000D03*
X66300000Y-107825000D03*
X66300000Y-109095000D03*
X66300000Y-110365000D03*
X66300000Y-111635000D03*
X66300000Y-112905000D03*
X66300000Y-114175000D03*
X66300000Y-115445000D03*
X66300000Y-116715000D03*
X66300000Y-117985000D03*
X75700000Y-117985000D03*
X75700000Y-116715000D03*
X75700000Y-115445000D03*
X75700000Y-114175000D03*
X75700000Y-112905000D03*
X75700000Y-111635000D03*
X75700000Y-110365000D03*
X75700000Y-109095000D03*
X75700000Y-107825000D03*
X75700000Y-106555000D03*
X75700000Y-105285000D03*
X75700000Y-104015000D03*
%TD*%
D18*
%TO.C,U2*%
X114700000Y-141905000D03*
X114700000Y-140635000D03*
X114700000Y-139365000D03*
X114700000Y-138095000D03*
X109300000Y-138095000D03*
X109300000Y-139365000D03*
X109300000Y-140635000D03*
X109300000Y-141905000D03*
%TD*%
D19*
%TO.C,U11*%
X68900000Y-54050000D03*
X68900000Y-55000000D03*
X68900000Y-55950000D03*
X71100000Y-55950000D03*
X71100000Y-54050000D03*
%TD*%
D20*
%TO.C,C1*%
X74062500Y-54000000D03*
X75937500Y-54000000D03*
%TD*%
%TO.C,C2*%
X84062500Y-54000000D03*
X85937500Y-54000000D03*
%TD*%
D21*
%TO.C,J2*%
X110050000Y-149460000D03*
X113950000Y-149460000D03*
X110050000Y-150730000D03*
X113950000Y-150730000D03*
X110050000Y-152000000D03*
X113950000Y-152000000D03*
X110050000Y-153270000D03*
X113950000Y-153270000D03*
X110050000Y-154540000D03*
X113950000Y-154540000D03*
%TD*%
D19*
%TO.C,U3*%
X78900000Y-54050000D03*
X78900000Y-55000000D03*
X78900000Y-55950000D03*
X81100000Y-55950000D03*
X81100000Y-54050000D03*
%TD*%
D20*
%TO.C,C4*%
X66000000Y-122000000D03*
X67875000Y-122000000D03*
%TD*%
D22*
%TO.C,C5*%
X96000000Y-79000000D03*
X94125000Y-79000000D03*
%TD*%
D20*
%TO.C,C6*%
X86000000Y-144000000D03*
X87875000Y-144000000D03*
%TD*%
D22*
%TO.C,C7*%
X76000000Y-144000000D03*
X74125000Y-144000000D03*
%TD*%
D20*
%TO.C,C9*%
X86000000Y-79000000D03*
X87875000Y-79000000D03*
%TD*%
D22*
%TO.C,C12*%
X75937500Y-122000000D03*
X74062500Y-122000000D03*
%TD*%
D20*
%TO.C,C13*%
X66000000Y-79000000D03*
X67875000Y-79000000D03*
%TD*%
D22*
%TO.C,C14*%
X76000000Y-79000000D03*
X74125000Y-79000000D03*
%TD*%
D20*
%TO.C,C15*%
X66062500Y-144000000D03*
X67937500Y-144000000D03*
%TD*%
D22*
%TO.C,C17*%
X76000000Y-100000000D03*
X74125000Y-100000000D03*
%TD*%
D20*
%TO.C,C18*%
X100125000Y-111500000D03*
X102000000Y-111500000D03*
%TD*%
%TO.C,C20*%
X93062500Y-134500000D03*
X94937500Y-134500000D03*
%TD*%
%TO.C,C22*%
X103982500Y-123100000D03*
X105857500Y-123100000D03*
%TD*%
D22*
%TO.C,C23*%
X84000000Y-129000000D03*
X82125000Y-129000000D03*
%TD*%
D20*
%TO.C,C11*%
X66000000Y-100000000D03*
X67875000Y-100000000D03*
%TD*%
D22*
%TO.C,C21*%
X96000000Y-144000000D03*
X94125000Y-144000000D03*
%TD*%
%TO.C,C16*%
X82937500Y-122000000D03*
X81062500Y-122000000D03*
%TD*%
%TO.C,R3*%
X110975000Y-146400000D03*
X109100000Y-146400000D03*
%TD*%
D20*
%TO.C,C19*%
X102062500Y-131000000D03*
X103937500Y-131000000D03*
%TD*%
%TO.C,C10*%
X94000000Y-111500000D03*
X95875000Y-111500000D03*
%TD*%
%TO.C,C3*%
X104000000Y-119500000D03*
X105875000Y-119500000D03*
%TD*%
M02*
