%TF.GenerationSoftware,KiCad,Pcbnew,(6.0.4-0)*%
%TF.CreationDate,2022-10-03T08:54:47-06:00*%
%TF.ProjectId,midiori,6d696469-6f72-4692-9e6b-696361645f70,rev?*%
%TF.SameCoordinates,Original*%
%TF.FileFunction,Copper,L2,Bot*%
%TF.FilePolarity,Positive*%
%FSLAX46Y46*%
G04 Gerber Fmt 4.6, Leading zero omitted, Abs format (unit mm)*
G04 Created by KiCad (PCBNEW (6.0.4-0)) date 2022-10-03 08:54:47*
%MOMM*%
%LPD*%
G01*
G04 APERTURE LIST*
G04 Aperture macros list*
%AMRoundRect*
0 Rectangle with rounded corners*
0 $1 Rounding radius*
0 $2 $3 $4 $5 $6 $7 $8 $9 X,Y pos of 4 corners*
0 Add a 4 corners polygon primitive as box body*
4,1,4,$2,$3,$4,$5,$6,$7,$8,$9,$2,$3,0*
0 Add four circle primitives for the rounded corners*
1,1,$1+$1,$2,$3*
1,1,$1+$1,$4,$5*
1,1,$1+$1,$6,$7*
1,1,$1+$1,$8,$9*
0 Add four rect primitives between the rounded corners*
20,1,$1+$1,$2,$3,$4,$5,0*
20,1,$1+$1,$4,$5,$6,$7,0*
20,1,$1+$1,$6,$7,$8,$9,0*
20,1,$1+$1,$8,$9,$2,$3,0*%
G04 Aperture macros list end*
%TA.AperFunction,ConnectorPad*%
%ADD10R,8.000000X1.800000*%
%TD*%
%TA.AperFunction,ComponentPad*%
%ADD11C,6.400000*%
%TD*%
%TA.AperFunction,ComponentPad*%
%ADD12RoundRect,0.500000X-0.500000X1.500000X-0.500000X-1.500000X0.500000X-1.500000X0.500000X1.500000X0*%
%TD*%
%TA.AperFunction,ComponentPad*%
%ADD13RoundRect,0.500000X-1.500000X0.500000X-1.500000X-0.500000X1.500000X-0.500000X1.500000X0.500000X0*%
%TD*%
%TA.AperFunction,ComponentPad*%
%ADD14C,1.500000*%
%TD*%
%TA.AperFunction,ViaPad*%
%ADD15C,0.600000*%
%TD*%
%TA.AperFunction,ViaPad*%
%ADD16C,0.700000*%
%TD*%
%TA.AperFunction,Conductor*%
%ADD17C,1.000000*%
%TD*%
%TA.AperFunction,Conductor*%
%ADD18C,0.500000*%
%TD*%
%TA.AperFunction,Conductor*%
%ADD19C,0.200000*%
%TD*%
G04 APERTURE END LIST*
D10*
%TO.P,J1,B1,GND*%
%TO.N,GND*%
X50000000Y-173460000D03*
%TO.P,J1,B2*%
%TO.N,unconnected-(J1-PadB2)*%
X50000000Y-170920000D03*
%TO.P,J1,B3,10MHz*%
%TO.N,/10MHz*%
X50000000Y-168380000D03*
%TO.P,J1,B4*%
%TO.N,unconnected-(J1-PadB4)*%
X50000000Y-165840000D03*
%TO.P,J1,B5,AB1*%
%TO.N,/AB1*%
X50000000Y-163300000D03*
%TO.P,J1,B6,AB2*%
%TO.N,/AB2*%
X50000000Y-160760000D03*
%TO.P,J1,B7,AB3*%
%TO.N,/AB3*%
X50000000Y-158220000D03*
%TO.P,J1,B8,AB4*%
%TO.N,/AB4*%
X50000000Y-155680000D03*
%TO.P,J1,B9,AB5*%
%TO.N,/AB5*%
X50000000Y-153140000D03*
%TO.P,J1,B10,AB6*%
%TO.N,/AB6*%
X50000000Y-150600000D03*
%TO.P,J1,B11,GND*%
%TO.N,GND*%
X50000000Y-148060000D03*
%TO.P,J1,B12,AB7*%
%TO.N,/AB7*%
X50000000Y-145520000D03*
%TO.P,J1,B13,AB8*%
%TO.N,/AB8*%
X50000000Y-142980000D03*
%TO.P,J1,B14,AB9*%
%TO.N,/AB9*%
X50000000Y-140440000D03*
%TO.P,J1,B15,AB10*%
%TO.N,/AB10*%
X50000000Y-137900000D03*
%TO.P,J1,B16,AB11*%
%TO.N,/AB11*%
X50000000Y-135360000D03*
%TO.P,J1,B17,AB12*%
%TO.N,/AB12*%
X50000000Y-132820000D03*
%TO.P,J1,B18,AB13*%
%TO.N,/AB13*%
X50000000Y-130280000D03*
%TO.P,J1,B19,AB14*%
%TO.N,/AB14*%
X50000000Y-127740000D03*
%TO.P,J1,B20,AB15*%
%TO.N,/AB15*%
X50000000Y-125200000D03*
%TO.P,J1,B21,GND*%
%TO.N,GND*%
X50000000Y-122660000D03*
%TO.P,J1,B22,AB16*%
%TO.N,/AB16*%
X50000000Y-120120000D03*
%TO.P,J1,B23,AB17*%
%TO.N,/AB17*%
X50000000Y-117580000D03*
%TO.P,J1,B24,AB18*%
%TO.N,/AB18*%
X50000000Y-115040000D03*
%TO.P,J1,B25,AB19*%
%TO.N,/AB19*%
X50000000Y-112500000D03*
%TO.P,J1,B26,AB20*%
%TO.N,/AB20*%
X50000000Y-109960000D03*
%TO.P,J1,B27,AB21*%
%TO.N,/AB21*%
X50000000Y-107420000D03*
%TO.P,J1,B28,AB22*%
%TO.N,/AB22*%
X50000000Y-104880000D03*
%TO.P,J1,B29,AB23*%
%TO.N,/AB23*%
X50000000Y-102340000D03*
%TO.P,J1,B30,IDDIR*%
%TO.N,/IDDIR*%
X50000000Y-99800000D03*
%TO.P,J1,B31*%
%TO.N,unconnected-(J1-PadB31)*%
X50000000Y-97260000D03*
%TO.P,J1,B32*%
%TO.N,unconnected-(J1-PadB32)*%
X50000000Y-94720000D03*
%TO.P,J1,B33*%
%TO.N,unconnected-(J1-PadB33)*%
X50000000Y-92180000D03*
%TO.P,J1,B34*%
%TO.N,unconnected-(J1-PadB34)*%
X50000000Y-89640000D03*
%TO.P,J1,B35*%
%TO.N,unconnected-(J1-PadB35)*%
X50000000Y-87100000D03*
%TO.P,J1,B36*%
%TO.N,unconnected-(J1-PadB36)*%
X50000000Y-84560000D03*
%TO.P,J1,B37*%
%TO.N,unconnected-(J1-PadB37)*%
X50000000Y-82020000D03*
%TO.P,J1,B38*%
%TO.N,unconnected-(J1-PadB38)*%
X50000000Y-79480000D03*
%TO.P,J1,B39*%
%TO.N,unconnected-(J1-PadB39)*%
X50000000Y-76940000D03*
%TO.P,J1,B40*%
%TO.N,unconnected-(J1-PadB40)*%
X50000000Y-74400000D03*
%TO.P,J1,B41,GND*%
%TO.N,GND*%
X50000000Y-71860000D03*
%TO.P,J1,B42,/IRQ2*%
%TO.N,/IRQ2*%
X50000000Y-69320000D03*
%TO.P,J1,B43,/IRQ4*%
%TO.N,/IRQ4*%
X50000000Y-66780000D03*
%TO.P,J1,B44,/IACK2*%
%TO.N,/IACK2*%
X50000000Y-64240000D03*
%TO.P,J1,B45,/IACK4*%
%TO.N,/IACK4*%
X50000000Y-61700000D03*
%TO.P,J1,B46*%
%TO.N,unconnected-(J1-PadB46)*%
X50000000Y-59160000D03*
%TO.P,J1,B47*%
%TO.N,unconnected-(J1-PadB47)*%
X50000000Y-56620000D03*
%TO.P,J1,B48*%
%TO.N,unconnected-(J1-PadB48)*%
X50000000Y-54080000D03*
%TO.P,J1,B49,+5V*%
%TO.N,+5V*%
X50000000Y-51540000D03*
%TO.P,J1,B50,+5V*%
X50000000Y-49000000D03*
%TD*%
D11*
%TO.P,H2,1*%
%TO.N,N/C*%
X181000000Y-182000000D03*
%TD*%
%TO.P,H1,1*%
%TO.N,N/C*%
X181000000Y-46000000D03*
%TD*%
D12*
%TO.P,J4,0*%
%TO.N,N/C*%
X180400000Y-123100000D03*
D13*
X179600000Y-116350000D03*
X179600000Y-129850000D03*
D14*
%TO.P,J4,1*%
%TO.N,unconnected-(J4-Pad1)*%
X176600000Y-121800000D03*
%TO.P,J4,2*%
%TO.N,GND*%
X176600000Y-119700000D03*
%TO.P,J4,3*%
%TO.N,unconnected-(J4-Pad3)*%
X176600000Y-126500000D03*
%TO.P,J4,4*%
%TO.N,Net-(J4-Pad4)*%
X174100000Y-119700000D03*
%TO.P,J4,5*%
%TO.N,Net-(J4-Pad5)*%
X174100000Y-126500000D03*
%TD*%
D15*
%TO.N,GND*%
X179920000Y-187360000D03*
X179920000Y-177360000D03*
X179920000Y-172360000D03*
X179920000Y-167360000D03*
X179920000Y-162360000D03*
X179920000Y-157360000D03*
X179920000Y-152360000D03*
X179920000Y-147360000D03*
X179920000Y-142360000D03*
X179920000Y-137360000D03*
X179920000Y-132360000D03*
X179920000Y-127360000D03*
X179920000Y-112360000D03*
X179920000Y-107360000D03*
X179920000Y-102360000D03*
X179920000Y-97360000D03*
X179920000Y-92360000D03*
X179920000Y-87360000D03*
X179920000Y-82360000D03*
X179920000Y-77360000D03*
X179920000Y-72360000D03*
X179920000Y-67360000D03*
X179920000Y-62360000D03*
X179920000Y-57360000D03*
X179920000Y-52360000D03*
X179920000Y-42360000D03*
X174920000Y-187360000D03*
X174920000Y-182360000D03*
X174920000Y-177360000D03*
X174920000Y-172360000D03*
X174920000Y-167360000D03*
X174920000Y-162360000D03*
X174920000Y-157360000D03*
X174920000Y-152360000D03*
X174920000Y-147360000D03*
X174920000Y-142360000D03*
X174920000Y-137360000D03*
X174920000Y-132360000D03*
X174920000Y-122360000D03*
X174920000Y-117360000D03*
X174920000Y-112360000D03*
X174920000Y-107360000D03*
X174920000Y-102360000D03*
X174920000Y-97360000D03*
X174920000Y-92360000D03*
X174920000Y-87360000D03*
X174920000Y-82360000D03*
X174920000Y-77360000D03*
X174920000Y-72360000D03*
X174920000Y-67360000D03*
X174920000Y-62360000D03*
X174920000Y-57360000D03*
X174920000Y-52360000D03*
X174920000Y-47360000D03*
X174920000Y-42360000D03*
X169920000Y-187360000D03*
X169920000Y-182360000D03*
X169920000Y-177360000D03*
X169920000Y-172360000D03*
X169920000Y-167360000D03*
X169920000Y-162360000D03*
X169920000Y-157360000D03*
X169920000Y-152360000D03*
X169920000Y-147360000D03*
X169920000Y-142360000D03*
X169920000Y-137360000D03*
X169920000Y-132360000D03*
X169920000Y-127360000D03*
X169920000Y-122360000D03*
X169920000Y-117360000D03*
X169920000Y-112360000D03*
X169920000Y-107360000D03*
X169920000Y-102360000D03*
X169920000Y-97360000D03*
X169920000Y-92360000D03*
X169920000Y-87360000D03*
X169920000Y-82360000D03*
X169920000Y-77360000D03*
X169920000Y-72360000D03*
X169920000Y-67360000D03*
X169920000Y-62360000D03*
X169920000Y-57360000D03*
X169920000Y-52360000D03*
X169920000Y-47360000D03*
X169920000Y-42360000D03*
X164920000Y-187360000D03*
X164920000Y-182360000D03*
X164920000Y-177360000D03*
X164920000Y-172360000D03*
X164920000Y-167360000D03*
X164920000Y-162360000D03*
X164920000Y-157360000D03*
X164920000Y-152360000D03*
X164920000Y-147360000D03*
X164920000Y-142360000D03*
X164920000Y-137360000D03*
X164920000Y-132360000D03*
X164920000Y-127360000D03*
X164920000Y-122360000D03*
X164920000Y-117360000D03*
X164920000Y-112360000D03*
X164920000Y-107360000D03*
X164920000Y-102360000D03*
X164920000Y-97360000D03*
X164920000Y-92360000D03*
X164920000Y-87360000D03*
X164920000Y-82360000D03*
X164920000Y-77360000D03*
X164920000Y-72360000D03*
X164920000Y-67360000D03*
X164920000Y-62360000D03*
X164920000Y-57360000D03*
X164920000Y-52360000D03*
X164920000Y-47360000D03*
X164920000Y-42360000D03*
X159920000Y-187360000D03*
X159920000Y-182360000D03*
X159920000Y-177360000D03*
X159920000Y-172360000D03*
X159920000Y-167360000D03*
X159920000Y-162360000D03*
X159920000Y-157360000D03*
X159920000Y-152360000D03*
X159920000Y-147360000D03*
X159920000Y-142360000D03*
X159920000Y-137360000D03*
X159920000Y-132360000D03*
X159920000Y-127360000D03*
X159920000Y-122360000D03*
X159920000Y-117360000D03*
X159920000Y-112360000D03*
X159920000Y-107360000D03*
X159920000Y-102360000D03*
X159920000Y-97360000D03*
X159920000Y-92360000D03*
X159920000Y-87360000D03*
X159920000Y-82360000D03*
X159920000Y-77360000D03*
X159920000Y-72360000D03*
X159920000Y-67360000D03*
X159920000Y-62360000D03*
X159920000Y-57360000D03*
X159920000Y-52360000D03*
X159920000Y-47360000D03*
X159920000Y-42360000D03*
X154920000Y-187360000D03*
X154920000Y-182360000D03*
X154920000Y-177360000D03*
X154920000Y-172360000D03*
X154920000Y-167360000D03*
X154920000Y-162360000D03*
X154920000Y-157360000D03*
X154920000Y-152360000D03*
X154920000Y-147360000D03*
X154920000Y-142360000D03*
X154920000Y-137360000D03*
X154920000Y-132360000D03*
X154920000Y-127360000D03*
X154920000Y-122360000D03*
X154920000Y-117360000D03*
X154920000Y-112360000D03*
X154920000Y-107360000D03*
X154920000Y-102360000D03*
X154920000Y-97360000D03*
X154920000Y-92360000D03*
X154920000Y-87360000D03*
X154920000Y-82360000D03*
X154920000Y-77360000D03*
X154920000Y-72360000D03*
X154920000Y-67360000D03*
X154920000Y-62360000D03*
X154920000Y-57360000D03*
X154920000Y-52360000D03*
X154920000Y-47360000D03*
X154920000Y-42360000D03*
X149920000Y-187360000D03*
X149920000Y-182360000D03*
X149920000Y-177360000D03*
X149920000Y-172360000D03*
X149920000Y-167360000D03*
X149920000Y-162360000D03*
X149920000Y-157360000D03*
X149920000Y-152360000D03*
X149920000Y-147360000D03*
X149920000Y-142360000D03*
X149920000Y-137360000D03*
X149920000Y-132360000D03*
X149920000Y-127360000D03*
X149920000Y-122360000D03*
X149920000Y-117360000D03*
X149920000Y-112360000D03*
X149920000Y-107360000D03*
X149920000Y-102360000D03*
X149920000Y-97360000D03*
X149920000Y-92360000D03*
X149920000Y-87360000D03*
X149920000Y-82360000D03*
X149920000Y-77360000D03*
X149920000Y-72360000D03*
X149920000Y-67360000D03*
X149920000Y-62360000D03*
X149920000Y-57360000D03*
X149920000Y-52360000D03*
X149920000Y-47360000D03*
X149920000Y-42360000D03*
X144920000Y-187360000D03*
X144920000Y-182360000D03*
X144920000Y-177360000D03*
X144920000Y-172360000D03*
X144920000Y-167360000D03*
X144920000Y-162360000D03*
X144920000Y-157360000D03*
X144920000Y-152360000D03*
X144920000Y-147360000D03*
X144920000Y-142360000D03*
X144920000Y-137360000D03*
X144920000Y-132360000D03*
X144920000Y-127360000D03*
X144920000Y-122360000D03*
X144920000Y-112360000D03*
X144920000Y-107360000D03*
X144920000Y-102360000D03*
X144920000Y-97360000D03*
X144920000Y-92360000D03*
X144920000Y-87360000D03*
X144920000Y-82360000D03*
X144920000Y-77360000D03*
X144920000Y-72360000D03*
X144920000Y-67360000D03*
X144920000Y-62360000D03*
X144920000Y-57360000D03*
X144920000Y-52360000D03*
X144920000Y-47360000D03*
X144920000Y-42360000D03*
X139920000Y-187360000D03*
X139920000Y-182360000D03*
X139920000Y-177360000D03*
X139920000Y-172360000D03*
X139920000Y-167360000D03*
X139920000Y-162360000D03*
X139920000Y-157360000D03*
X139920000Y-152360000D03*
X139920000Y-147360000D03*
X139920000Y-142360000D03*
X139920000Y-137360000D03*
X139920000Y-132360000D03*
X139920000Y-127360000D03*
X139920000Y-122360000D03*
X139920000Y-117360000D03*
X139920000Y-107360000D03*
X139920000Y-102360000D03*
X139920000Y-97360000D03*
X139920000Y-92360000D03*
X139920000Y-87360000D03*
X139920000Y-82360000D03*
X139920000Y-77360000D03*
X139920000Y-72360000D03*
X139920000Y-67360000D03*
X139920000Y-62360000D03*
X139920000Y-57360000D03*
X139920000Y-52360000D03*
X139920000Y-47360000D03*
X139920000Y-42360000D03*
X134920000Y-187360000D03*
X134920000Y-182360000D03*
X134920000Y-177360000D03*
X134920000Y-172360000D03*
X134920000Y-167360000D03*
X134920000Y-162360000D03*
X134920000Y-157360000D03*
X134920000Y-152360000D03*
X134920000Y-147360000D03*
X134920000Y-142360000D03*
X134920000Y-137360000D03*
X134920000Y-132360000D03*
X134920000Y-127360000D03*
X134920000Y-122360000D03*
X134920000Y-117360000D03*
X134920000Y-112360000D03*
X134920000Y-102360000D03*
X134920000Y-97360000D03*
X134920000Y-92360000D03*
X134920000Y-87360000D03*
X134920000Y-82360000D03*
X134920000Y-77360000D03*
X134920000Y-72360000D03*
X134920000Y-67360000D03*
X134920000Y-62360000D03*
X134920000Y-57360000D03*
X134920000Y-52360000D03*
X134920000Y-47360000D03*
X134920000Y-42360000D03*
X129920000Y-187360000D03*
X129920000Y-182360000D03*
X129920000Y-177360000D03*
X129920000Y-172360000D03*
X129920000Y-167360000D03*
X129920000Y-162360000D03*
X129920000Y-157360000D03*
X129920000Y-152360000D03*
X129920000Y-147360000D03*
X129920000Y-142360000D03*
X129920000Y-137360000D03*
X129920000Y-132360000D03*
X129920000Y-127360000D03*
X129920000Y-122360000D03*
X129920000Y-117360000D03*
X129920000Y-112360000D03*
X129920000Y-107360000D03*
X129920000Y-97360000D03*
X129920000Y-92360000D03*
X129920000Y-87360000D03*
X129920000Y-82360000D03*
X129920000Y-77360000D03*
X129920000Y-72360000D03*
X129920000Y-67360000D03*
X129920000Y-62360000D03*
X129920000Y-57360000D03*
X129920000Y-52360000D03*
X129920000Y-47360000D03*
X129920000Y-42360000D03*
X124920000Y-187360000D03*
X124920000Y-182360000D03*
X124920000Y-177360000D03*
X124920000Y-172360000D03*
X124920000Y-167360000D03*
X124920000Y-162360000D03*
X124920000Y-157360000D03*
X124920000Y-152360000D03*
X124920000Y-147360000D03*
X124920000Y-142360000D03*
X124920000Y-137360000D03*
X124920000Y-132360000D03*
X124920000Y-127360000D03*
X124920000Y-122360000D03*
X124920000Y-117360000D03*
X124920000Y-112360000D03*
X124920000Y-107360000D03*
X124920000Y-102360000D03*
X124920000Y-92360000D03*
X124920000Y-87360000D03*
X124920000Y-82360000D03*
X124920000Y-77360000D03*
X124920000Y-72360000D03*
X124920000Y-67360000D03*
X124920000Y-62360000D03*
X124920000Y-57360000D03*
X124920000Y-52360000D03*
X124920000Y-47360000D03*
X124920000Y-42360000D03*
X119920000Y-187360000D03*
X119920000Y-182360000D03*
X119920000Y-177360000D03*
X119920000Y-172360000D03*
X119920000Y-167360000D03*
X119920000Y-162360000D03*
X119920000Y-157360000D03*
X119920000Y-152360000D03*
X119920000Y-147360000D03*
X119920000Y-142360000D03*
X119920000Y-137360000D03*
X119920000Y-132360000D03*
X119920000Y-127360000D03*
X119920000Y-122360000D03*
X119920000Y-117360000D03*
X119920000Y-112360000D03*
X119920000Y-107360000D03*
X119920000Y-102360000D03*
X119920000Y-97360000D03*
X119920000Y-87360000D03*
X119920000Y-82360000D03*
X119920000Y-77360000D03*
X119920000Y-72360000D03*
X119920000Y-67360000D03*
X119920000Y-62360000D03*
X119920000Y-57360000D03*
X119920000Y-52360000D03*
X119920000Y-47360000D03*
X119920000Y-42360000D03*
X114920000Y-187360000D03*
X114920000Y-182360000D03*
X114920000Y-177360000D03*
X114920000Y-172360000D03*
X114920000Y-167360000D03*
X114920000Y-162360000D03*
X114920000Y-157360000D03*
X114920000Y-147360000D03*
X114920000Y-137360000D03*
X114920000Y-132360000D03*
X114920000Y-127360000D03*
X114920000Y-122360000D03*
X114920000Y-117360000D03*
X114920000Y-112360000D03*
X114920000Y-107360000D03*
X114920000Y-102360000D03*
X114920000Y-97360000D03*
X114920000Y-92360000D03*
X114920000Y-82360000D03*
X114920000Y-77360000D03*
X114920000Y-72360000D03*
X114920000Y-67360000D03*
X114920000Y-62360000D03*
X114920000Y-57360000D03*
X114920000Y-52360000D03*
X114920000Y-47360000D03*
X114920000Y-42360000D03*
X109920000Y-187360000D03*
X109920000Y-182360000D03*
X109920000Y-177360000D03*
X109920000Y-172360000D03*
X109920000Y-167360000D03*
X109920000Y-162360000D03*
X109920000Y-157360000D03*
X109920000Y-117360000D03*
X109920000Y-112360000D03*
X109920000Y-107360000D03*
X109920000Y-102360000D03*
X109920000Y-97360000D03*
X109920000Y-92360000D03*
X109920000Y-87360000D03*
X109920000Y-77360000D03*
X109920000Y-72360000D03*
X109920000Y-67360000D03*
X109920000Y-62360000D03*
X109920000Y-57360000D03*
X109920000Y-52360000D03*
X109920000Y-47360000D03*
X109920000Y-42360000D03*
X104920000Y-187360000D03*
X104920000Y-182360000D03*
X104920000Y-177360000D03*
X104920000Y-172360000D03*
X104920000Y-167360000D03*
X104920000Y-162360000D03*
X104920000Y-157360000D03*
X104920000Y-152360000D03*
X104920000Y-147360000D03*
X104920000Y-142360000D03*
X104920000Y-132360000D03*
X104920000Y-117360000D03*
X104920000Y-112360000D03*
X104920000Y-107360000D03*
X104920000Y-102360000D03*
X104920000Y-97360000D03*
X104920000Y-92360000D03*
X104920000Y-87360000D03*
X104920000Y-82360000D03*
X104920000Y-72360000D03*
X104920000Y-67360000D03*
X104920000Y-62360000D03*
X104920000Y-57360000D03*
X104920000Y-52360000D03*
X104920000Y-47360000D03*
X104920000Y-42360000D03*
X99920000Y-187360000D03*
X99920000Y-182360000D03*
X99920000Y-177360000D03*
X99920000Y-172360000D03*
X99920000Y-167360000D03*
X99920000Y-162360000D03*
X99920000Y-127360000D03*
X99920000Y-67360000D03*
X99920000Y-62360000D03*
X99920000Y-57360000D03*
X99920000Y-52360000D03*
X99920000Y-47360000D03*
X99920000Y-42360000D03*
X94920000Y-187360000D03*
X94920000Y-182360000D03*
X94920000Y-177360000D03*
X94920000Y-172360000D03*
X94920000Y-167360000D03*
X94920000Y-142360000D03*
X94920000Y-137360000D03*
X94920000Y-122360000D03*
X94920000Y-117360000D03*
X94920000Y-112360000D03*
X94920000Y-107360000D03*
X94920000Y-102360000D03*
X94920000Y-97360000D03*
X94920000Y-72360000D03*
X94920000Y-67360000D03*
X94920000Y-62360000D03*
X94920000Y-57360000D03*
X94920000Y-52360000D03*
X94920000Y-47360000D03*
X94920000Y-42360000D03*
X89920000Y-187360000D03*
X89920000Y-182360000D03*
X89920000Y-177360000D03*
X89920000Y-172360000D03*
X89920000Y-167360000D03*
X89920000Y-162360000D03*
X89920000Y-157360000D03*
X89920000Y-152360000D03*
X89920000Y-147360000D03*
X89920000Y-142360000D03*
X89920000Y-137360000D03*
X89920000Y-122360000D03*
X89920000Y-107360000D03*
X89920000Y-102360000D03*
X89920000Y-97360000D03*
X89920000Y-92360000D03*
X89920000Y-87360000D03*
X89920000Y-82360000D03*
X89920000Y-77360000D03*
X89920000Y-72360000D03*
X89920000Y-67360000D03*
X89920000Y-62360000D03*
X89920000Y-57360000D03*
X89920000Y-52360000D03*
X89920000Y-47360000D03*
X89920000Y-42360000D03*
X84920000Y-187360000D03*
X84920000Y-182360000D03*
X84920000Y-177360000D03*
X84920000Y-172360000D03*
X84920000Y-167360000D03*
X84920000Y-162360000D03*
X84920000Y-147360000D03*
X84920000Y-137360000D03*
X84920000Y-112360000D03*
X84920000Y-102360000D03*
X84920000Y-97360000D03*
X84920000Y-72360000D03*
X84920000Y-67360000D03*
X84920000Y-62360000D03*
X84920000Y-52360000D03*
X84920000Y-47360000D03*
X84920000Y-42360000D03*
X79920000Y-187360000D03*
X79920000Y-182360000D03*
X79920000Y-177360000D03*
X79920000Y-172360000D03*
X79920000Y-167360000D03*
X79920000Y-117360000D03*
X79920000Y-82360000D03*
X79920000Y-67360000D03*
X79920000Y-62360000D03*
X79920000Y-57360000D03*
X79920000Y-52360000D03*
X79920000Y-47360000D03*
X79920000Y-42360000D03*
X74920000Y-187360000D03*
X74920000Y-182360000D03*
X74920000Y-177360000D03*
X74920000Y-172360000D03*
X74920000Y-167360000D03*
X74920000Y-62360000D03*
X74920000Y-57360000D03*
X74920000Y-47360000D03*
X74920000Y-42360000D03*
X69920000Y-187360000D03*
X69920000Y-182360000D03*
X69920000Y-177360000D03*
X69920000Y-172360000D03*
X69920000Y-167360000D03*
X69920000Y-162360000D03*
X69920000Y-157360000D03*
X69920000Y-152360000D03*
X69920000Y-147360000D03*
X69920000Y-92360000D03*
X69920000Y-87360000D03*
X69920000Y-82360000D03*
X69920000Y-67360000D03*
X69920000Y-62360000D03*
X69920000Y-57360000D03*
X69920000Y-52360000D03*
X69920000Y-47360000D03*
X69920000Y-42360000D03*
X64920000Y-187360000D03*
X64920000Y-182360000D03*
X64920000Y-177360000D03*
X64920000Y-172360000D03*
X64920000Y-167360000D03*
X64920000Y-162360000D03*
X64920000Y-147360000D03*
X64920000Y-142360000D03*
X64920000Y-122360000D03*
X64920000Y-97360000D03*
X64920000Y-77360000D03*
X64920000Y-67360000D03*
X64920000Y-62360000D03*
X64920000Y-57360000D03*
X64920000Y-52360000D03*
X64920000Y-47360000D03*
X64920000Y-42360000D03*
X59920000Y-187360000D03*
X59920000Y-182360000D03*
X59920000Y-177360000D03*
X59920000Y-172360000D03*
X59920000Y-167360000D03*
X59920000Y-162360000D03*
X59920000Y-147360000D03*
X59920000Y-142360000D03*
X59920000Y-122360000D03*
X59920000Y-97360000D03*
X59920000Y-92360000D03*
X59920000Y-87360000D03*
X59920000Y-72360000D03*
X59920000Y-62360000D03*
X59920000Y-57360000D03*
X59920000Y-52360000D03*
X59920000Y-47360000D03*
X59920000Y-42360000D03*
D16*
%TO.N,+5V*%
X57600000Y-51200000D03*
X66000000Y-77190000D03*
X78000000Y-69500000D03*
X57600000Y-48600000D03*
X86000000Y-142500000D03*
X66020000Y-97240000D03*
X67710001Y-142352499D03*
X85940000Y-77240000D03*
%TO.N,GND*%
X64640000Y-95600000D03*
X87425545Y-117999999D03*
X62800000Y-108200000D03*
X72600000Y-159600000D03*
X67880000Y-98740000D03*
X57600000Y-106200000D03*
X64850000Y-117350000D03*
X89600000Y-117200000D03*
X82140000Y-130100000D03*
X64640000Y-90880000D03*
X61200000Y-106200000D03*
X77370000Y-54720000D03*
X106770000Y-123100000D03*
X57600000Y-122400000D03*
X100340500Y-118350000D03*
X95849018Y-115710982D03*
X74000000Y-106600000D03*
X77140000Y-161990000D03*
X55760000Y-122650000D03*
X56480000Y-101160000D03*
X57600000Y-136600000D03*
X64640000Y-93410000D03*
X86880000Y-54010000D03*
X72800000Y-144000000D03*
X87433602Y-127008255D03*
X79400000Y-105600000D03*
X55600000Y-173190000D03*
X57600000Y-139200000D03*
X57600000Y-108800000D03*
X62000000Y-103600000D03*
X57600000Y-141800000D03*
X57600000Y-116400000D03*
X55610000Y-168390000D03*
X57600000Y-129000000D03*
X72600000Y-157000000D03*
X105500000Y-131000000D03*
X106830000Y-119520000D03*
X68770000Y-143990000D03*
X64950000Y-161369500D03*
X64850000Y-139330000D03*
X72600000Y-162000000D03*
X87680000Y-150550000D03*
X87425544Y-124000000D03*
X97800000Y-125600000D03*
X65810000Y-66390000D03*
X91200000Y-144000000D03*
X91000000Y-125400000D03*
X64640000Y-94760000D03*
X61070000Y-110860000D03*
X115000000Y-144600000D03*
X102000000Y-113000000D03*
X100100000Y-126100000D03*
X108000000Y-152000000D03*
X75109396Y-69461285D03*
X67940000Y-55010000D03*
X57600000Y-113930000D03*
X57600000Y-103600000D03*
X80000000Y-122500000D03*
X62000000Y-100800000D03*
X91002048Y-127927952D03*
X101800000Y-96400000D03*
X94200000Y-84400000D03*
X64640000Y-88760000D03*
X57600000Y-131600000D03*
X97400000Y-118400000D03*
X89000000Y-115425544D03*
X72600000Y-154400000D03*
X57600000Y-126200000D03*
X108000000Y-154500000D03*
X74290000Y-128560000D03*
X107600000Y-141000000D03*
X64640000Y-89670000D03*
X105600000Y-137200000D03*
X57600000Y-134000000D03*
X113440000Y-120710000D03*
X55700000Y-147810000D03*
X57600000Y-71600000D03*
X91500000Y-162000000D03*
X64640000Y-92160000D03*
X98510000Y-128510000D03*
X67880000Y-123190000D03*
X94340000Y-150590000D03*
X57600000Y-111200000D03*
X56470000Y-118760000D03*
X94564682Y-128505598D03*
X72600000Y-151800000D03*
X96500000Y-135000000D03*
X57630000Y-97200000D03*
%TO.N,/IDDIR*%
X67900000Y-97670000D03*
X63750000Y-87100000D03*
%TO.N,/AB10*%
X63000000Y-135000000D03*
%TO.N,/AB20*%
X83480000Y-88430000D03*
%TO.N,/AB16*%
X83500000Y-93450000D03*
%TO.N,/AB18*%
X83500000Y-90950000D03*
%TO.N,/AB7*%
X83083843Y-151083843D03*
%TO.N,/AB8*%
X63000000Y-138000000D03*
%TO.N,/AB6*%
X83000000Y-152610010D03*
%TO.N,/AB5*%
X83000000Y-154000000D03*
%TO.N,/AB11*%
X63000000Y-133500000D03*
%TO.N,/AB12*%
X63000000Y-132000000D03*
%TO.N,/AB13*%
X63000000Y-130500000D03*
%TO.N,/AB14*%
X63000000Y-129000000D03*
%TO.N,/AB15*%
X63000000Y-127500000D03*
%TO.N,/AB17*%
X83490000Y-92250000D03*
%TO.N,/AB19*%
X83490000Y-89650000D03*
%TO.N,/AB22*%
X83500000Y-85850000D03*
%TO.N,/AB21*%
X83500000Y-87160000D03*
%TO.N,/IACK2*%
X63000000Y-84500000D03*
%TO.N,/IACK4*%
X64000000Y-85500000D03*
%TO.N,/AB23*%
X83520000Y-84600000D03*
%TO.N,/IRQ4*%
X56320000Y-66760000D03*
%TO.N,/DTACK*%
X56980000Y-84580000D03*
X60200000Y-73800000D03*
%TO.N,/IRQ2*%
X59000000Y-68700000D03*
%TO.N,/10MHz*%
X68020000Y-111460000D03*
X69000000Y-164600000D03*
X70550000Y-111520000D03*
%TO.N,/AB4*%
X83000000Y-155610010D03*
%TO.N,/AB3*%
X83000000Y-157000000D03*
%TO.N,/AB2*%
X83000000Y-158500000D03*
%TO.N,/AB1*%
X83000000Y-160000000D03*
%TO.N,/AB9*%
X63000000Y-136500000D03*
%TO.N,Net-(U1-Pad9)*%
X92500000Y-111500000D03*
X99964499Y-120730000D03*
%TO.N,+3V3*%
X92200000Y-76400000D03*
X107700000Y-146300000D03*
X112000000Y-135400000D03*
X77400000Y-75590000D03*
X77400000Y-121400000D03*
X77200000Y-144000000D03*
X110800000Y-141500000D03*
X112309069Y-139171755D03*
X84000000Y-127600000D03*
X96000000Y-145800000D03*
X77380000Y-72000000D03*
%TO.N,+1V2*%
X103900000Y-125700000D03*
X83900000Y-121900000D03*
X93400000Y-132700000D03*
X100200000Y-109400000D03*
X92000000Y-66500000D03*
%TO.N,/so*%
X117400000Y-140600000D03*
X113200000Y-140400000D03*
%TO.N,/sck*%
X107000000Y-135110010D03*
X107000000Y-139500000D03*
%TO.N,/xltr_oe*%
X103400000Y-128000000D03*
X78600000Y-144000000D03*
%TD*%
D17*
%TO.N,+5V*%
X50000000Y-51200000D02*
X57400000Y-51200000D01*
X74960000Y-77240000D02*
X75200000Y-77000000D01*
X66000000Y-77190000D02*
X66000000Y-70800000D01*
X67710001Y-142352499D02*
X85852499Y-142352499D01*
X57600000Y-51200000D02*
X57600000Y-62400000D01*
D18*
X57600000Y-62400000D02*
X57600000Y-51000000D01*
D17*
X75200000Y-77000000D02*
X75200000Y-72300000D01*
X66000000Y-77190000D02*
X66000000Y-97220000D01*
X85852499Y-142352499D02*
X86000000Y-142500000D01*
X57600000Y-48600000D02*
X50400000Y-48600000D01*
X75200000Y-72300000D02*
X78000000Y-69500000D01*
X66000000Y-70800000D02*
X57600000Y-62400000D01*
X66000499Y-77249501D02*
X85900009Y-77249501D01*
X66000000Y-97220000D02*
X66020000Y-97240000D01*
%TO.N,GND*%
X55750000Y-122660000D02*
X55760000Y-122650000D01*
X50000000Y-147800000D02*
X55690000Y-147800000D01*
X55590000Y-173200000D02*
X55600000Y-173190000D01*
X50000000Y-173200000D02*
X55590000Y-173200000D01*
X50000000Y-122660000D02*
X55750000Y-122660000D01*
X50000000Y-71600000D02*
X57600000Y-71600000D01*
X55690000Y-147800000D02*
X55700000Y-147810000D01*
D19*
%TO.N,/IDDIR*%
X62000000Y-99800000D02*
X50000000Y-99800000D01*
X63750000Y-98050000D02*
X62000000Y-99800000D01*
X67520000Y-98050000D02*
X63750000Y-98050000D01*
X67900000Y-97670000D02*
X67520000Y-98050000D01*
X63750000Y-98050000D02*
X63750000Y-87100000D01*
%TO.N,/AB10*%
X60100000Y-137900000D02*
X63000000Y-135000000D01*
X50000000Y-137900000D02*
X60100000Y-137900000D01*
%TO.N,/AB20*%
X83480000Y-88430000D02*
X83480000Y-88520000D01*
X83480000Y-88520000D02*
X62040000Y-109960000D01*
X62040000Y-109960000D02*
X50000000Y-109960000D01*
%TO.N,/AB16*%
X83490000Y-93450000D02*
X56820000Y-120120000D01*
X56820000Y-120120000D02*
X50000000Y-120120000D01*
X83500000Y-93450000D02*
X83490000Y-93450000D01*
%TO.N,/AB18*%
X83460000Y-90950000D02*
X59370000Y-115040000D01*
X83500000Y-90950000D02*
X83460000Y-90950000D01*
X59370000Y-115040000D02*
X50000000Y-115040000D01*
%TO.N,/AB7*%
X50000000Y-145520000D02*
X76460000Y-145520000D01*
X76460000Y-145520000D02*
X82023843Y-151083843D01*
X82023843Y-151083843D02*
X83083843Y-151083843D01*
%TO.N,/AB8*%
X50000000Y-142980000D02*
X58020000Y-142980000D01*
X58020000Y-142980000D02*
X63000000Y-138000000D01*
%TO.N,/AB6*%
X80989990Y-150600000D02*
X83000000Y-152610010D01*
X50000000Y-150600000D02*
X80989990Y-150600000D01*
%TO.N,/AB5*%
X82140000Y-153140000D02*
X83000000Y-154000000D01*
X50000000Y-153140000D02*
X82140000Y-153140000D01*
%TO.N,/AB11*%
X61140000Y-135360000D02*
X63000000Y-133500000D01*
X50000000Y-135360000D02*
X61140000Y-135360000D01*
%TO.N,/AB12*%
X62180000Y-132820000D02*
X63000000Y-132000000D01*
X50000000Y-132820000D02*
X62180000Y-132820000D01*
%TO.N,/AB13*%
X62780000Y-130280000D02*
X63000000Y-130500000D01*
X50000000Y-130280000D02*
X62780000Y-130280000D01*
%TO.N,/AB14*%
X50000000Y-127740000D02*
X61740000Y-127740000D01*
X61740000Y-127740000D02*
X63000000Y-129000000D01*
%TO.N,/AB15*%
X50000000Y-125200000D02*
X60700000Y-125200000D01*
X60700000Y-125200000D02*
X63000000Y-127500000D01*
%TO.N,/AB17*%
X58160000Y-117580000D02*
X50000000Y-117580000D01*
X83490000Y-92250000D02*
X58160000Y-117580000D01*
%TO.N,/AB19*%
X83480000Y-89650000D02*
X60630000Y-112500000D01*
X60630000Y-112500000D02*
X50000000Y-112500000D01*
X83490000Y-89650000D02*
X83480000Y-89650000D01*
%TO.N,/AB22*%
X82900000Y-85850000D02*
X63870000Y-104880000D01*
X63870000Y-104880000D02*
X50000000Y-104880000D01*
X83500000Y-85850000D02*
X82900000Y-85850000D01*
%TO.N,/AB21*%
X63080000Y-107420000D02*
X50000000Y-107420000D01*
X83500000Y-87160000D02*
X83340000Y-87160000D01*
X83340000Y-87160000D02*
X63080000Y-107420000D01*
%TO.N,/IACK2*%
X50000000Y-64240000D02*
X55640000Y-64240000D01*
X55640000Y-64240000D02*
X63000000Y-71600000D01*
X63000000Y-71600000D02*
X63000000Y-84500000D01*
%TO.N,/IACK4*%
X64000000Y-71600000D02*
X64000000Y-85500000D01*
X50000000Y-61700000D02*
X54100000Y-61700000D01*
X54100000Y-61700000D02*
X64000000Y-71600000D01*
%TO.N,/AB23*%
X83520000Y-84600000D02*
X83100000Y-84600000D01*
X65360000Y-102340000D02*
X50000000Y-102340000D01*
X83100000Y-84600000D02*
X65360000Y-102340000D01*
%TO.N,/IRQ4*%
X56320000Y-66760000D02*
X56300000Y-66780000D01*
X56300000Y-66780000D02*
X50000000Y-66780000D01*
%TO.N,/DTACK*%
X57420000Y-84580000D02*
X60200000Y-81800000D01*
X56980000Y-84580000D02*
X57420000Y-84580000D01*
X60200000Y-81800000D02*
X60200000Y-73800000D01*
%TO.N,/IRQ2*%
X59000000Y-68700000D02*
X58380000Y-69320000D01*
X58380000Y-69320000D02*
X50000000Y-69320000D01*
%TO.N,/10MHz*%
X54200000Y-168380000D02*
X57980000Y-164600000D01*
X50000000Y-168380000D02*
X54200000Y-168380000D01*
X57980000Y-164600000D02*
X69000000Y-164600000D01*
X70490000Y-111460000D02*
X68020000Y-111460000D01*
X70550000Y-111520000D02*
X70490000Y-111460000D01*
%TO.N,/AB4*%
X82930010Y-155680000D02*
X83000000Y-155610010D01*
X50000000Y-155680000D02*
X82930010Y-155680000D01*
%TO.N,/AB3*%
X50000000Y-158220000D02*
X81780000Y-158220000D01*
X81780000Y-158220000D02*
X83000000Y-157000000D01*
%TO.N,/AB2*%
X80740000Y-160760000D02*
X83000000Y-158500000D01*
X50000000Y-160760000D02*
X80740000Y-160760000D01*
%TO.N,/AB1*%
X79700000Y-163300000D02*
X83000000Y-160000000D01*
X50000000Y-163300000D02*
X79700000Y-163300000D01*
%TO.N,/AB9*%
X59060000Y-140440000D02*
X63000000Y-136500000D01*
X50000000Y-140440000D02*
X59060000Y-140440000D01*
%TO.N,Net-(U1-Pad9)*%
X99964499Y-120730000D02*
X99964499Y-118964499D01*
X99964499Y-118964499D02*
X92500000Y-111500000D01*
D17*
%TO.N,+3V3*%
X112309069Y-139171755D02*
X112309069Y-135709069D01*
X107700000Y-146300000D02*
X107700000Y-144600000D01*
X96500000Y-146300000D02*
X107700000Y-146300000D01*
X77340000Y-144670000D02*
X78470000Y-145800000D01*
X83600000Y-127600000D02*
X77400000Y-121400000D01*
X77400000Y-75590000D02*
X77400000Y-72020000D01*
X107700000Y-144600000D02*
X110800000Y-141500000D01*
X96000000Y-145800000D02*
X96500000Y-146300000D01*
X112309069Y-135709069D02*
X112000000Y-135400000D01*
X77340000Y-144140000D02*
X77340000Y-144670000D01*
X84000000Y-127600000D02*
X83600000Y-127600000D01*
X77400000Y-75590000D02*
X91390000Y-75590000D01*
X91390000Y-75590000D02*
X92200000Y-76400000D01*
X110800000Y-141500000D02*
X110800000Y-140680824D01*
X110800000Y-140680824D02*
X112309069Y-139171755D01*
X78470000Y-145800000D02*
X96000000Y-145800000D01*
X77200000Y-144000000D02*
X77340000Y-144140000D01*
X77400000Y-72020000D02*
X77380000Y-72000000D01*
%TO.N,+1V2*%
X103900000Y-119930000D02*
X103900000Y-125700000D01*
X92000000Y-66500000D02*
X100200000Y-74700000D01*
X100200000Y-74700000D02*
X100200000Y-109400000D01*
X100200000Y-109400000D02*
X100200000Y-109894974D01*
X101100000Y-110794974D02*
X100990489Y-110904485D01*
X86010000Y-124010000D02*
X83900000Y-121900000D01*
X88210000Y-130500000D02*
X86010000Y-128300000D01*
X103200000Y-125700000D02*
X96200000Y-132700000D01*
X100990489Y-117020489D02*
X103900000Y-119930000D01*
X96200000Y-132700000D02*
X93400000Y-132700000D01*
X100200000Y-109894974D02*
X101100000Y-110794974D01*
X93400000Y-132700000D02*
X91200000Y-130500000D01*
X91200000Y-130500000D02*
X88210000Y-130500000D01*
X86010000Y-128300000D02*
X86010000Y-124010000D01*
X103900000Y-125700000D02*
X103200000Y-125700000D01*
X100990489Y-110904485D02*
X100990489Y-117020489D01*
D19*
%TO.N,/so*%
X117400000Y-140600000D02*
X113400000Y-140600000D01*
X113400000Y-140600000D02*
X113200000Y-140400000D01*
%TO.N,/sck*%
X107000000Y-139500000D02*
X107000000Y-135110010D01*
%TO.N,/xltr_oe*%
X86597198Y-144000000D02*
X78600000Y-144000000D01*
X102597198Y-128000000D02*
X86597198Y-144000000D01*
X103400000Y-128000000D02*
X102597198Y-128000000D01*
%TD*%
%TA.AperFunction,Conductor*%
%TO.N,GND*%
G36*
X180980242Y-39202466D02*
G01*
X180985811Y-39202476D01*
X180999641Y-39205656D01*
X181013480Y-39202524D01*
X181027671Y-39202549D01*
X181027670Y-39202942D01*
X181035627Y-39202250D01*
X181366240Y-39218493D01*
X181378534Y-39219704D01*
X181735122Y-39272598D01*
X181747244Y-39275008D01*
X181923077Y-39319052D01*
X182096940Y-39362603D01*
X182108772Y-39366193D01*
X182448169Y-39487632D01*
X182459593Y-39492363D01*
X182686444Y-39599655D01*
X182785482Y-39646496D01*
X182796383Y-39652323D01*
X183105583Y-39837651D01*
X183115864Y-39844521D01*
X183405411Y-40059264D01*
X183414948Y-40067089D01*
X183682071Y-40309196D01*
X183690804Y-40317929D01*
X183932911Y-40585052D01*
X183940736Y-40594589D01*
X184078942Y-40780938D01*
X184155479Y-40884136D01*
X184162349Y-40894417D01*
X184347677Y-41203617D01*
X184353506Y-41214522D01*
X184507637Y-41540407D01*
X184512368Y-41551831D01*
X184633807Y-41891228D01*
X184637397Y-41903060D01*
X184724991Y-42252753D01*
X184727402Y-42264878D01*
X184778895Y-42612013D01*
X184780296Y-42621461D01*
X184781507Y-42633760D01*
X184781862Y-42640972D01*
X184797722Y-42963806D01*
X184797029Y-42971622D01*
X184797549Y-42971623D01*
X184797524Y-42985812D01*
X184794344Y-42999641D01*
X184797475Y-43013480D01*
X184797467Y-43018311D01*
X184799500Y-43036504D01*
X184799500Y-184962920D01*
X184797534Y-184980242D01*
X184797524Y-184985811D01*
X184794344Y-184999641D01*
X184797476Y-185013480D01*
X184797451Y-185027671D01*
X184797058Y-185027670D01*
X184797750Y-185035627D01*
X184781622Y-185363918D01*
X184781508Y-185366234D01*
X184780296Y-185378534D01*
X184776903Y-185401410D01*
X184727403Y-185735119D01*
X184724991Y-185747247D01*
X184637397Y-186096940D01*
X184633807Y-186108772D01*
X184512368Y-186448169D01*
X184507637Y-186459593D01*
X184353506Y-186785478D01*
X184347677Y-186796383D01*
X184162349Y-187105583D01*
X184155479Y-187115864D01*
X184082963Y-187213640D01*
X183940736Y-187405411D01*
X183932911Y-187414948D01*
X183690809Y-187682066D01*
X183682071Y-187690804D01*
X183414948Y-187932911D01*
X183405411Y-187940736D01*
X183219062Y-188078942D01*
X183115864Y-188155479D01*
X183105583Y-188162349D01*
X182796383Y-188347677D01*
X182785482Y-188353504D01*
X182686444Y-188400345D01*
X182459593Y-188507637D01*
X182448169Y-188512368D01*
X182108772Y-188633807D01*
X182096940Y-188637397D01*
X181923077Y-188680948D01*
X181747244Y-188724992D01*
X181735122Y-188727402D01*
X181378534Y-188780296D01*
X181366240Y-188781507D01*
X181073290Y-188795900D01*
X181036194Y-188797722D01*
X181028378Y-188797029D01*
X181028377Y-188797549D01*
X181014188Y-188797524D01*
X181000359Y-188794344D01*
X180986520Y-188797475D01*
X180981689Y-188797467D01*
X180963496Y-188799500D01*
X58037080Y-188799500D01*
X58019758Y-188797534D01*
X58014189Y-188797524D01*
X58000359Y-188794344D01*
X57986520Y-188797476D01*
X57972329Y-188797451D01*
X57972330Y-188797058D01*
X57964373Y-188797750D01*
X57633760Y-188781507D01*
X57621466Y-188780296D01*
X57264878Y-188727402D01*
X57252756Y-188724992D01*
X57076923Y-188680948D01*
X56903060Y-188637397D01*
X56891228Y-188633807D01*
X56551831Y-188512368D01*
X56540407Y-188507637D01*
X56313556Y-188400345D01*
X56214518Y-188353504D01*
X56203617Y-188347677D01*
X55894417Y-188162349D01*
X55884136Y-188155479D01*
X55780938Y-188078942D01*
X55594589Y-187940736D01*
X55585052Y-187932911D01*
X55317929Y-187690804D01*
X55309191Y-187682065D01*
X55067104Y-187414963D01*
X55059260Y-187405405D01*
X54884796Y-187170168D01*
X54860282Y-187103538D01*
X54860000Y-187095110D01*
X54860000Y-181988113D01*
X177594527Y-181988113D01*
X177613162Y-182355971D01*
X177613699Y-182359326D01*
X177613700Y-182359332D01*
X177654038Y-182611170D01*
X177671416Y-182719665D01*
X177768608Y-183074941D01*
X177903602Y-183417642D01*
X178074817Y-183743759D01*
X178076718Y-183746588D01*
X178076724Y-183746598D01*
X178261707Y-184021879D01*
X178280252Y-184049477D01*
X178517502Y-184331221D01*
X178620006Y-184429176D01*
X178781329Y-184583341D01*
X178781336Y-184583347D01*
X178783792Y-184585694D01*
X179076008Y-184809919D01*
X179390731Y-185001274D01*
X179724279Y-185157519D01*
X179727497Y-185158621D01*
X179727500Y-185158622D01*
X180069528Y-185275725D01*
X180069536Y-185275727D01*
X180072751Y-185276828D01*
X180432070Y-185357804D01*
X180506060Y-185366234D01*
X180794650Y-185399115D01*
X180794658Y-185399115D01*
X180798033Y-185399500D01*
X180801437Y-185399518D01*
X180801440Y-185399518D01*
X181001074Y-185400563D01*
X181166358Y-185401428D01*
X181169744Y-185401078D01*
X181169746Y-185401078D01*
X181529345Y-185363918D01*
X181529354Y-185363917D01*
X181532737Y-185363567D01*
X181536070Y-185362853D01*
X181536073Y-185362852D01*
X181713488Y-185324817D01*
X181892884Y-185286358D01*
X182242586Y-185170705D01*
X182577752Y-185017961D01*
X182674965Y-184960240D01*
X182891516Y-184831662D01*
X182891521Y-184831659D01*
X182894461Y-184829913D01*
X182921091Y-184809919D01*
X183186276Y-184610812D01*
X183189009Y-184608760D01*
X183457950Y-184357089D01*
X183698138Y-184077846D01*
X183715838Y-184052093D01*
X183904831Y-183777104D01*
X183906762Y-183774295D01*
X183908374Y-183771301D01*
X183908379Y-183771293D01*
X184079761Y-183453001D01*
X184081383Y-183449989D01*
X184219958Y-183108720D01*
X184320865Y-182754482D01*
X184382925Y-182391418D01*
X184384888Y-182359332D01*
X184405301Y-182025572D01*
X184405411Y-182023775D01*
X184405494Y-182000000D01*
X184385575Y-181632209D01*
X184326052Y-181268720D01*
X184227620Y-180913786D01*
X184224443Y-180905801D01*
X184092690Y-180574722D01*
X184091431Y-180571558D01*
X184061358Y-180514760D01*
X183920677Y-180249060D01*
X183920673Y-180249053D01*
X183919078Y-180246041D01*
X183712578Y-179941041D01*
X183474346Y-179660128D01*
X183207168Y-179406586D01*
X182914172Y-179183382D01*
X182911260Y-179181625D01*
X182911255Y-179181622D01*
X182601705Y-178994889D01*
X182601696Y-178994884D01*
X182598783Y-178993127D01*
X182595693Y-178991693D01*
X182595688Y-178991690D01*
X182431737Y-178915587D01*
X182264691Y-178838047D01*
X182261466Y-178836955D01*
X182261460Y-178836953D01*
X181919032Y-178721048D01*
X181919027Y-178721047D01*
X181915805Y-178719956D01*
X181681920Y-178668104D01*
X181559536Y-178640972D01*
X181559532Y-178640971D01*
X181556206Y-178640234D01*
X181406624Y-178623720D01*
X181193482Y-178600189D01*
X181193475Y-178600189D01*
X181190100Y-178599816D01*
X181186701Y-178599810D01*
X181186700Y-178599810D01*
X181012979Y-178599507D01*
X180821770Y-178599173D01*
X180684556Y-178613837D01*
X180458910Y-178637951D01*
X180458904Y-178637952D01*
X180455526Y-178638313D01*
X180095650Y-178716779D01*
X179746354Y-178833652D01*
X179743261Y-178835075D01*
X179743260Y-178835075D01*
X179733674Y-178839484D01*
X179411723Y-178987565D01*
X179408789Y-178989321D01*
X179408787Y-178989322D01*
X179314763Y-179045594D01*
X179095672Y-179176718D01*
X178801898Y-179398897D01*
X178533837Y-179651505D01*
X178294626Y-179931585D01*
X178292698Y-179934412D01*
X178292696Y-179934414D01*
X178286251Y-179943862D01*
X178087062Y-180235862D01*
X177913574Y-180560776D01*
X177912299Y-180563948D01*
X177912297Y-180563952D01*
X177909240Y-180571558D01*
X177776192Y-180902526D01*
X177676521Y-181257115D01*
X177675959Y-181260472D01*
X177675959Y-181260473D01*
X177674015Y-181272093D01*
X177615729Y-181620393D01*
X177594527Y-181988113D01*
X54860000Y-181988113D01*
X54860000Y-168197161D01*
X54880002Y-168129040D01*
X54896905Y-168108066D01*
X58067567Y-164937405D01*
X58129879Y-164903379D01*
X58156662Y-164900500D01*
X68474556Y-164900500D01*
X68542677Y-164920502D01*
X68574518Y-164949796D01*
X68607379Y-164992621D01*
X68722375Y-165080861D01*
X68856291Y-165136330D01*
X69000000Y-165155250D01*
X69143709Y-165136330D01*
X69277625Y-165080861D01*
X69392621Y-164992621D01*
X69480861Y-164877625D01*
X69536330Y-164743709D01*
X69555250Y-164600000D01*
X69536330Y-164456291D01*
X69480861Y-164322375D01*
X69392621Y-164207379D01*
X69277625Y-164119139D01*
X69143709Y-164063670D01*
X69000000Y-164044750D01*
X68856291Y-164063670D01*
X68722375Y-164119139D01*
X68607379Y-164207379D01*
X68602353Y-164213929D01*
X68574518Y-164250204D01*
X68517180Y-164292071D01*
X68474556Y-164299500D01*
X58032366Y-164299500D01*
X58029693Y-164299304D01*
X58024658Y-164297575D01*
X58013036Y-164298011D01*
X58013034Y-164298011D01*
X57975744Y-164299411D01*
X57971018Y-164299500D01*
X57952052Y-164299500D01*
X57947317Y-164300381D01*
X57943790Y-164300610D01*
X57939254Y-164300780D01*
X57912791Y-164301774D01*
X57902104Y-164306366D01*
X57897492Y-164307405D01*
X57885800Y-164310957D01*
X57881383Y-164312661D01*
X57869947Y-164314791D01*
X57848961Y-164327727D01*
X57832589Y-164336231D01*
X57818112Y-164342451D01*
X57818108Y-164342453D01*
X57809937Y-164345964D01*
X57805051Y-164349978D01*
X57802866Y-164352163D01*
X57800603Y-164354215D01*
X57800458Y-164354055D01*
X57791451Y-164361175D01*
X57784556Y-164367427D01*
X57774652Y-164373532D01*
X57758084Y-164395320D01*
X57746890Y-164408139D01*
X55075095Y-167079934D01*
X55012783Y-167113960D01*
X54941968Y-167108895D01*
X54885132Y-167066348D01*
X54860321Y-166999828D01*
X54860000Y-166990839D01*
X54860000Y-163726500D01*
X54880002Y-163658379D01*
X54933658Y-163611886D01*
X54986000Y-163600500D01*
X79647634Y-163600500D01*
X79650307Y-163600696D01*
X79655342Y-163602425D01*
X79666964Y-163601989D01*
X79666966Y-163601989D01*
X79704255Y-163600589D01*
X79708981Y-163600500D01*
X79727948Y-163600500D01*
X79732683Y-163599618D01*
X79736209Y-163599390D01*
X79739949Y-163599249D01*
X79767208Y-163598226D01*
X79777893Y-163593636D01*
X79782493Y-163592599D01*
X79794214Y-163589038D01*
X79798617Y-163587339D01*
X79810053Y-163585209D01*
X79831041Y-163572272D01*
X79847411Y-163563769D01*
X79861888Y-163557549D01*
X79861892Y-163557547D01*
X79870063Y-163554036D01*
X79874949Y-163550022D01*
X79877134Y-163547837D01*
X79879397Y-163545785D01*
X79879542Y-163545945D01*
X79888549Y-163538825D01*
X79895444Y-163532573D01*
X79905348Y-163526468D01*
X79921916Y-163504680D01*
X79933110Y-163491861D01*
X82840940Y-160584031D01*
X82903252Y-160550005D01*
X82946480Y-160548204D01*
X83000000Y-160555250D01*
X83143709Y-160536330D01*
X83277625Y-160480861D01*
X83392621Y-160392621D01*
X83480861Y-160277625D01*
X83536330Y-160143709D01*
X83555250Y-160000000D01*
X83536330Y-159856291D01*
X83480861Y-159722375D01*
X83392621Y-159607379D01*
X83277625Y-159519139D01*
X83143709Y-159463670D01*
X83000000Y-159444750D01*
X82856291Y-159463670D01*
X82848659Y-159466831D01*
X82848660Y-159466831D01*
X82767227Y-159500561D01*
X82696637Y-159508150D01*
X82633150Y-159476370D01*
X82596923Y-159415312D01*
X82599457Y-159344361D01*
X82629914Y-159295057D01*
X82840940Y-159084031D01*
X82903252Y-159050005D01*
X82946480Y-159048204D01*
X83000000Y-159055250D01*
X83143709Y-159036330D01*
X83277625Y-158980861D01*
X83392621Y-158892621D01*
X83480861Y-158777625D01*
X83536330Y-158643709D01*
X83555250Y-158500000D01*
X83536330Y-158356291D01*
X83480861Y-158222375D01*
X83392621Y-158107379D01*
X83277625Y-158019139D01*
X83143709Y-157963670D01*
X83000000Y-157944750D01*
X82856291Y-157963670D01*
X82848659Y-157966831D01*
X82848660Y-157966831D01*
X82767227Y-158000561D01*
X82696637Y-158008150D01*
X82633150Y-157976370D01*
X82596923Y-157915312D01*
X82599457Y-157844361D01*
X82629914Y-157795057D01*
X82840940Y-157584031D01*
X82903252Y-157550005D01*
X82946480Y-157548204D01*
X83000000Y-157555250D01*
X83143709Y-157536330D01*
X83277625Y-157480861D01*
X83392621Y-157392621D01*
X83480861Y-157277625D01*
X83536330Y-157143709D01*
X83555250Y-157000000D01*
X83536330Y-156856291D01*
X83480861Y-156722375D01*
X83392621Y-156607379D01*
X83277625Y-156519139D01*
X83143709Y-156463670D01*
X83000000Y-156444750D01*
X82856291Y-156463670D01*
X82722375Y-156519139D01*
X82607379Y-156607379D01*
X82519139Y-156722375D01*
X82463670Y-156856291D01*
X82444750Y-157000000D01*
X82451796Y-157053518D01*
X82440857Y-157123665D01*
X82415970Y-157159058D01*
X81692434Y-157882595D01*
X81630121Y-157916620D01*
X81603338Y-157919500D01*
X54986000Y-157919500D01*
X54917879Y-157899498D01*
X54871386Y-157845842D01*
X54860000Y-157793500D01*
X54860000Y-156106500D01*
X54880002Y-156038379D01*
X54933658Y-155991886D01*
X54986000Y-155980500D01*
X82535767Y-155980500D01*
X82603888Y-156000502D01*
X82612467Y-156006535D01*
X82722375Y-156090871D01*
X82856291Y-156146340D01*
X83000000Y-156165260D01*
X83143709Y-156146340D01*
X83277625Y-156090871D01*
X83392621Y-156002631D01*
X83480861Y-155887635D01*
X83536330Y-155753719D01*
X83555250Y-155610010D01*
X83536330Y-155466301D01*
X83480861Y-155332385D01*
X83392621Y-155217389D01*
X83277625Y-155129149D01*
X83143709Y-155073680D01*
X83000000Y-155054760D01*
X82856291Y-155073680D01*
X82722375Y-155129149D01*
X82607379Y-155217389D01*
X82520811Y-155330206D01*
X82463476Y-155372071D01*
X82420851Y-155379500D01*
X54986000Y-155379500D01*
X54917879Y-155359498D01*
X54871386Y-155305842D01*
X54860000Y-155253500D01*
X54860000Y-153566500D01*
X54880002Y-153498379D01*
X54933658Y-153451886D01*
X54986000Y-153440500D01*
X81963339Y-153440500D01*
X82031460Y-153460502D01*
X82052434Y-153477405D01*
X82415969Y-153840940D01*
X82449995Y-153903252D01*
X82451796Y-153946480D01*
X82444750Y-154000000D01*
X82463670Y-154143709D01*
X82519139Y-154277625D01*
X82607379Y-154392621D01*
X82722375Y-154480861D01*
X82856291Y-154536330D01*
X83000000Y-154555250D01*
X83143709Y-154536330D01*
X83277625Y-154480861D01*
X83392621Y-154392621D01*
X83480861Y-154277625D01*
X83536330Y-154143709D01*
X83555250Y-154000000D01*
X83536330Y-153856291D01*
X83480861Y-153722375D01*
X83392621Y-153607379D01*
X83277625Y-153519139D01*
X83143709Y-153463670D01*
X83000000Y-153444750D01*
X82946482Y-153451796D01*
X82876335Y-153440857D01*
X82840942Y-153415969D01*
X82790573Y-153365600D01*
X82756547Y-153303288D01*
X82761612Y-153232473D01*
X82804159Y-153175637D01*
X82870679Y-153150826D01*
X82896115Y-153151583D01*
X83000000Y-153165260D01*
X83143709Y-153146340D01*
X83277625Y-153090871D01*
X83392621Y-153002631D01*
X83480861Y-152887635D01*
X83536330Y-152753719D01*
X83555250Y-152610010D01*
X83536330Y-152466301D01*
X83480861Y-152332385D01*
X83392621Y-152217389D01*
X83277625Y-152129149D01*
X83143709Y-152073680D01*
X83000000Y-152054760D01*
X82946481Y-152061806D01*
X82876333Y-152050867D01*
X82840940Y-152025979D01*
X82414399Y-151599438D01*
X82380373Y-151537126D01*
X82385438Y-151466311D01*
X82427985Y-151409475D01*
X82494505Y-151384664D01*
X82503494Y-151384343D01*
X82558399Y-151384343D01*
X82626520Y-151404345D01*
X82658361Y-151433639D01*
X82691222Y-151476464D01*
X82806218Y-151564704D01*
X82940134Y-151620173D01*
X83083843Y-151639093D01*
X83227552Y-151620173D01*
X83361468Y-151564704D01*
X83476464Y-151476464D01*
X83564704Y-151361468D01*
X83620173Y-151227552D01*
X83639093Y-151083843D01*
X83620173Y-150940134D01*
X83564704Y-150806218D01*
X83476464Y-150691222D01*
X83361468Y-150602982D01*
X83227552Y-150547513D01*
X83083843Y-150528593D01*
X82940134Y-150547513D01*
X82806218Y-150602982D01*
X82691222Y-150691222D01*
X82686196Y-150697772D01*
X82658361Y-150734047D01*
X82601023Y-150775914D01*
X82558399Y-150783343D01*
X82200504Y-150783343D01*
X82132383Y-150763341D01*
X82111409Y-150746438D01*
X77983709Y-146618738D01*
X77949683Y-146556426D01*
X77954748Y-146485611D01*
X77997295Y-146428775D01*
X78063815Y-146403964D01*
X78131660Y-146418453D01*
X78136547Y-146421887D01*
X78143621Y-146424645D01*
X78195364Y-146444819D01*
X78201445Y-146447375D01*
X78258984Y-146473355D01*
X78266450Y-146474739D01*
X78269699Y-146475757D01*
X78284164Y-146479877D01*
X78287437Y-146480717D01*
X78294513Y-146483476D01*
X78339183Y-146489356D01*
X78357106Y-146491716D01*
X78363623Y-146492748D01*
X78405035Y-146500423D01*
X78425692Y-146504252D01*
X78433272Y-146503815D01*
X78433273Y-146503815D01*
X78487138Y-146500709D01*
X78494391Y-146500500D01*
X95657653Y-146500500D01*
X95725774Y-146520502D01*
X95746748Y-146537404D01*
X95869613Y-146660270D01*
X95984424Y-146775081D01*
X95990277Y-146781347D01*
X96027831Y-146824396D01*
X96079473Y-146860690D01*
X96084758Y-146864616D01*
X96128476Y-146898895D01*
X96128480Y-146898897D01*
X96134457Y-146903584D01*
X96141380Y-146906710D01*
X96144328Y-146908495D01*
X96157288Y-146915887D01*
X96160334Y-146917520D01*
X96166547Y-146921887D01*
X96225366Y-146944820D01*
X96231445Y-146947375D01*
X96288984Y-146973355D01*
X96296455Y-146974740D01*
X96299723Y-146975764D01*
X96314164Y-146979877D01*
X96317437Y-146980717D01*
X96324513Y-146983476D01*
X96369183Y-146989356D01*
X96387106Y-146991716D01*
X96393623Y-146992748D01*
X96428413Y-146999196D01*
X96455692Y-147004252D01*
X96463272Y-147003815D01*
X96463273Y-147003815D01*
X96517144Y-147000709D01*
X96524396Y-147000500D01*
X107691281Y-147000500D01*
X107691941Y-147000502D01*
X107781105Y-147000969D01*
X107817201Y-146992303D01*
X107831477Y-146989735D01*
X107860778Y-146986189D01*
X107860780Y-146986189D01*
X107868320Y-146985276D01*
X107875427Y-146982591D01*
X107875429Y-146982590D01*
X107898978Y-146973692D01*
X107914099Y-146969040D01*
X107938584Y-146963161D01*
X107938586Y-146963160D01*
X107945968Y-146961388D01*
X107952710Y-146957908D01*
X107952716Y-146957906D01*
X107978949Y-146944366D01*
X107992199Y-146938466D01*
X108026923Y-146925345D01*
X108053933Y-146906781D01*
X108067513Y-146898654D01*
X108089877Y-146887111D01*
X108089878Y-146887111D01*
X108096631Y-146883625D01*
X108124599Y-146859227D01*
X108136061Y-146850336D01*
X108160392Y-146833614D01*
X108160394Y-146833613D01*
X108166651Y-146829312D01*
X108188454Y-146804841D01*
X108199696Y-146793716D01*
X108224396Y-146772169D01*
X108245743Y-146741795D01*
X108254749Y-146730433D01*
X108274386Y-146708394D01*
X108274388Y-146708392D01*
X108279440Y-146702721D01*
X108294775Y-146673759D01*
X108303041Y-146660270D01*
X108317521Y-146639666D01*
X108317523Y-146639663D01*
X108321887Y-146633453D01*
X108335369Y-146598875D01*
X108341407Y-146585687D01*
X108355222Y-146559596D01*
X108355226Y-146559586D01*
X108358776Y-146552881D01*
X108362664Y-146537405D01*
X108366760Y-146521096D01*
X108371569Y-146506027D01*
X108383476Y-146475487D01*
X108388321Y-146438688D01*
X108391039Y-146424441D01*
X108398229Y-146395814D01*
X108400081Y-146388441D01*
X108400121Y-146380840D01*
X108400289Y-146348766D01*
X108400337Y-146347413D01*
X108400500Y-146346174D01*
X108400500Y-146308719D01*
X108400502Y-146308059D01*
X108400946Y-146223257D01*
X108400969Y-146218895D01*
X108400608Y-146217391D01*
X108400500Y-146215519D01*
X108400500Y-144942346D01*
X108420502Y-144874225D01*
X108437405Y-144853251D01*
X109842886Y-143447771D01*
X111275075Y-142015582D01*
X111281341Y-142009728D01*
X111318669Y-141977165D01*
X111324396Y-141972169D01*
X111360702Y-141920510D01*
X111364627Y-141915226D01*
X111394271Y-141877419D01*
X111403583Y-141865543D01*
X111406711Y-141858616D01*
X111408486Y-141855685D01*
X111415903Y-141842682D01*
X111417519Y-141839668D01*
X111421887Y-141833453D01*
X111424646Y-141826377D01*
X111424648Y-141826373D01*
X111444819Y-141774636D01*
X111447375Y-141768555D01*
X111470231Y-141717935D01*
X111470231Y-141717934D01*
X111473355Y-141711016D01*
X111474739Y-141703550D01*
X111475757Y-141700301D01*
X111479877Y-141685836D01*
X111480717Y-141682563D01*
X111483476Y-141675487D01*
X111491716Y-141612894D01*
X111492748Y-141606377D01*
X111502868Y-141551775D01*
X111504252Y-141544308D01*
X111500709Y-141482856D01*
X111500500Y-141475604D01*
X111500500Y-141023170D01*
X111520502Y-140955049D01*
X111537405Y-140934075D01*
X112071481Y-140400000D01*
X112644750Y-140400000D01*
X112663670Y-140543709D01*
X112719139Y-140677625D01*
X112807379Y-140792621D01*
X112922375Y-140880861D01*
X113056291Y-140936330D01*
X113200000Y-140955250D01*
X113343709Y-140936330D01*
X113351333Y-140933172D01*
X113351337Y-140933171D01*
X113407057Y-140910091D01*
X113455274Y-140900500D01*
X116874556Y-140900500D01*
X116942677Y-140920502D01*
X116974518Y-140949796D01*
X117007379Y-140992621D01*
X117122375Y-141080861D01*
X117256291Y-141136330D01*
X117400000Y-141155250D01*
X117543709Y-141136330D01*
X117677625Y-141080861D01*
X117792621Y-140992621D01*
X117880861Y-140877625D01*
X117936330Y-140743709D01*
X117955250Y-140600000D01*
X117936330Y-140456291D01*
X117880861Y-140322375D01*
X117792621Y-140207379D01*
X117677625Y-140119139D01*
X117543709Y-140063670D01*
X117400000Y-140044750D01*
X117256291Y-140063670D01*
X117122375Y-140119139D01*
X117007379Y-140207379D01*
X117002353Y-140213929D01*
X116974518Y-140250204D01*
X116917180Y-140292071D01*
X116874556Y-140299500D01*
X113838419Y-140299500D01*
X113770298Y-140279498D01*
X113722010Y-140221718D01*
X113687954Y-140139500D01*
X113680861Y-140122375D01*
X113592621Y-140007379D01*
X113477625Y-139919139D01*
X113343709Y-139863670D01*
X113200000Y-139844750D01*
X113056291Y-139863670D01*
X112922375Y-139919139D01*
X112857453Y-139968956D01*
X112857145Y-139969192D01*
X112790925Y-139994793D01*
X112789879Y-139994578D01*
X112779819Y-140040825D01*
X112769194Y-140057142D01*
X112719139Y-140122375D01*
X112663670Y-140256291D01*
X112644750Y-140400000D01*
X112071481Y-140400000D01*
X112580136Y-139891345D01*
X112642448Y-139857319D01*
X112655906Y-139858282D01*
X112678681Y-139794927D01*
X112691346Y-139780135D01*
X112784143Y-139687338D01*
X112790409Y-139681484D01*
X112827738Y-139648920D01*
X112833465Y-139643924D01*
X112869759Y-139592282D01*
X112873685Y-139586997D01*
X112907964Y-139543279D01*
X112907966Y-139543275D01*
X112912653Y-139537298D01*
X112915779Y-139530375D01*
X112917564Y-139527427D01*
X112924956Y-139514467D01*
X112926589Y-139511421D01*
X112930956Y-139505208D01*
X112953889Y-139446388D01*
X112956445Y-139440309D01*
X112979297Y-139389696D01*
X112982424Y-139382771D01*
X112983809Y-139375300D01*
X112984833Y-139372032D01*
X112988946Y-139357591D01*
X112989786Y-139354318D01*
X112992545Y-139347242D01*
X113000785Y-139284649D01*
X113001817Y-139278132D01*
X113011937Y-139223530D01*
X113013321Y-139216063D01*
X113009778Y-139154611D01*
X113009569Y-139147359D01*
X113009569Y-135737710D01*
X113009861Y-135729140D01*
X113010595Y-135718379D01*
X113013747Y-135672139D01*
X113011732Y-135660589D01*
X113002892Y-135609939D01*
X113001929Y-135603415D01*
X112995258Y-135548290D01*
X112995257Y-135548287D01*
X112994345Y-135540749D01*
X112991661Y-135533647D01*
X112990842Y-135530311D01*
X112986886Y-135515854D01*
X112985903Y-135512597D01*
X112984597Y-135505116D01*
X112973950Y-135480861D01*
X112959220Y-135447302D01*
X112956729Y-135441197D01*
X112937102Y-135389258D01*
X112937100Y-135389254D01*
X112934414Y-135382146D01*
X112930109Y-135375882D01*
X112928520Y-135372843D01*
X112921237Y-135359756D01*
X112919499Y-135356817D01*
X112916448Y-135349867D01*
X112901333Y-135330168D01*
X112878005Y-135299766D01*
X112874140Y-135294447D01*
X112838381Y-135242418D01*
X112792420Y-135201468D01*
X112787145Y-135196488D01*
X112465265Y-134874608D01*
X112452348Y-134864480D01*
X112371521Y-134801103D01*
X112371519Y-134801102D01*
X112365543Y-134796416D01*
X112211016Y-134726645D01*
X112044308Y-134695748D01*
X112036728Y-134696185D01*
X112036727Y-134696185D01*
X112005501Y-134697985D01*
X111875041Y-134705507D01*
X111712989Y-134755361D01*
X111567505Y-134842431D01*
X111562112Y-134847768D01*
X111562108Y-134847771D01*
X111506086Y-134903210D01*
X111446990Y-134961690D01*
X111358402Y-135106254D01*
X111330871Y-135192521D01*
X111312948Y-135248681D01*
X111306854Y-135267775D01*
X111306337Y-135275355D01*
X111306337Y-135275356D01*
X111298236Y-135394188D01*
X111295322Y-135436930D01*
X111296627Y-135444407D01*
X111296627Y-135444408D01*
X111323168Y-135596477D01*
X111324473Y-135603954D01*
X111327524Y-135610903D01*
X111327524Y-135610905D01*
X111354404Y-135672139D01*
X111392621Y-135759202D01*
X111472022Y-135862678D01*
X111571664Y-135962320D01*
X111605690Y-136024632D01*
X111608569Y-136051415D01*
X111608569Y-138829409D01*
X111588567Y-138897530D01*
X111571664Y-138918504D01*
X110946888Y-139543279D01*
X110324926Y-140165241D01*
X110318661Y-140171094D01*
X110275604Y-140208655D01*
X110242125Y-140256291D01*
X110239317Y-140260287D01*
X110235384Y-140265582D01*
X110201105Y-140309300D01*
X110201103Y-140309304D01*
X110196416Y-140315281D01*
X110193290Y-140322204D01*
X110191505Y-140325152D01*
X110184113Y-140338112D01*
X110182480Y-140341158D01*
X110178113Y-140347371D01*
X110175354Y-140354448D01*
X110155180Y-140406190D01*
X110152625Y-140412269D01*
X110126645Y-140469808D01*
X110125260Y-140477279D01*
X110124236Y-140480547D01*
X110120123Y-140494988D01*
X110119283Y-140498261D01*
X110116524Y-140505337D01*
X110112551Y-140535520D01*
X110108284Y-140567930D01*
X110107252Y-140574447D01*
X110095748Y-140636516D01*
X110096185Y-140644096D01*
X110096185Y-140644097D01*
X110099291Y-140697968D01*
X110099500Y-140705220D01*
X110099500Y-141157654D01*
X110079498Y-141225775D01*
X110062595Y-141246749D01*
X108632722Y-142676621D01*
X107224925Y-144084418D01*
X107218660Y-144090271D01*
X107175604Y-144127831D01*
X107139317Y-144179463D01*
X107135384Y-144184758D01*
X107101105Y-144228476D01*
X107101103Y-144228480D01*
X107096416Y-144234457D01*
X107093290Y-144241380D01*
X107091505Y-144244328D01*
X107084113Y-144257288D01*
X107082480Y-144260334D01*
X107078113Y-144266547D01*
X107061979Y-144307929D01*
X107055180Y-144325366D01*
X107052625Y-144331445D01*
X107026645Y-144388984D01*
X107025260Y-144396455D01*
X107024236Y-144399723D01*
X107020123Y-144414164D01*
X107019283Y-144417437D01*
X107016524Y-144424513D01*
X107015533Y-144432043D01*
X107008284Y-144487106D01*
X107007252Y-144493623D01*
X106999577Y-144535036D01*
X106995748Y-144555692D01*
X106996185Y-144563272D01*
X106996185Y-144563273D01*
X106999291Y-144617144D01*
X106999500Y-144624396D01*
X106999500Y-145473500D01*
X106979498Y-145541621D01*
X106925842Y-145588114D01*
X106873500Y-145599500D01*
X96842347Y-145599500D01*
X96774226Y-145579498D01*
X96753251Y-145562595D01*
X96515576Y-145324919D01*
X96509723Y-145318653D01*
X96477165Y-145281331D01*
X96472169Y-145275604D01*
X96420527Y-145239310D01*
X96415242Y-145235384D01*
X96371524Y-145201105D01*
X96371520Y-145201103D01*
X96365543Y-145196416D01*
X96358620Y-145193290D01*
X96355672Y-145191505D01*
X96342712Y-145184113D01*
X96339666Y-145182480D01*
X96333453Y-145178113D01*
X96274633Y-145155180D01*
X96268554Y-145152624D01*
X96233177Y-145136651D01*
X96211016Y-145126645D01*
X96203545Y-145125260D01*
X96200277Y-145124236D01*
X96185836Y-145120123D01*
X96182563Y-145119283D01*
X96175487Y-145116524D01*
X96130817Y-145110644D01*
X96112894Y-145108284D01*
X96106377Y-145107252D01*
X96051775Y-145097132D01*
X96044308Y-145095748D01*
X96036728Y-145096185D01*
X96036727Y-145096185D01*
X95982856Y-145099291D01*
X95975604Y-145099500D01*
X78812347Y-145099500D01*
X78744226Y-145079498D01*
X78723252Y-145062595D01*
X78420140Y-144759483D01*
X78386114Y-144697171D01*
X78391179Y-144626356D01*
X78433726Y-144569520D01*
X78500246Y-144544709D01*
X78525681Y-144545466D01*
X78591811Y-144554172D01*
X78591812Y-144554172D01*
X78600000Y-144555250D01*
X78743709Y-144536330D01*
X78877625Y-144480861D01*
X78992621Y-144392621D01*
X79025482Y-144349796D01*
X79082820Y-144307929D01*
X79125444Y-144300500D01*
X86544832Y-144300500D01*
X86547505Y-144300696D01*
X86552540Y-144302425D01*
X86564162Y-144301989D01*
X86564164Y-144301989D01*
X86601453Y-144300589D01*
X86606179Y-144300500D01*
X86625146Y-144300500D01*
X86629881Y-144299618D01*
X86633407Y-144299390D01*
X86637147Y-144299249D01*
X86664406Y-144298226D01*
X86675091Y-144293636D01*
X86679691Y-144292599D01*
X86691412Y-144289038D01*
X86695815Y-144287339D01*
X86707251Y-144285209D01*
X86728239Y-144272272D01*
X86744609Y-144263769D01*
X86759086Y-144257549D01*
X86759090Y-144257547D01*
X86767261Y-144254036D01*
X86772147Y-144250022D01*
X86774332Y-144247837D01*
X86776595Y-144245785D01*
X86776740Y-144245945D01*
X86785747Y-144238825D01*
X86792642Y-144232573D01*
X86802546Y-144226468D01*
X86819114Y-144204680D01*
X86830308Y-144191861D01*
X91522169Y-139500000D01*
X106444750Y-139500000D01*
X106463670Y-139643709D01*
X106519139Y-139777625D01*
X106607379Y-139892621D01*
X106722375Y-139980861D01*
X106856291Y-140036330D01*
X107000000Y-140055250D01*
X107143709Y-140036330D01*
X107277625Y-139980861D01*
X107392621Y-139892621D01*
X107480861Y-139777625D01*
X107536330Y-139643709D01*
X107555250Y-139500000D01*
X107536330Y-139356291D01*
X107480861Y-139222375D01*
X107392621Y-139107379D01*
X107349796Y-139074518D01*
X107307929Y-139017180D01*
X107300500Y-138974556D01*
X107300500Y-135635454D01*
X107320502Y-135567333D01*
X107349796Y-135535492D01*
X107386071Y-135507657D01*
X107392621Y-135502631D01*
X107480861Y-135387635D01*
X107536330Y-135253719D01*
X107555250Y-135110010D01*
X107536330Y-134966301D01*
X107480861Y-134832385D01*
X107392621Y-134717389D01*
X107277625Y-134629149D01*
X107143709Y-134573680D01*
X107000000Y-134554760D01*
X106856291Y-134573680D01*
X106722375Y-134629149D01*
X106607379Y-134717389D01*
X106519139Y-134832385D01*
X106463670Y-134966301D01*
X106444750Y-135110010D01*
X106463670Y-135253719D01*
X106519139Y-135387635D01*
X106607379Y-135502631D01*
X106613929Y-135507657D01*
X106650204Y-135535492D01*
X106692071Y-135592830D01*
X106699500Y-135635454D01*
X106699500Y-138974556D01*
X106679498Y-139042677D01*
X106650204Y-139074518D01*
X106607379Y-139107379D01*
X106519139Y-139222375D01*
X106463670Y-139356291D01*
X106444750Y-139500000D01*
X91522169Y-139500000D01*
X101728162Y-129294007D01*
X177399500Y-129294007D01*
X177399501Y-130405992D01*
X177399764Y-130408850D01*
X177399764Y-130408859D01*
X177403015Y-130444243D01*
X177406171Y-130478594D01*
X177408170Y-130484972D01*
X177408170Y-130484973D01*
X177438107Y-130580500D01*
X177456873Y-130640383D01*
X177544703Y-130785408D01*
X177664592Y-130905297D01*
X177809617Y-130993127D01*
X177816864Y-130995398D01*
X177816866Y-130995399D01*
X177882106Y-131015844D01*
X177971406Y-131043829D01*
X178044007Y-131050500D01*
X178046905Y-131050500D01*
X179604037Y-131050499D01*
X181155992Y-131050499D01*
X181158850Y-131050236D01*
X181158859Y-131050236D01*
X181194243Y-131046985D01*
X181228594Y-131043829D01*
X181234979Y-131041828D01*
X181383134Y-130995399D01*
X181383136Y-130995398D01*
X181390383Y-130993127D01*
X181535408Y-130905297D01*
X181655297Y-130785408D01*
X181743127Y-130640383D01*
X181793829Y-130478594D01*
X181800500Y-130405993D01*
X181800499Y-129294008D01*
X181800234Y-129291116D01*
X181794440Y-129228060D01*
X181793829Y-129221406D01*
X181791828Y-129215022D01*
X181745399Y-129066866D01*
X181745398Y-129066864D01*
X181743127Y-129059617D01*
X181655297Y-128914592D01*
X181535408Y-128794703D01*
X181390383Y-128706873D01*
X181383136Y-128704602D01*
X181383134Y-128704601D01*
X181317894Y-128684156D01*
X181228594Y-128656171D01*
X181155993Y-128649500D01*
X181153095Y-128649500D01*
X179595963Y-128649501D01*
X178044008Y-128649501D01*
X178041150Y-128649764D01*
X178041141Y-128649764D01*
X178005757Y-128653015D01*
X177971406Y-128656171D01*
X177965028Y-128658170D01*
X177965027Y-128658170D01*
X177816866Y-128704601D01*
X177816864Y-128704602D01*
X177809617Y-128706873D01*
X177664592Y-128794703D01*
X177544703Y-128914592D01*
X177456873Y-129059617D01*
X177406171Y-129221406D01*
X177399500Y-129294007D01*
X101728162Y-129294007D01*
X102684764Y-128337405D01*
X102747076Y-128303379D01*
X102773859Y-128300500D01*
X102874556Y-128300500D01*
X102942677Y-128320502D01*
X102974518Y-128349796D01*
X103007379Y-128392621D01*
X103122375Y-128480861D01*
X103256291Y-128536330D01*
X103400000Y-128555250D01*
X103543709Y-128536330D01*
X103677625Y-128480861D01*
X103792621Y-128392621D01*
X103880861Y-128277625D01*
X103936330Y-128143709D01*
X103955250Y-128000000D01*
X103936330Y-127856291D01*
X103880861Y-127722375D01*
X103792621Y-127607379D01*
X103677625Y-127519139D01*
X103543709Y-127463670D01*
X103400000Y-127444750D01*
X103256291Y-127463670D01*
X103122375Y-127519139D01*
X103007379Y-127607379D01*
X103002353Y-127613929D01*
X102974518Y-127650204D01*
X102917180Y-127692071D01*
X102874556Y-127699500D01*
X102649564Y-127699500D01*
X102646891Y-127699304D01*
X102641856Y-127697575D01*
X102630234Y-127698011D01*
X102630232Y-127698011D01*
X102592943Y-127699411D01*
X102588217Y-127699500D01*
X102569250Y-127699500D01*
X102564515Y-127700382D01*
X102560989Y-127700610D01*
X102541618Y-127701337D01*
X102541616Y-127701337D01*
X102529990Y-127701774D01*
X102519300Y-127706367D01*
X102511294Y-127708171D01*
X102440442Y-127703633D01*
X102383291Y-127661511D01*
X102357985Y-127595178D01*
X102372560Y-127525693D01*
X102394499Y-127496158D01*
X103403992Y-126486665D01*
X173144994Y-126486665D01*
X173160592Y-126672414D01*
X173211971Y-126851595D01*
X173297176Y-127017385D01*
X173412959Y-127163468D01*
X173554912Y-127284279D01*
X173717627Y-127375217D01*
X173894907Y-127432819D01*
X174079998Y-127454890D01*
X174086133Y-127454418D01*
X174086135Y-127454418D01*
X174259710Y-127441062D01*
X174259715Y-127441061D01*
X174265851Y-127440589D01*
X174271781Y-127438933D01*
X174271783Y-127438933D01*
X174439459Y-127392117D01*
X174439458Y-127392117D01*
X174445387Y-127390462D01*
X174611768Y-127306417D01*
X174636255Y-127287286D01*
X174753794Y-127195454D01*
X174753795Y-127195453D01*
X174758655Y-127191656D01*
X174880454Y-127050550D01*
X174972526Y-126888474D01*
X175031364Y-126711601D01*
X175054727Y-126526668D01*
X175055099Y-126500000D01*
X175053791Y-126486665D01*
X175644994Y-126486665D01*
X175660592Y-126672414D01*
X175711971Y-126851595D01*
X175797176Y-127017385D01*
X175912959Y-127163468D01*
X176054912Y-127284279D01*
X176217627Y-127375217D01*
X176394907Y-127432819D01*
X176579998Y-127454890D01*
X176586133Y-127454418D01*
X176586135Y-127454418D01*
X176759710Y-127441062D01*
X176759715Y-127441061D01*
X176765851Y-127440589D01*
X176771781Y-127438933D01*
X176771783Y-127438933D01*
X176939459Y-127392117D01*
X176939458Y-127392117D01*
X176945387Y-127390462D01*
X177111768Y-127306417D01*
X177136255Y-127287286D01*
X177253794Y-127195454D01*
X177253795Y-127195453D01*
X177258655Y-127191656D01*
X177380454Y-127050550D01*
X177472526Y-126888474D01*
X177531364Y-126711601D01*
X177554727Y-126526668D01*
X177555099Y-126500000D01*
X177536909Y-126314487D01*
X177535128Y-126308588D01*
X177535127Y-126308583D01*
X177484814Y-126141939D01*
X177483033Y-126136040D01*
X177431790Y-126039666D01*
X177398416Y-125976898D01*
X177398414Y-125976895D01*
X177395522Y-125971456D01*
X177391632Y-125966686D01*
X177391629Y-125966682D01*
X177281605Y-125831780D01*
X177281602Y-125831777D01*
X177277710Y-125827005D01*
X177272056Y-125822327D01*
X177138834Y-125712116D01*
X177134085Y-125708187D01*
X176970116Y-125619529D01*
X176881083Y-125591969D01*
X176797936Y-125566231D01*
X176797933Y-125566230D01*
X176792049Y-125564409D01*
X176785924Y-125563765D01*
X176785923Y-125563765D01*
X176612796Y-125545568D01*
X176612795Y-125545568D01*
X176606668Y-125544924D01*
X176528549Y-125552033D01*
X176427171Y-125561259D01*
X176427168Y-125561260D01*
X176421032Y-125561818D01*
X176415122Y-125563557D01*
X176415119Y-125563558D01*
X176248129Y-125612707D01*
X176242214Y-125614448D01*
X176077023Y-125700807D01*
X175931752Y-125817608D01*
X175811935Y-125960401D01*
X175808971Y-125965793D01*
X175808968Y-125965797D01*
X175757031Y-126060270D01*
X175722135Y-126123746D01*
X175720274Y-126129613D01*
X175720273Y-126129615D01*
X175716364Y-126141939D01*
X175665772Y-126301424D01*
X175644994Y-126486665D01*
X175053791Y-126486665D01*
X175036909Y-126314487D01*
X175035128Y-126308588D01*
X175035127Y-126308583D01*
X174984814Y-126141939D01*
X174983033Y-126136040D01*
X174931790Y-126039666D01*
X174898416Y-125976898D01*
X174898414Y-125976895D01*
X174895522Y-125971456D01*
X174891632Y-125966686D01*
X174891629Y-125966682D01*
X174781605Y-125831780D01*
X174781602Y-125831777D01*
X174777710Y-125827005D01*
X174772056Y-125822327D01*
X174638834Y-125712116D01*
X174634085Y-125708187D01*
X174470116Y-125619529D01*
X174381083Y-125591969D01*
X174297936Y-125566231D01*
X174297933Y-125566230D01*
X174292049Y-125564409D01*
X174285924Y-125563765D01*
X174285923Y-125563765D01*
X174112796Y-125545568D01*
X174112795Y-125545568D01*
X174106668Y-125544924D01*
X174028549Y-125552033D01*
X173927171Y-125561259D01*
X173927168Y-125561260D01*
X173921032Y-125561818D01*
X173915122Y-125563557D01*
X173915119Y-125563558D01*
X173748129Y-125612707D01*
X173742214Y-125614448D01*
X173577023Y-125700807D01*
X173431752Y-125817608D01*
X173311935Y-125960401D01*
X173308971Y-125965793D01*
X173308968Y-125965797D01*
X173257031Y-126060270D01*
X173222135Y-126123746D01*
X173220274Y-126129613D01*
X173220273Y-126129615D01*
X173216364Y-126141939D01*
X173165772Y-126301424D01*
X173144994Y-126486665D01*
X103403992Y-126486665D01*
X103453252Y-126437405D01*
X103515564Y-126403379D01*
X103542347Y-126400500D01*
X103891281Y-126400500D01*
X103891941Y-126400502D01*
X103981105Y-126400969D01*
X104017201Y-126392303D01*
X104031477Y-126389735D01*
X104060778Y-126386189D01*
X104060780Y-126386189D01*
X104068320Y-126385276D01*
X104075427Y-126382591D01*
X104075429Y-126382590D01*
X104098978Y-126373692D01*
X104114099Y-126369040D01*
X104138584Y-126363161D01*
X104138586Y-126363160D01*
X104145968Y-126361388D01*
X104152710Y-126357908D01*
X104152716Y-126357906D01*
X104178949Y-126344366D01*
X104192199Y-126338466D01*
X104226923Y-126325345D01*
X104253933Y-126306781D01*
X104267513Y-126298654D01*
X104289877Y-126287111D01*
X104289878Y-126287111D01*
X104296631Y-126283625D01*
X104324599Y-126259227D01*
X104336061Y-126250336D01*
X104360392Y-126233614D01*
X104360394Y-126233613D01*
X104366651Y-126229312D01*
X104388454Y-126204841D01*
X104399696Y-126193716D01*
X104424396Y-126172169D01*
X104445743Y-126141795D01*
X104454749Y-126130433D01*
X104474386Y-126108394D01*
X104474388Y-126108392D01*
X104479440Y-126102721D01*
X104494775Y-126073759D01*
X104503041Y-126060270D01*
X104517521Y-126039666D01*
X104517523Y-126039663D01*
X104521887Y-126033453D01*
X104535369Y-125998875D01*
X104541407Y-125985687D01*
X104555222Y-125959596D01*
X104555226Y-125959586D01*
X104558776Y-125952881D01*
X104566760Y-125921096D01*
X104571569Y-125906027D01*
X104583476Y-125875487D01*
X104588321Y-125838688D01*
X104591039Y-125824441D01*
X104598229Y-125795814D01*
X104600081Y-125788441D01*
X104600289Y-125748766D01*
X104600337Y-125747413D01*
X104600500Y-125746174D01*
X104600500Y-125708719D01*
X104600502Y-125708059D01*
X104600946Y-125623257D01*
X104600969Y-125618895D01*
X104600608Y-125617391D01*
X104600500Y-125615519D01*
X104600500Y-121786665D01*
X175644994Y-121786665D01*
X175660592Y-121972414D01*
X175711971Y-122151595D01*
X175797176Y-122317385D01*
X175912959Y-122463468D01*
X176054912Y-122584279D01*
X176217627Y-122675217D01*
X176394907Y-122732819D01*
X176579998Y-122754890D01*
X176586133Y-122754418D01*
X176586135Y-122754418D01*
X176759710Y-122741062D01*
X176759715Y-122741061D01*
X176765851Y-122740589D01*
X176771781Y-122738933D01*
X176771783Y-122738933D01*
X176939459Y-122692117D01*
X176939458Y-122692117D01*
X176945387Y-122690462D01*
X177111768Y-122606417D01*
X177136255Y-122587286D01*
X177253794Y-122495454D01*
X177253795Y-122495453D01*
X177258655Y-122491656D01*
X177367464Y-122365599D01*
X177376430Y-122355212D01*
X177376431Y-122355211D01*
X177380454Y-122350550D01*
X177472526Y-122188474D01*
X177531364Y-122011601D01*
X177540797Y-121936930D01*
X177554285Y-121830170D01*
X177554286Y-121830163D01*
X177554727Y-121826668D01*
X177555099Y-121800000D01*
X177536909Y-121614487D01*
X177535128Y-121608588D01*
X177535127Y-121608583D01*
X177515630Y-121544007D01*
X179199500Y-121544007D01*
X179199501Y-124655992D01*
X179199764Y-124658850D01*
X179199764Y-124658859D01*
X179203015Y-124694243D01*
X179206171Y-124728594D01*
X179256873Y-124890383D01*
X179344703Y-125035408D01*
X179464592Y-125155297D01*
X179609617Y-125243127D01*
X179616864Y-125245398D01*
X179616866Y-125245399D01*
X179682106Y-125265844D01*
X179771406Y-125293829D01*
X179844007Y-125300500D01*
X179846905Y-125300500D01*
X180401442Y-125300499D01*
X180955992Y-125300499D01*
X180958850Y-125300236D01*
X180958859Y-125300236D01*
X180994243Y-125296985D01*
X181028594Y-125293829D01*
X181034979Y-125291828D01*
X181183134Y-125245399D01*
X181183136Y-125245398D01*
X181190383Y-125243127D01*
X181335408Y-125155297D01*
X181455297Y-125035408D01*
X181543127Y-124890383D01*
X181593829Y-124728594D01*
X181600500Y-124655993D01*
X181600499Y-121544008D01*
X181600234Y-121541116D01*
X181594440Y-121478060D01*
X181593829Y-121471406D01*
X181582746Y-121436040D01*
X181545399Y-121316866D01*
X181545398Y-121316864D01*
X181543127Y-121309617D01*
X181455297Y-121164592D01*
X181335408Y-121044703D01*
X181190383Y-120956873D01*
X181183136Y-120954602D01*
X181183134Y-120954601D01*
X181108844Y-120931320D01*
X181028594Y-120906171D01*
X180955993Y-120899500D01*
X180953095Y-120899500D01*
X180398558Y-120899501D01*
X179844008Y-120899501D01*
X179841150Y-120899764D01*
X179841141Y-120899764D01*
X179805757Y-120903015D01*
X179771406Y-120906171D01*
X179765028Y-120908170D01*
X179765027Y-120908170D01*
X179616866Y-120954601D01*
X179616864Y-120954602D01*
X179609617Y-120956873D01*
X179464592Y-121044703D01*
X179344703Y-121164592D01*
X179256873Y-121309617D01*
X179254602Y-121316864D01*
X179254601Y-121316866D01*
X179244916Y-121347771D01*
X179206171Y-121471406D01*
X179199500Y-121544007D01*
X177515630Y-121544007D01*
X177484814Y-121441939D01*
X177483033Y-121436040D01*
X177439277Y-121353748D01*
X177398416Y-121276898D01*
X177398414Y-121276895D01*
X177395522Y-121271456D01*
X177391632Y-121266686D01*
X177391629Y-121266682D01*
X177281605Y-121131780D01*
X177281602Y-121131777D01*
X177277710Y-121127005D01*
X177272056Y-121122327D01*
X177173466Y-121040766D01*
X177156868Y-121027035D01*
X177117130Y-120968202D01*
X177115509Y-120897223D01*
X177152518Y-120836636D01*
X177183934Y-120815756D01*
X177226416Y-120795947D01*
X177235912Y-120790464D01*
X177277148Y-120761590D01*
X177285523Y-120751112D01*
X177278457Y-120737668D01*
X176612811Y-120072021D01*
X176598868Y-120064408D01*
X176597034Y-120064539D01*
X176590420Y-120068790D01*
X175920820Y-120738391D01*
X175914393Y-120750161D01*
X175923687Y-120762175D01*
X175964088Y-120790464D01*
X175973584Y-120795947D01*
X176016857Y-120816125D01*
X176070142Y-120863042D01*
X176089603Y-120931320D01*
X176069061Y-120999279D01*
X176042560Y-121028516D01*
X175931752Y-121117608D01*
X175811935Y-121260401D01*
X175808971Y-121265793D01*
X175808968Y-121265797D01*
X175766838Y-121342431D01*
X175722135Y-121423746D01*
X175720274Y-121429613D01*
X175720273Y-121429615D01*
X175667634Y-121595554D01*
X175665772Y-121601424D01*
X175665086Y-121607543D01*
X175646263Y-121775356D01*
X175644994Y-121786665D01*
X104600500Y-121786665D01*
X104600500Y-119958641D01*
X104600792Y-119950071D01*
X104604162Y-119900646D01*
X104604162Y-119900642D01*
X104604678Y-119893070D01*
X104600001Y-119866272D01*
X104593822Y-119830868D01*
X104592859Y-119824342D01*
X104586189Y-119769226D01*
X104585276Y-119761680D01*
X104582591Y-119754573D01*
X104581782Y-119751280D01*
X104577823Y-119736809D01*
X104576834Y-119733533D01*
X104575527Y-119726046D01*
X104572472Y-119719086D01*
X104558241Y-119686665D01*
X173144994Y-119686665D01*
X173145510Y-119692809D01*
X173157433Y-119834791D01*
X173160592Y-119872414D01*
X173162291Y-119878339D01*
X173182860Y-119950071D01*
X173211971Y-120051595D01*
X173297176Y-120217385D01*
X173412959Y-120363468D01*
X173417652Y-120367462D01*
X173417653Y-120367463D01*
X173429034Y-120377149D01*
X173554912Y-120484279D01*
X173717627Y-120575217D01*
X173894907Y-120632819D01*
X174079998Y-120654890D01*
X174086133Y-120654418D01*
X174086135Y-120654418D01*
X174259710Y-120641062D01*
X174259715Y-120641061D01*
X174265851Y-120640589D01*
X174271781Y-120638933D01*
X174271783Y-120638933D01*
X174439459Y-120592117D01*
X174439458Y-120592117D01*
X174445387Y-120590462D01*
X174611768Y-120506417D01*
X174636255Y-120487286D01*
X174753794Y-120395454D01*
X174753795Y-120395453D01*
X174758655Y-120391656D01*
X174880454Y-120250550D01*
X174972526Y-120088474D01*
X175031364Y-119911601D01*
X175054727Y-119726668D01*
X175055023Y-119705475D01*
X175337674Y-119705475D01*
X175355901Y-119913804D01*
X175357804Y-119924599D01*
X175411928Y-120126595D01*
X175415674Y-120136887D01*
X175504054Y-120326417D01*
X175509534Y-120335907D01*
X175538411Y-120377149D01*
X175548887Y-120385523D01*
X175562334Y-120378455D01*
X176227979Y-119712811D01*
X176234356Y-119701132D01*
X176964408Y-119701132D01*
X176964539Y-119702966D01*
X176968790Y-119709580D01*
X177638391Y-120379180D01*
X177650161Y-120385607D01*
X177662176Y-120376311D01*
X177690466Y-120335907D01*
X177695946Y-120326417D01*
X177784326Y-120136887D01*
X177788072Y-120126595D01*
X177842196Y-119924599D01*
X177844099Y-119913804D01*
X177862326Y-119705475D01*
X177862326Y-119694525D01*
X177844099Y-119486196D01*
X177842196Y-119475401D01*
X177788072Y-119273405D01*
X177784326Y-119263113D01*
X177695946Y-119073583D01*
X177690466Y-119064093D01*
X177661589Y-119022851D01*
X177651113Y-119014477D01*
X177637666Y-119021545D01*
X176972021Y-119687189D01*
X176964408Y-119701132D01*
X176234356Y-119701132D01*
X176235592Y-119698868D01*
X176235461Y-119697034D01*
X176231210Y-119690420D01*
X175561609Y-119020820D01*
X175549839Y-119014393D01*
X175537824Y-119023689D01*
X175509534Y-119064093D01*
X175504054Y-119073583D01*
X175415674Y-119263113D01*
X175411928Y-119273405D01*
X175357804Y-119475401D01*
X175355901Y-119486196D01*
X175337674Y-119694525D01*
X175337674Y-119705475D01*
X175055023Y-119705475D01*
X175055099Y-119700000D01*
X175036909Y-119514487D01*
X175035128Y-119508588D01*
X175035127Y-119508583D01*
X174984814Y-119341939D01*
X174983033Y-119336040D01*
X174895522Y-119171456D01*
X174891632Y-119166686D01*
X174891629Y-119166682D01*
X174781605Y-119031780D01*
X174781602Y-119031777D01*
X174777710Y-119027005D01*
X174772056Y-119022327D01*
X174668371Y-118936551D01*
X174634085Y-118908187D01*
X174470116Y-118819529D01*
X174358391Y-118784945D01*
X174297936Y-118766231D01*
X174297933Y-118766230D01*
X174292049Y-118764409D01*
X174285924Y-118763765D01*
X174285923Y-118763765D01*
X174112796Y-118745568D01*
X174112795Y-118745568D01*
X174106668Y-118744924D01*
X174028549Y-118752033D01*
X173927171Y-118761259D01*
X173927168Y-118761260D01*
X173921032Y-118761818D01*
X173915122Y-118763557D01*
X173915119Y-118763558D01*
X173782442Y-118802608D01*
X173742214Y-118814448D01*
X173577023Y-118900807D01*
X173431752Y-119017608D01*
X173311935Y-119160401D01*
X173308971Y-119165793D01*
X173308968Y-119165797D01*
X173255468Y-119263113D01*
X173222135Y-119323746D01*
X173220274Y-119329613D01*
X173220273Y-119329615D01*
X173179454Y-119458294D01*
X173165772Y-119501424D01*
X173144994Y-119686665D01*
X104558241Y-119686665D01*
X104550153Y-119668240D01*
X104547661Y-119662134D01*
X104528030Y-119610182D01*
X104528029Y-119610180D01*
X104525345Y-119603077D01*
X104521046Y-119596822D01*
X104519465Y-119593797D01*
X104512175Y-119580701D01*
X104510434Y-119577757D01*
X104507379Y-119570798D01*
X104468958Y-119520727D01*
X104465081Y-119515391D01*
X104433619Y-119469614D01*
X104433614Y-119469608D01*
X104429312Y-119463349D01*
X104383342Y-119422391D01*
X104378067Y-119417411D01*
X103609543Y-118648887D01*
X175914477Y-118648887D01*
X175921545Y-118662334D01*
X176587189Y-119327979D01*
X176601132Y-119335592D01*
X176602966Y-119335461D01*
X176609580Y-119331210D01*
X177279180Y-118661609D01*
X177285607Y-118649839D01*
X177276313Y-118637825D01*
X177235912Y-118609536D01*
X177226416Y-118604053D01*
X177036887Y-118515674D01*
X177026595Y-118511928D01*
X176824599Y-118457804D01*
X176813804Y-118455901D01*
X176605475Y-118437674D01*
X176594525Y-118437674D01*
X176386196Y-118455901D01*
X176375401Y-118457804D01*
X176173405Y-118511928D01*
X176163113Y-118515674D01*
X175973583Y-118604054D01*
X175964093Y-118609534D01*
X175922851Y-118638411D01*
X175914477Y-118648887D01*
X103609543Y-118648887D01*
X101727894Y-116767237D01*
X101693868Y-116704925D01*
X101690989Y-116678142D01*
X101690989Y-115794007D01*
X177399500Y-115794007D01*
X177399501Y-116905992D01*
X177399764Y-116908850D01*
X177399764Y-116908859D01*
X177403015Y-116944243D01*
X177406171Y-116978594D01*
X177408170Y-116984972D01*
X177408170Y-116984973D01*
X177452412Y-117126147D01*
X177456873Y-117140383D01*
X177544703Y-117285408D01*
X177664592Y-117405297D01*
X177809617Y-117493127D01*
X177816864Y-117495398D01*
X177816866Y-117495399D01*
X177882106Y-117515844D01*
X177971406Y-117543829D01*
X178044007Y-117550500D01*
X178046905Y-117550500D01*
X179604037Y-117550499D01*
X181155992Y-117550499D01*
X181158850Y-117550236D01*
X181158859Y-117550236D01*
X181194243Y-117546985D01*
X181228594Y-117543829D01*
X181234979Y-117541828D01*
X181383134Y-117495399D01*
X181383136Y-117495398D01*
X181390383Y-117493127D01*
X181535408Y-117405297D01*
X181655297Y-117285408D01*
X181743127Y-117140383D01*
X181747589Y-117126147D01*
X181771501Y-117049843D01*
X181793829Y-116978594D01*
X181800500Y-116905993D01*
X181800499Y-115794008D01*
X181800234Y-115791116D01*
X181794440Y-115728060D01*
X181793829Y-115721406D01*
X181743127Y-115559617D01*
X181655297Y-115414592D01*
X181535408Y-115294703D01*
X181390383Y-115206873D01*
X181383136Y-115204602D01*
X181383134Y-115204601D01*
X181317894Y-115184156D01*
X181228594Y-115156171D01*
X181155993Y-115149500D01*
X181153095Y-115149500D01*
X179595963Y-115149501D01*
X178044008Y-115149501D01*
X178041150Y-115149764D01*
X178041141Y-115149764D01*
X178005757Y-115153015D01*
X177971406Y-115156171D01*
X177965028Y-115158170D01*
X177965027Y-115158170D01*
X177816866Y-115204601D01*
X177816864Y-115204602D01*
X177809617Y-115206873D01*
X177664592Y-115294703D01*
X177544703Y-115414592D01*
X177456873Y-115559617D01*
X177406171Y-115721406D01*
X177399500Y-115794007D01*
X101690989Y-115794007D01*
X101690989Y-111214732D01*
X101705839Y-111161534D01*
X101703584Y-111160516D01*
X101715589Y-111133929D01*
X101717075Y-111130637D01*
X101724477Y-111116658D01*
X101737628Y-111095197D01*
X101741597Y-111088720D01*
X101746318Y-111073929D01*
X101752884Y-111053358D01*
X101758080Y-111039821D01*
X101765148Y-111024168D01*
X101773355Y-111005990D01*
X101779327Y-110973765D01*
X101783182Y-110958420D01*
X101790837Y-110934435D01*
X101790838Y-110934432D01*
X101793146Y-110927199D01*
X101794677Y-110904750D01*
X101795671Y-110890164D01*
X101797489Y-110875775D01*
X101802868Y-110846752D01*
X101802868Y-110846748D01*
X101804252Y-110839282D01*
X101802366Y-110806564D01*
X101802449Y-110790745D01*
X101804162Y-110765621D01*
X101804162Y-110765617D01*
X101804678Y-110758044D01*
X101803373Y-110750568D01*
X101803373Y-110750563D01*
X101798297Y-110721479D01*
X101796630Y-110707071D01*
X101794931Y-110677603D01*
X101794930Y-110677599D01*
X101794493Y-110670015D01*
X101784852Y-110638676D01*
X101781162Y-110623305D01*
X101776833Y-110598503D01*
X101775527Y-110591020D01*
X101760610Y-110557037D01*
X101755553Y-110543440D01*
X101746872Y-110515222D01*
X101744639Y-110507963D01*
X101727805Y-110479834D01*
X101720552Y-110465782D01*
X101710431Y-110442725D01*
X101710429Y-110442722D01*
X101707378Y-110435771D01*
X101701429Y-110428018D01*
X101684783Y-110406323D01*
X101676632Y-110394329D01*
X101661471Y-110368999D01*
X101657569Y-110362479D01*
X101652230Y-110357084D01*
X101652228Y-110357081D01*
X101639670Y-110344391D01*
X101629636Y-110334251D01*
X101628744Y-110333294D01*
X101627978Y-110332296D01*
X101601726Y-110306044D01*
X101601260Y-110305577D01*
X101541379Y-110245065D01*
X101541376Y-110245063D01*
X101538310Y-110241964D01*
X101536991Y-110241156D01*
X101535584Y-110239902D01*
X100937404Y-109641721D01*
X100903379Y-109579409D01*
X100900500Y-109552626D01*
X100900500Y-74728641D01*
X100900792Y-74720071D01*
X100904162Y-74670646D01*
X100904162Y-74670642D01*
X100904678Y-74663070D01*
X100903373Y-74655591D01*
X100893822Y-74600868D01*
X100892859Y-74594342D01*
X100886189Y-74539226D01*
X100885276Y-74531680D01*
X100882591Y-74524573D01*
X100881782Y-74521280D01*
X100877823Y-74506809D01*
X100876834Y-74503533D01*
X100875527Y-74496046D01*
X100872472Y-74489086D01*
X100850154Y-74438242D01*
X100847662Y-74432137D01*
X100843501Y-74421126D01*
X100825345Y-74373077D01*
X100821047Y-74366824D01*
X100819463Y-74363793D01*
X100812183Y-74350716D01*
X100810433Y-74347757D01*
X100807378Y-74340797D01*
X100802753Y-74334770D01*
X100802751Y-74334766D01*
X100768938Y-74290700D01*
X100765073Y-74285381D01*
X100729312Y-74233349D01*
X100683351Y-74192399D01*
X100678076Y-74187419D01*
X92465265Y-65974608D01*
X92462277Y-65972265D01*
X92371521Y-65901103D01*
X92371519Y-65901102D01*
X92365543Y-65896416D01*
X92211016Y-65826645D01*
X92044308Y-65795748D01*
X92036728Y-65796185D01*
X92036727Y-65796185D01*
X92005501Y-65797985D01*
X91875041Y-65805507D01*
X91712989Y-65855361D01*
X91567505Y-65942431D01*
X91562112Y-65947768D01*
X91562108Y-65947771D01*
X91506086Y-66003210D01*
X91446990Y-66061690D01*
X91358402Y-66206254D01*
X91306854Y-66367775D01*
X91306337Y-66375355D01*
X91306337Y-66375356D01*
X91298195Y-66494791D01*
X91295322Y-66536930D01*
X91296627Y-66544407D01*
X91296627Y-66544408D01*
X91307841Y-66608660D01*
X91324473Y-66703954D01*
X91392621Y-66859202D01*
X91472022Y-66962678D01*
X91474943Y-66965599D01*
X99462595Y-74953252D01*
X99496621Y-75015564D01*
X99499500Y-75042347D01*
X99499500Y-109866333D01*
X99499208Y-109874903D01*
X99495322Y-109931904D01*
X99496627Y-109939380D01*
X99496627Y-109939383D01*
X99506178Y-109994106D01*
X99507141Y-110000632D01*
X99514724Y-110063294D01*
X99517409Y-110070401D01*
X99518218Y-110073694D01*
X99522177Y-110088165D01*
X99523166Y-110091441D01*
X99524473Y-110098928D01*
X99527528Y-110105887D01*
X99527528Y-110105888D01*
X99549847Y-110156734D01*
X99552339Y-110162840D01*
X99571685Y-110214036D01*
X99574655Y-110221897D01*
X99578954Y-110228152D01*
X99580535Y-110231177D01*
X99587825Y-110244273D01*
X99589566Y-110247217D01*
X99592621Y-110254176D01*
X99597246Y-110260204D01*
X99597247Y-110260205D01*
X99631042Y-110304247D01*
X99634919Y-110309583D01*
X99666381Y-110355360D01*
X99666386Y-110355366D01*
X99670688Y-110361625D01*
X99698607Y-110386500D01*
X99716648Y-110402574D01*
X99721925Y-110407555D01*
X100253085Y-110938716D01*
X100287110Y-111001028D01*
X100289989Y-111027811D01*
X100289989Y-116991848D01*
X100289697Y-117000418D01*
X100285811Y-117057419D01*
X100287116Y-117064895D01*
X100287116Y-117064898D01*
X100296667Y-117119621D01*
X100297630Y-117126147D01*
X100305213Y-117188809D01*
X100307898Y-117195916D01*
X100308707Y-117199209D01*
X100312666Y-117213680D01*
X100313655Y-117216956D01*
X100314962Y-117224443D01*
X100318017Y-117231402D01*
X100318017Y-117231403D01*
X100340336Y-117282249D01*
X100342828Y-117288355D01*
X100365144Y-117347412D01*
X100369443Y-117353667D01*
X100371024Y-117356692D01*
X100378314Y-117369788D01*
X100380055Y-117372732D01*
X100383110Y-117379691D01*
X100387735Y-117385719D01*
X100387736Y-117385720D01*
X100421531Y-117429762D01*
X100425408Y-117435098D01*
X100456870Y-117480875D01*
X100456875Y-117480881D01*
X100461177Y-117487140D01*
X100466851Y-117492195D01*
X100507146Y-117528097D01*
X100512422Y-117533078D01*
X103162595Y-120183252D01*
X103196621Y-120245564D01*
X103199500Y-120272347D01*
X103199500Y-124882745D01*
X103179498Y-124950866D01*
X103125842Y-124997359D01*
X103088643Y-125007831D01*
X103031680Y-125014724D01*
X103024573Y-125017409D01*
X103021280Y-125018218D01*
X103006809Y-125022177D01*
X103003533Y-125023166D01*
X102996046Y-125024473D01*
X102989087Y-125027528D01*
X102989086Y-125027528D01*
X102938240Y-125049847D01*
X102932134Y-125052339D01*
X102880182Y-125071970D01*
X102880180Y-125071971D01*
X102873077Y-125074655D01*
X102866822Y-125078954D01*
X102863797Y-125080535D01*
X102850701Y-125087825D01*
X102847757Y-125089566D01*
X102840798Y-125092621D01*
X102834770Y-125097246D01*
X102834769Y-125097247D01*
X102790727Y-125131042D01*
X102785391Y-125134919D01*
X102739614Y-125166381D01*
X102739608Y-125166386D01*
X102733349Y-125170688D01*
X102728294Y-125176362D01*
X102692392Y-125216657D01*
X102687411Y-125221933D01*
X95946748Y-131962595D01*
X95884436Y-131996621D01*
X95857653Y-131999500D01*
X93742346Y-131999500D01*
X93674225Y-131979498D01*
X93653251Y-131962595D01*
X92686056Y-130995399D01*
X91715583Y-130024926D01*
X91709729Y-130018660D01*
X91677165Y-129981331D01*
X91672169Y-129975604D01*
X91620527Y-129939310D01*
X91615242Y-129935384D01*
X91571524Y-129901105D01*
X91571520Y-129901103D01*
X91565543Y-129896416D01*
X91558620Y-129893290D01*
X91555672Y-129891505D01*
X91542712Y-129884113D01*
X91539666Y-129882480D01*
X91533453Y-129878113D01*
X91474633Y-129855180D01*
X91468554Y-129852624D01*
X91411016Y-129826645D01*
X91403545Y-129825260D01*
X91400277Y-129824236D01*
X91385836Y-129820123D01*
X91382563Y-129819283D01*
X91375487Y-129816524D01*
X91330817Y-129810644D01*
X91312894Y-129808284D01*
X91306377Y-129807252D01*
X91251775Y-129797132D01*
X91244308Y-129795748D01*
X91236728Y-129796185D01*
X91236727Y-129796185D01*
X91182856Y-129799291D01*
X91175604Y-129799500D01*
X88552346Y-129799500D01*
X88484225Y-129779498D01*
X88463251Y-129762595D01*
X86747405Y-128046748D01*
X86713379Y-127984436D01*
X86710500Y-127957653D01*
X86710500Y-124038641D01*
X86710792Y-124030071D01*
X86710851Y-124029211D01*
X86714678Y-123973070D01*
X86703823Y-123910870D01*
X86702860Y-123904346D01*
X86696189Y-123849221D01*
X86696188Y-123849218D01*
X86695276Y-123841680D01*
X86692592Y-123834578D01*
X86691773Y-123831242D01*
X86687817Y-123816785D01*
X86686834Y-123813528D01*
X86685528Y-123806047D01*
X86682476Y-123799094D01*
X86660151Y-123748233D01*
X86657660Y-123742128D01*
X86638033Y-123690189D01*
X86638031Y-123690185D01*
X86635345Y-123683077D01*
X86631040Y-123676813D01*
X86629451Y-123673774D01*
X86622168Y-123660687D01*
X86620430Y-123657748D01*
X86617379Y-123650798D01*
X86612754Y-123644770D01*
X86578936Y-123600697D01*
X86575071Y-123595378D01*
X86539312Y-123543349D01*
X86493351Y-123502399D01*
X86488076Y-123497419D01*
X84365265Y-121374608D01*
X84362277Y-121372265D01*
X84271521Y-121301103D01*
X84271519Y-121301102D01*
X84265543Y-121296416D01*
X84111016Y-121226645D01*
X83944308Y-121195748D01*
X83936728Y-121196185D01*
X83936727Y-121196185D01*
X83905501Y-121197985D01*
X83775041Y-121205507D01*
X83612989Y-121255361D01*
X83467505Y-121342431D01*
X83462112Y-121347768D01*
X83462108Y-121347771D01*
X83406086Y-121403210D01*
X83346990Y-121461690D01*
X83258402Y-121606254D01*
X83206854Y-121767775D01*
X83195322Y-121936930D01*
X83224473Y-122103954D01*
X83227524Y-122110903D01*
X83227524Y-122110905D01*
X83247793Y-122157080D01*
X83292621Y-122259202D01*
X83372022Y-122362678D01*
X83374943Y-122365599D01*
X85272595Y-124263252D01*
X85306621Y-124325564D01*
X85309500Y-124352347D01*
X85309500Y-128271359D01*
X85309208Y-128279929D01*
X85307580Y-128303815D01*
X85305322Y-128336930D01*
X85306627Y-128344406D01*
X85306627Y-128344409D01*
X85316178Y-128399132D01*
X85317141Y-128405658D01*
X85324724Y-128468320D01*
X85327409Y-128475427D01*
X85328218Y-128478720D01*
X85332177Y-128493191D01*
X85333166Y-128496467D01*
X85334473Y-128503954D01*
X85337528Y-128510913D01*
X85337528Y-128510914D01*
X85359847Y-128561760D01*
X85362339Y-128567866D01*
X85384655Y-128626923D01*
X85388954Y-128633178D01*
X85390535Y-128636203D01*
X85397825Y-128649299D01*
X85399566Y-128652243D01*
X85402621Y-128659202D01*
X85407246Y-128665230D01*
X85407247Y-128665231D01*
X85441042Y-128709273D01*
X85444919Y-128714609D01*
X85476381Y-128760386D01*
X85476386Y-128760392D01*
X85480688Y-128766651D01*
X85486362Y-128771706D01*
X85526657Y-128807608D01*
X85531933Y-128812589D01*
X87694417Y-130975074D01*
X87700270Y-130981339D01*
X87737831Y-131024396D01*
X87789473Y-131060690D01*
X87794758Y-131064616D01*
X87838476Y-131098895D01*
X87838480Y-131098897D01*
X87844457Y-131103584D01*
X87851380Y-131106710D01*
X87854328Y-131108495D01*
X87867288Y-131115887D01*
X87870334Y-131117520D01*
X87876547Y-131121887D01*
X87935366Y-131144820D01*
X87941445Y-131147375D01*
X87998984Y-131173355D01*
X88006455Y-131174740D01*
X88009723Y-131175764D01*
X88024164Y-131179877D01*
X88027437Y-131180717D01*
X88034513Y-131183476D01*
X88079183Y-131189356D01*
X88097106Y-131191716D01*
X88103623Y-131192748D01*
X88145035Y-131200423D01*
X88165692Y-131204252D01*
X88173272Y-131203815D01*
X88173273Y-131203815D01*
X88227144Y-131200709D01*
X88234396Y-131200500D01*
X90857654Y-131200500D01*
X90925775Y-131220502D01*
X90946749Y-131237405D01*
X92884417Y-133175074D01*
X92890270Y-133181339D01*
X92927831Y-133224396D01*
X92979473Y-133260690D01*
X92984758Y-133264616D01*
X93028476Y-133298895D01*
X93028480Y-133298897D01*
X93034457Y-133303584D01*
X93041380Y-133306710D01*
X93044328Y-133308495D01*
X93057288Y-133315887D01*
X93060334Y-133317520D01*
X93066547Y-133321887D01*
X93093793Y-133332510D01*
X93125366Y-133344820D01*
X93131445Y-133347375D01*
X93188984Y-133373355D01*
X93196455Y-133374740D01*
X93199723Y-133375764D01*
X93214164Y-133379877D01*
X93217437Y-133380717D01*
X93224513Y-133383476D01*
X93269183Y-133389356D01*
X93287106Y-133391716D01*
X93293623Y-133392748D01*
X93299418Y-133393822D01*
X93355692Y-133404252D01*
X93363272Y-133403815D01*
X93363273Y-133403815D01*
X93417144Y-133400709D01*
X93424396Y-133400500D01*
X96171359Y-133400500D01*
X96179929Y-133400792D01*
X96229354Y-133404162D01*
X96229358Y-133404162D01*
X96236930Y-133404678D01*
X96244406Y-133403373D01*
X96244409Y-133403373D01*
X96299132Y-133393822D01*
X96305658Y-133392859D01*
X96346096Y-133387965D01*
X96368320Y-133385276D01*
X96375427Y-133382591D01*
X96378720Y-133381782D01*
X96393191Y-133377823D01*
X96396467Y-133376834D01*
X96403954Y-133375527D01*
X96416026Y-133370228D01*
X96461760Y-133350153D01*
X96467865Y-133347662D01*
X96493754Y-133337879D01*
X96564547Y-133332510D01*
X96627005Y-133366267D01*
X96661297Y-133428432D01*
X96656537Y-133499269D01*
X96627388Y-133544839D01*
X86509632Y-143662595D01*
X86447320Y-143696621D01*
X86420537Y-143699500D01*
X79125444Y-143699500D01*
X79057323Y-143679498D01*
X79025482Y-143650204D01*
X78997647Y-143613929D01*
X78992621Y-143607379D01*
X78877625Y-143519139D01*
X78743709Y-143463670D01*
X78600000Y-143444750D01*
X78456291Y-143463670D01*
X78322375Y-143519139D01*
X78207379Y-143607379D01*
X78202353Y-143613929D01*
X78125957Y-143713490D01*
X78119139Y-143722375D01*
X78118729Y-143723365D01*
X78069755Y-143770059D01*
X78000042Y-143783494D01*
X77934131Y-143757106D01*
X77912058Y-143734767D01*
X77908938Y-143730702D01*
X77905081Y-143725391D01*
X77873619Y-143679614D01*
X77873614Y-143679608D01*
X77869312Y-143673349D01*
X77857243Y-143662595D01*
X77823336Y-143632385D01*
X77818061Y-143627404D01*
X77665265Y-143474608D01*
X77651315Y-143463670D01*
X77571521Y-143401103D01*
X77571519Y-143401102D01*
X77565543Y-143396416D01*
X77411016Y-143326645D01*
X77282838Y-143302889D01*
X77219503Y-143270808D01*
X77192340Y-143224527D01*
X77175449Y-143261511D01*
X77115723Y-143299895D01*
X77087478Y-143304790D01*
X77075041Y-143305507D01*
X76912989Y-143355361D01*
X76767505Y-143442431D01*
X76762112Y-143447768D01*
X76762108Y-143447771D01*
X76706086Y-143503210D01*
X76646990Y-143561690D01*
X76558402Y-143706254D01*
X76506854Y-143867775D01*
X76506337Y-143875355D01*
X76506337Y-143875356D01*
X76497840Y-144000000D01*
X76495322Y-144036930D01*
X76496627Y-144044407D01*
X76496627Y-144044408D01*
X76521123Y-144184758D01*
X76524473Y-144203954D01*
X76527524Y-144210903D01*
X76527524Y-144210905D01*
X76551949Y-144266547D01*
X76592621Y-144359202D01*
X76597243Y-144365226D01*
X76597244Y-144365227D01*
X76613462Y-144386362D01*
X76639063Y-144452582D01*
X76639500Y-144463067D01*
X76639500Y-144641359D01*
X76639208Y-144649929D01*
X76635322Y-144706930D01*
X76636627Y-144714406D01*
X76636627Y-144714409D01*
X76646178Y-144769132D01*
X76647141Y-144775658D01*
X76654724Y-144838320D01*
X76657409Y-144845427D01*
X76658218Y-144848720D01*
X76662177Y-144863191D01*
X76663166Y-144866467D01*
X76664473Y-144873954D01*
X76667528Y-144880913D01*
X76667528Y-144880914D01*
X76689847Y-144931760D01*
X76692339Y-144937866D01*
X76714655Y-144996923D01*
X76718954Y-145003178D01*
X76720535Y-145006203D01*
X76727825Y-145019299D01*
X76729566Y-145022243D01*
X76732621Y-145029202D01*
X76737246Y-145035230D01*
X76737247Y-145035231D01*
X76757385Y-145061475D01*
X76782986Y-145127695D01*
X76768721Y-145197244D01*
X76719120Y-145248040D01*
X76649931Y-145263956D01*
X76605455Y-145248703D01*
X76604082Y-145251802D01*
X76593448Y-145247090D01*
X76583854Y-145240508D01*
X76572535Y-145237822D01*
X76572533Y-145237821D01*
X76559873Y-145234817D01*
X76542276Y-145229252D01*
X76527638Y-145223412D01*
X76527635Y-145223411D01*
X76519378Y-145220117D01*
X76513085Y-145219500D01*
X76510006Y-145219500D01*
X76506933Y-145219350D01*
X76506944Y-145219134D01*
X76495569Y-145217802D01*
X76486254Y-145217346D01*
X76474934Y-145214660D01*
X76463405Y-145216229D01*
X76463404Y-145216229D01*
X76447827Y-145218349D01*
X76430836Y-145219500D01*
X54986000Y-145219500D01*
X54917879Y-145199498D01*
X54871386Y-145145842D01*
X54860000Y-145093500D01*
X54860000Y-143406500D01*
X54880002Y-143338379D01*
X54933658Y-143291886D01*
X54986000Y-143280500D01*
X57967634Y-143280500D01*
X57970307Y-143280696D01*
X57975342Y-143282425D01*
X57986964Y-143281989D01*
X57986966Y-143281989D01*
X58024255Y-143280589D01*
X58028981Y-143280500D01*
X58047948Y-143280500D01*
X58052683Y-143279618D01*
X58056209Y-143279390D01*
X58059949Y-143279249D01*
X58087208Y-143278226D01*
X58097893Y-143273636D01*
X58102493Y-143272599D01*
X58114214Y-143269038D01*
X58118617Y-143267339D01*
X58130053Y-143265209D01*
X58151041Y-143252272D01*
X58167411Y-143243769D01*
X58181888Y-143237549D01*
X58181892Y-143237547D01*
X58190063Y-143234036D01*
X58194949Y-143230022D01*
X58197134Y-143227837D01*
X58199397Y-143225785D01*
X58199542Y-143225945D01*
X58208549Y-143218825D01*
X58215444Y-143212573D01*
X58225348Y-143206468D01*
X58241916Y-143184680D01*
X58253110Y-143171861D01*
X58991367Y-142433604D01*
X67009032Y-142433604D01*
X67048613Y-142598467D01*
X67052094Y-142605211D01*
X67052095Y-142605214D01*
X67122893Y-142742382D01*
X67126376Y-142749130D01*
X67131368Y-142754852D01*
X67131369Y-142754854D01*
X67165297Y-142793746D01*
X67237832Y-142876895D01*
X67244046Y-142881262D01*
X67370331Y-142970017D01*
X67370333Y-142970018D01*
X67376548Y-142974386D01*
X67534514Y-143035975D01*
X67542047Y-143036967D01*
X67542048Y-143036967D01*
X67657978Y-143052229D01*
X67663827Y-143052999D01*
X77080225Y-143052999D01*
X77148346Y-143073001D01*
X77194839Y-143126657D01*
X77194840Y-143126661D01*
X77227206Y-143080515D01*
X77292926Y-143053658D01*
X77305799Y-143052999D01*
X85526435Y-143052999D01*
X85594556Y-143073001D01*
X85604182Y-143079846D01*
X85628478Y-143098897D01*
X85628485Y-143098901D01*
X85634457Y-143103584D01*
X85788984Y-143173355D01*
X85955692Y-143204252D01*
X85963272Y-143203815D01*
X85963273Y-143203815D01*
X85994499Y-143202015D01*
X86124959Y-143194493D01*
X86287011Y-143144639D01*
X86432495Y-143057569D01*
X86437888Y-143052232D01*
X86437892Y-143052229D01*
X86520969Y-142970017D01*
X86553010Y-142938310D01*
X86641598Y-142793746D01*
X86678059Y-142679500D01*
X86690836Y-142639464D01*
X86690836Y-142639462D01*
X86693146Y-142632225D01*
X86694945Y-142605842D01*
X86704162Y-142470646D01*
X86704162Y-142470642D01*
X86704678Y-142463070D01*
X86675527Y-142296046D01*
X86661486Y-142264058D01*
X86610431Y-142147751D01*
X86607379Y-142140798D01*
X86527978Y-142037322D01*
X86368076Y-141877419D01*
X86362223Y-141871153D01*
X86329664Y-141833830D01*
X86324668Y-141828103D01*
X86273026Y-141791809D01*
X86267741Y-141787883D01*
X86224023Y-141753604D01*
X86224019Y-141753602D01*
X86218042Y-141748915D01*
X86211119Y-141745789D01*
X86208171Y-141744004D01*
X86195211Y-141736612D01*
X86192165Y-141734979D01*
X86185952Y-141730612D01*
X86127132Y-141707679D01*
X86121053Y-141705123D01*
X86110373Y-141700301D01*
X86063515Y-141679144D01*
X86056044Y-141677759D01*
X86052776Y-141676735D01*
X86038335Y-141672622D01*
X86035062Y-141671782D01*
X86027986Y-141669023D01*
X85983316Y-141663143D01*
X85965393Y-141660783D01*
X85958876Y-141659751D01*
X85904274Y-141649631D01*
X85896807Y-141648247D01*
X85889227Y-141648684D01*
X85889226Y-141648684D01*
X85835355Y-141651790D01*
X85828103Y-141651999D01*
X67667485Y-141651999D01*
X67541681Y-141667223D01*
X67383078Y-141727154D01*
X67376820Y-141731455D01*
X67291767Y-141789911D01*
X67243350Y-141823187D01*
X67238298Y-141828857D01*
X67238297Y-141828858D01*
X67135613Y-141944107D01*
X67135611Y-141944111D01*
X67130561Y-141949778D01*
X67127009Y-141956487D01*
X67127008Y-141956488D01*
X67116060Y-141977165D01*
X67051225Y-142099618D01*
X67009920Y-142264058D01*
X67009032Y-142433604D01*
X58991367Y-142433604D01*
X62840940Y-138584031D01*
X62903252Y-138550005D01*
X62946480Y-138548204D01*
X63000000Y-138555250D01*
X63143709Y-138536330D01*
X63277625Y-138480861D01*
X63392621Y-138392621D01*
X63480861Y-138277625D01*
X63536330Y-138143709D01*
X63555250Y-138000000D01*
X63536330Y-137856291D01*
X63480861Y-137722375D01*
X63392621Y-137607379D01*
X63277625Y-137519139D01*
X63143709Y-137463670D01*
X63000000Y-137444750D01*
X62856291Y-137463670D01*
X62848659Y-137466831D01*
X62848660Y-137466831D01*
X62767227Y-137500561D01*
X62696637Y-137508150D01*
X62633150Y-137476370D01*
X62596923Y-137415312D01*
X62599457Y-137344361D01*
X62629914Y-137295057D01*
X62840940Y-137084031D01*
X62903252Y-137050005D01*
X62946480Y-137048204D01*
X63000000Y-137055250D01*
X63143709Y-137036330D01*
X63277625Y-136980861D01*
X63392621Y-136892621D01*
X63480861Y-136777625D01*
X63536330Y-136643709D01*
X63555250Y-136500000D01*
X63536330Y-136356291D01*
X63480861Y-136222375D01*
X63392621Y-136107379D01*
X63277625Y-136019139D01*
X63143709Y-135963670D01*
X63000000Y-135944750D01*
X62856291Y-135963670D01*
X62848657Y-135966832D01*
X62767228Y-136000560D01*
X62696638Y-136008149D01*
X62633152Y-135976369D01*
X62596925Y-135915311D01*
X62599459Y-135844359D01*
X62629916Y-135795056D01*
X62840941Y-135584031D01*
X62903253Y-135550005D01*
X62946481Y-135548204D01*
X63000000Y-135555250D01*
X63143709Y-135536330D01*
X63277625Y-135480861D01*
X63392621Y-135392621D01*
X63480861Y-135277625D01*
X63536330Y-135143709D01*
X63555250Y-135000000D01*
X63536330Y-134856291D01*
X63480861Y-134722375D01*
X63392621Y-134607379D01*
X63277625Y-134519139D01*
X63143709Y-134463670D01*
X63000000Y-134444750D01*
X62856291Y-134463670D01*
X62848657Y-134466832D01*
X62767227Y-134500560D01*
X62696637Y-134508149D01*
X62633150Y-134476369D01*
X62596924Y-134415310D01*
X62599458Y-134344359D01*
X62629912Y-134295060D01*
X62840943Y-134084029D01*
X62903253Y-134050005D01*
X62946481Y-134048204D01*
X63000000Y-134055250D01*
X63143709Y-134036330D01*
X63277625Y-133980861D01*
X63392621Y-133892621D01*
X63480861Y-133777625D01*
X63536330Y-133643709D01*
X63555250Y-133500000D01*
X63536330Y-133356291D01*
X63480861Y-133222375D01*
X63392621Y-133107379D01*
X63277625Y-133019139D01*
X63143709Y-132963670D01*
X63000000Y-132944750D01*
X62856291Y-132963670D01*
X62848659Y-132966831D01*
X62848660Y-132966831D01*
X62767227Y-133000561D01*
X62696637Y-133008150D01*
X62633150Y-132976370D01*
X62596923Y-132915312D01*
X62599457Y-132844361D01*
X62629914Y-132795057D01*
X62840940Y-132584031D01*
X62903252Y-132550005D01*
X62946480Y-132548204D01*
X63000000Y-132555250D01*
X63143709Y-132536330D01*
X63277625Y-132480861D01*
X63392621Y-132392621D01*
X63480861Y-132277625D01*
X63536330Y-132143709D01*
X63555250Y-132000000D01*
X63536330Y-131856291D01*
X63480861Y-131722375D01*
X63392621Y-131607379D01*
X63277625Y-131519139D01*
X63143709Y-131463670D01*
X63000000Y-131444750D01*
X62856291Y-131463670D01*
X62722375Y-131519139D01*
X62607379Y-131607379D01*
X62519139Y-131722375D01*
X62463670Y-131856291D01*
X62444750Y-132000000D01*
X62445828Y-132008187D01*
X62451796Y-132053518D01*
X62440857Y-132123667D01*
X62415969Y-132159060D01*
X62092434Y-132482595D01*
X62030122Y-132516621D01*
X62003339Y-132519500D01*
X54986000Y-132519500D01*
X54917879Y-132499498D01*
X54871386Y-132445842D01*
X54860000Y-132393500D01*
X54860000Y-130706500D01*
X54880002Y-130638379D01*
X54933658Y-130591886D01*
X54986000Y-130580500D01*
X62353297Y-130580500D01*
X62421418Y-130600502D01*
X62469706Y-130658282D01*
X62519139Y-130777625D01*
X62607379Y-130892621D01*
X62722375Y-130980861D01*
X62856291Y-131036330D01*
X63000000Y-131055250D01*
X63143709Y-131036330D01*
X63277625Y-130980861D01*
X63392621Y-130892621D01*
X63480861Y-130777625D01*
X63536330Y-130643709D01*
X63555250Y-130500000D01*
X63536330Y-130356291D01*
X63480861Y-130222375D01*
X63392621Y-130107379D01*
X63277625Y-130019139D01*
X63143709Y-129963670D01*
X63000000Y-129944750D01*
X62856291Y-129963670D01*
X62847606Y-129967267D01*
X62845967Y-129967552D01*
X62840686Y-129968967D01*
X62840558Y-129968491D01*
X62799200Y-129975672D01*
X62794934Y-129974660D01*
X62770002Y-129978053D01*
X62767827Y-129978349D01*
X62750836Y-129979500D01*
X54986000Y-129979500D01*
X54917879Y-129959498D01*
X54871386Y-129905842D01*
X54860000Y-129853500D01*
X54860000Y-128166500D01*
X54880002Y-128098379D01*
X54933658Y-128051886D01*
X54986000Y-128040500D01*
X61563339Y-128040500D01*
X61631460Y-128060502D01*
X61652434Y-128077405D01*
X62415969Y-128840940D01*
X62449995Y-128903252D01*
X62451796Y-128946480D01*
X62444750Y-129000000D01*
X62463670Y-129143709D01*
X62519139Y-129277625D01*
X62607379Y-129392621D01*
X62722375Y-129480861D01*
X62856291Y-129536330D01*
X63000000Y-129555250D01*
X63143709Y-129536330D01*
X63277625Y-129480861D01*
X63392621Y-129392621D01*
X63480861Y-129277625D01*
X63536330Y-129143709D01*
X63555250Y-129000000D01*
X63536330Y-128856291D01*
X63480861Y-128722375D01*
X63392621Y-128607379D01*
X63277625Y-128519139D01*
X63143709Y-128463670D01*
X63000000Y-128444750D01*
X62946481Y-128451796D01*
X62876333Y-128440857D01*
X62840940Y-128415969D01*
X62629914Y-128204943D01*
X62595888Y-128142631D01*
X62600953Y-128071816D01*
X62643500Y-128014980D01*
X62710020Y-127990169D01*
X62767227Y-127999439D01*
X62856291Y-128036330D01*
X63000000Y-128055250D01*
X63143709Y-128036330D01*
X63277625Y-127980861D01*
X63392621Y-127892621D01*
X63480861Y-127777625D01*
X63536330Y-127643709D01*
X63555250Y-127500000D01*
X63536330Y-127356291D01*
X63480861Y-127222375D01*
X63392621Y-127107379D01*
X63277625Y-127019139D01*
X63143709Y-126963670D01*
X63000000Y-126944750D01*
X62946481Y-126951796D01*
X62876333Y-126940857D01*
X62840940Y-126915969D01*
X60949519Y-125024548D01*
X60947763Y-125022514D01*
X60945425Y-125017731D01*
X60909523Y-124984427D01*
X60906118Y-124981147D01*
X60892723Y-124967752D01*
X60888753Y-124965028D01*
X60886105Y-124962703D01*
X60871881Y-124949508D01*
X60871878Y-124949506D01*
X60863354Y-124941599D01*
X60852550Y-124937289D01*
X60848561Y-124934767D01*
X60837773Y-124929006D01*
X60833448Y-124927089D01*
X60823854Y-124920508D01*
X60812535Y-124917822D01*
X60812533Y-124917821D01*
X60799873Y-124914817D01*
X60782276Y-124909252D01*
X60767638Y-124903412D01*
X60767635Y-124903411D01*
X60759378Y-124900117D01*
X60753085Y-124899500D01*
X60750006Y-124899500D01*
X60746933Y-124899350D01*
X60746944Y-124899134D01*
X60735569Y-124897802D01*
X60726254Y-124897346D01*
X60714934Y-124894660D01*
X60703405Y-124896229D01*
X60703404Y-124896229D01*
X60687827Y-124898349D01*
X60670836Y-124899500D01*
X54986000Y-124899500D01*
X54917879Y-124879498D01*
X54871386Y-124825842D01*
X54860000Y-124773500D01*
X54860000Y-121436930D01*
X76695322Y-121436930D01*
X76696627Y-121444407D01*
X76696627Y-121444408D01*
X76714514Y-121546891D01*
X76724473Y-121603954D01*
X76727524Y-121610903D01*
X76727524Y-121610905D01*
X76731789Y-121620621D01*
X76792621Y-121759202D01*
X76797243Y-121765226D01*
X76797244Y-121765227D01*
X76808994Y-121780540D01*
X76872022Y-121862678D01*
X76874943Y-121865599D01*
X83084418Y-128075075D01*
X83090271Y-128081340D01*
X83127831Y-128124396D01*
X83179490Y-128160702D01*
X83184774Y-128164627D01*
X83234457Y-128203583D01*
X83241384Y-128206711D01*
X83244315Y-128208486D01*
X83257318Y-128215903D01*
X83260332Y-128217519D01*
X83266547Y-128221887D01*
X83273623Y-128224646D01*
X83273627Y-128224648D01*
X83325364Y-128244819D01*
X83331445Y-128247375D01*
X83388984Y-128273355D01*
X83396450Y-128274739D01*
X83399699Y-128275757D01*
X83414164Y-128279877D01*
X83417437Y-128280717D01*
X83424513Y-128283476D01*
X83469183Y-128289356D01*
X83487106Y-128291716D01*
X83493623Y-128292748D01*
X83532988Y-128300044D01*
X83555692Y-128304252D01*
X83563272Y-128303815D01*
X83563273Y-128303815D01*
X83617144Y-128300709D01*
X83624396Y-128300500D01*
X84042516Y-128300500D01*
X84168320Y-128285276D01*
X84326923Y-128225345D01*
X84365411Y-128198893D01*
X84460392Y-128133614D01*
X84460393Y-128133613D01*
X84466651Y-128129312D01*
X84476134Y-128118669D01*
X84574388Y-128008392D01*
X84574390Y-128008388D01*
X84579440Y-128002721D01*
X84589122Y-127984436D01*
X84651380Y-127866850D01*
X84658776Y-127852881D01*
X84700081Y-127688441D01*
X84700969Y-127518895D01*
X84698399Y-127508188D01*
X84663161Y-127361417D01*
X84661388Y-127354032D01*
X84654632Y-127340941D01*
X84587108Y-127210117D01*
X84587108Y-127210116D01*
X84583625Y-127203369D01*
X84576721Y-127195454D01*
X84499888Y-127107379D01*
X84472169Y-127075604D01*
X84381536Y-127011906D01*
X84339670Y-126982482D01*
X84339668Y-126982481D01*
X84333453Y-126978113D01*
X84175487Y-126916524D01*
X84167954Y-126915532D01*
X84167953Y-126915532D01*
X84050261Y-126900038D01*
X84050260Y-126900038D01*
X84046174Y-126899500D01*
X83942346Y-126899500D01*
X83874225Y-126879498D01*
X83853251Y-126862595D01*
X77867952Y-120877295D01*
X77865265Y-120874608D01*
X77852258Y-120864409D01*
X77771521Y-120801103D01*
X77771519Y-120801102D01*
X77765543Y-120796416D01*
X77611016Y-120726645D01*
X77444308Y-120695748D01*
X77436728Y-120696185D01*
X77436727Y-120696185D01*
X77405501Y-120697985D01*
X77275041Y-120705507D01*
X77112989Y-120755361D01*
X76967505Y-120842431D01*
X76962112Y-120847768D01*
X76962108Y-120847771D01*
X76928186Y-120881340D01*
X76846990Y-120961690D01*
X76758402Y-121106254D01*
X76706854Y-121267775D01*
X76706337Y-121275355D01*
X76706337Y-121275356D01*
X76696221Y-121423746D01*
X76695322Y-121436930D01*
X54860000Y-121436930D01*
X54860000Y-120546500D01*
X54880002Y-120478379D01*
X54933658Y-120431886D01*
X54986000Y-120420500D01*
X56767634Y-120420500D01*
X56770307Y-120420696D01*
X56775342Y-120422425D01*
X56786964Y-120421989D01*
X56786966Y-120421989D01*
X56824255Y-120420589D01*
X56828981Y-120420500D01*
X56847948Y-120420500D01*
X56852683Y-120419618D01*
X56856209Y-120419390D01*
X56859949Y-120419249D01*
X56887208Y-120418226D01*
X56897893Y-120413636D01*
X56902493Y-120412599D01*
X56914214Y-120409038D01*
X56918617Y-120407339D01*
X56930053Y-120405209D01*
X56951041Y-120392272D01*
X56967411Y-120383769D01*
X56981888Y-120377549D01*
X56981892Y-120377547D01*
X56990063Y-120374036D01*
X56994949Y-120370022D01*
X56997134Y-120367837D01*
X56999397Y-120365785D01*
X56999542Y-120365945D01*
X57008549Y-120358825D01*
X57015444Y-120352573D01*
X57025348Y-120346468D01*
X57041916Y-120324680D01*
X57053110Y-120311861D01*
X65904971Y-111460000D01*
X67464750Y-111460000D01*
X67483670Y-111603709D01*
X67539139Y-111737625D01*
X67627379Y-111852621D01*
X67742375Y-111940861D01*
X67876291Y-111996330D01*
X68020000Y-112015250D01*
X68163709Y-111996330D01*
X68297625Y-111940861D01*
X68412621Y-111852621D01*
X68445482Y-111809796D01*
X68502820Y-111767929D01*
X68545444Y-111760500D01*
X69978516Y-111760500D01*
X70046637Y-111780502D01*
X70078478Y-111809796D01*
X70157379Y-111912621D01*
X70272375Y-112000861D01*
X70406291Y-112056330D01*
X70550000Y-112075250D01*
X70693709Y-112056330D01*
X70827625Y-112000861D01*
X70942621Y-111912621D01*
X71030861Y-111797625D01*
X71086330Y-111663709D01*
X71105250Y-111520000D01*
X71102617Y-111500000D01*
X91944750Y-111500000D01*
X91963670Y-111643709D01*
X92019139Y-111777625D01*
X92107379Y-111892621D01*
X92222375Y-111980861D01*
X92356291Y-112036330D01*
X92500000Y-112055250D01*
X92553519Y-112048204D01*
X92623667Y-112059143D01*
X92659060Y-112084031D01*
X99627094Y-119052065D01*
X99661120Y-119114377D01*
X99663999Y-119141160D01*
X99663999Y-120204556D01*
X99643997Y-120272677D01*
X99614703Y-120304518D01*
X99597266Y-120317898D01*
X99571878Y-120337379D01*
X99483638Y-120452375D01*
X99428169Y-120586291D01*
X99409249Y-120730000D01*
X99428169Y-120873709D01*
X99483638Y-121007625D01*
X99571878Y-121122621D01*
X99686874Y-121210861D01*
X99820790Y-121266330D01*
X99964499Y-121285250D01*
X100108208Y-121266330D01*
X100242124Y-121210861D01*
X100357120Y-121122621D01*
X100445360Y-121007625D01*
X100500829Y-120873709D01*
X100519749Y-120730000D01*
X100500829Y-120586291D01*
X100445360Y-120452375D01*
X100357120Y-120337379D01*
X100331732Y-120317898D01*
X100314295Y-120304518D01*
X100272428Y-120247180D01*
X100264999Y-120204556D01*
X100264999Y-119016869D01*
X100265195Y-119014194D01*
X100266925Y-119009157D01*
X100265088Y-118960228D01*
X100264999Y-118955502D01*
X100264999Y-118936551D01*
X100264117Y-118931818D01*
X100263889Y-118928291D01*
X100263162Y-118908919D01*
X100263161Y-118908917D01*
X100262725Y-118897291D01*
X100258131Y-118886599D01*
X100257094Y-118881996D01*
X100253537Y-118870285D01*
X100251838Y-118865882D01*
X100249708Y-118854446D01*
X100236771Y-118833458D01*
X100228268Y-118817088D01*
X100222047Y-118802608D01*
X100222044Y-118802603D01*
X100218535Y-118794436D01*
X100214522Y-118789550D01*
X100212339Y-118787367D01*
X100210275Y-118785091D01*
X100210436Y-118784945D01*
X100203334Y-118775960D01*
X100197071Y-118769053D01*
X100190967Y-118759151D01*
X100169192Y-118742593D01*
X100156364Y-118731392D01*
X93084031Y-111659060D01*
X93050005Y-111596748D01*
X93048204Y-111553518D01*
X93054172Y-111508187D01*
X93055250Y-111500000D01*
X93036330Y-111356291D01*
X92980861Y-111222375D01*
X92892621Y-111107379D01*
X92777625Y-111019139D01*
X92643709Y-110963670D01*
X92500000Y-110944750D01*
X92356291Y-110963670D01*
X92222375Y-111019139D01*
X92107379Y-111107379D01*
X92019139Y-111222375D01*
X91963670Y-111356291D01*
X91944750Y-111500000D01*
X71102617Y-111500000D01*
X71086330Y-111376291D01*
X71030861Y-111242375D01*
X70942621Y-111127379D01*
X70827625Y-111039139D01*
X70693709Y-110983670D01*
X70550000Y-110964750D01*
X70406291Y-110983670D01*
X70272375Y-111039139D01*
X70157379Y-111127379D01*
X70156655Y-111126435D01*
X70101375Y-111156621D01*
X70074592Y-111159500D01*
X68545444Y-111159500D01*
X68477323Y-111139498D01*
X68445482Y-111110204D01*
X68417647Y-111073929D01*
X68412621Y-111067379D01*
X68297625Y-110979139D01*
X68163709Y-110923670D01*
X68020000Y-110904750D01*
X67876291Y-110923670D01*
X67742375Y-110979139D01*
X67627379Y-111067379D01*
X67539139Y-111182375D01*
X67483670Y-111316291D01*
X67464750Y-111460000D01*
X65904971Y-111460000D01*
X83332103Y-94032868D01*
X83394415Y-93998842D01*
X83437644Y-93997041D01*
X83491811Y-94004172D01*
X83491812Y-94004172D01*
X83500000Y-94005250D01*
X83643709Y-93986330D01*
X83777625Y-93930861D01*
X83892621Y-93842621D01*
X83980861Y-93727625D01*
X84036330Y-93593709D01*
X84055250Y-93450000D01*
X84036330Y-93306291D01*
X83980861Y-93172375D01*
X83892621Y-93057379D01*
X83777625Y-92969139D01*
X83768381Y-92965310D01*
X83766035Y-92964338D01*
X83763208Y-92962060D01*
X83762841Y-92961848D01*
X83762874Y-92961791D01*
X83710754Y-92919791D01*
X83688332Y-92852428D01*
X83705889Y-92783636D01*
X83753505Y-92739303D01*
X83752841Y-92738152D01*
X83757844Y-92735263D01*
X83757851Y-92735257D01*
X83757871Y-92735248D01*
X83759996Y-92734021D01*
X83767625Y-92730861D01*
X83882621Y-92642621D01*
X83970861Y-92527625D01*
X84026330Y-92393709D01*
X84045250Y-92250000D01*
X84026330Y-92106291D01*
X83970861Y-91972375D01*
X83882621Y-91857379D01*
X83767625Y-91769139D01*
X83645322Y-91718480D01*
X83590041Y-91673932D01*
X83567620Y-91606569D01*
X83585178Y-91537777D01*
X83637140Y-91489399D01*
X83645322Y-91485662D01*
X83673315Y-91474067D01*
X83777625Y-91430861D01*
X83892621Y-91342621D01*
X83980861Y-91227625D01*
X84036330Y-91093709D01*
X84055250Y-90950000D01*
X84036330Y-90806291D01*
X83980861Y-90672375D01*
X83892621Y-90557379D01*
X83777625Y-90469139D01*
X83645322Y-90414338D01*
X83590041Y-90369790D01*
X83567620Y-90302427D01*
X83585178Y-90233635D01*
X83637140Y-90185257D01*
X83645322Y-90181520D01*
X83682182Y-90166252D01*
X83767625Y-90130861D01*
X83882621Y-90042621D01*
X83970861Y-89927625D01*
X84026330Y-89793709D01*
X84045250Y-89650000D01*
X84026330Y-89506291D01*
X83970861Y-89372375D01*
X83882621Y-89257379D01*
X83767625Y-89169139D01*
X83731892Y-89154338D01*
X83676611Y-89109790D01*
X83654190Y-89042427D01*
X83671748Y-88973635D01*
X83723710Y-88925257D01*
X83731892Y-88921520D01*
X83737913Y-88919026D01*
X83757625Y-88910861D01*
X83872621Y-88822621D01*
X83960861Y-88707625D01*
X84016330Y-88573709D01*
X84035250Y-88430000D01*
X84016330Y-88286291D01*
X83960861Y-88152375D01*
X83872621Y-88037379D01*
X83757625Y-87949139D01*
X83749998Y-87945980D01*
X83749993Y-87945977D01*
X83676536Y-87915551D01*
X83621254Y-87871003D01*
X83598833Y-87803640D01*
X83616391Y-87734849D01*
X83668353Y-87686470D01*
X83676536Y-87682733D01*
X83769993Y-87644023D01*
X83769998Y-87644020D01*
X83777625Y-87640861D01*
X83892621Y-87552621D01*
X83980861Y-87437625D01*
X84036330Y-87303709D01*
X84055250Y-87160000D01*
X84036330Y-87016291D01*
X83980861Y-86882375D01*
X83892621Y-86767379D01*
X83777625Y-86679139D01*
X83643709Y-86623670D01*
X83644150Y-86622606D01*
X83590255Y-86589755D01*
X83559233Y-86525894D01*
X83567662Y-86455399D01*
X83612866Y-86400653D01*
X83643792Y-86386530D01*
X83643709Y-86386330D01*
X83649301Y-86384014D01*
X83649307Y-86384011D01*
X83777625Y-86330861D01*
X83892621Y-86242621D01*
X83980861Y-86127625D01*
X84036330Y-85993709D01*
X84055250Y-85850000D01*
X84036330Y-85706291D01*
X83980861Y-85572375D01*
X83892621Y-85457379D01*
X83777625Y-85369139D01*
X83720678Y-85345551D01*
X83665397Y-85301003D01*
X83642976Y-85233640D01*
X83660534Y-85164848D01*
X83712496Y-85116470D01*
X83720679Y-85112733D01*
X83789993Y-85084023D01*
X83789998Y-85084020D01*
X83797625Y-85080861D01*
X83912621Y-84992621D01*
X84000861Y-84877625D01*
X84056330Y-84743709D01*
X84075250Y-84600000D01*
X84056330Y-84456291D01*
X84000861Y-84322375D01*
X83912621Y-84207379D01*
X83797625Y-84119139D01*
X83663709Y-84063670D01*
X83520000Y-84044750D01*
X83376291Y-84063670D01*
X83242375Y-84119139D01*
X83220235Y-84136128D01*
X83133932Y-84202350D01*
X83133929Y-84202353D01*
X83127379Y-84207379D01*
X83122353Y-84213929D01*
X83122348Y-84213934D01*
X83085319Y-84262191D01*
X83032389Y-84300839D01*
X83032791Y-84301775D01*
X83024973Y-84305133D01*
X83005787Y-84310962D01*
X83001384Y-84312661D01*
X82989947Y-84314791D01*
X82980046Y-84320894D01*
X82980043Y-84320895D01*
X82968956Y-84327729D01*
X82952585Y-84336233D01*
X82938106Y-84342454D01*
X82938103Y-84342456D01*
X82929938Y-84345964D01*
X82925051Y-84349977D01*
X82922856Y-84352172D01*
X82920586Y-84354230D01*
X82920439Y-84354068D01*
X82911461Y-84361165D01*
X82904554Y-84367428D01*
X82894652Y-84373532D01*
X82887611Y-84382792D01*
X82878094Y-84395307D01*
X82866893Y-84408135D01*
X65272434Y-102002595D01*
X65210122Y-102036621D01*
X65183339Y-102039500D01*
X54986000Y-102039500D01*
X54917879Y-102019498D01*
X54871386Y-101965842D01*
X54860000Y-101913500D01*
X54860000Y-100226500D01*
X54880002Y-100158379D01*
X54933658Y-100111886D01*
X54986000Y-100100500D01*
X61947634Y-100100500D01*
X61950307Y-100100696D01*
X61955342Y-100102425D01*
X61966964Y-100101989D01*
X61966966Y-100101989D01*
X62004255Y-100100589D01*
X62008981Y-100100500D01*
X62027948Y-100100500D01*
X62032683Y-100099618D01*
X62036209Y-100099390D01*
X62039949Y-100099249D01*
X62067208Y-100098226D01*
X62077893Y-100093636D01*
X62082493Y-100092599D01*
X62094214Y-100089038D01*
X62098617Y-100087339D01*
X62110053Y-100085209D01*
X62131041Y-100072272D01*
X62147411Y-100063769D01*
X62161888Y-100057549D01*
X62161892Y-100057547D01*
X62170063Y-100054036D01*
X62174949Y-100050022D01*
X62177134Y-100047837D01*
X62179397Y-100045785D01*
X62179542Y-100045945D01*
X62188549Y-100038825D01*
X62195444Y-100032573D01*
X62205348Y-100026468D01*
X62221916Y-100004680D01*
X62233110Y-99991861D01*
X63837566Y-98387405D01*
X63899878Y-98353379D01*
X63926661Y-98350500D01*
X67467634Y-98350500D01*
X67470307Y-98350696D01*
X67475342Y-98352425D01*
X67486964Y-98351989D01*
X67486966Y-98351989D01*
X67524255Y-98350589D01*
X67528981Y-98350500D01*
X67547948Y-98350500D01*
X67552683Y-98349618D01*
X67556209Y-98349390D01*
X67559949Y-98349249D01*
X67587208Y-98348226D01*
X67597893Y-98343636D01*
X67602493Y-98342599D01*
X67614214Y-98339038D01*
X67618617Y-98337339D01*
X67630053Y-98335209D01*
X67651041Y-98322272D01*
X67667411Y-98313769D01*
X67681888Y-98307549D01*
X67681892Y-98307547D01*
X67690063Y-98304036D01*
X67694949Y-98300022D01*
X67697134Y-98297837D01*
X67699397Y-98295785D01*
X67699542Y-98295945D01*
X67708549Y-98288825D01*
X67715444Y-98282573D01*
X67725348Y-98276468D01*
X67732390Y-98267208D01*
X67741007Y-98259394D01*
X67741803Y-98260271D01*
X67789540Y-98225092D01*
X67849131Y-98218553D01*
X67900000Y-98225250D01*
X68043709Y-98206330D01*
X68177625Y-98150861D01*
X68292621Y-98062621D01*
X68380861Y-97947625D01*
X68436330Y-97813709D01*
X68455250Y-97670000D01*
X68436330Y-97526291D01*
X68380861Y-97392375D01*
X68292621Y-97277379D01*
X68177625Y-97189139D01*
X68043709Y-97133670D01*
X67900000Y-97114750D01*
X67756291Y-97133670D01*
X67622375Y-97189139D01*
X67507379Y-97277379D01*
X67419139Y-97392375D01*
X67363670Y-97526291D01*
X67359243Y-97559915D01*
X67348707Y-97639946D01*
X67319985Y-97704873D01*
X67260720Y-97743965D01*
X67223785Y-97749500D01*
X66754372Y-97749500D01*
X66686251Y-97729498D01*
X66639758Y-97675842D01*
X66629654Y-97605568D01*
X66646939Y-97557666D01*
X66657629Y-97540222D01*
X66657630Y-97540219D01*
X66661597Y-97533746D01*
X66713145Y-97372225D01*
X66724678Y-97203070D01*
X66702376Y-97075287D01*
X66700500Y-97053625D01*
X66700500Y-78076001D01*
X66720502Y-78007880D01*
X66774158Y-77961387D01*
X66826500Y-77950001D01*
X85942525Y-77950001D01*
X86068329Y-77934777D01*
X86226932Y-77874846D01*
X86366660Y-77778813D01*
X86371713Y-77773142D01*
X86474397Y-77657893D01*
X86474399Y-77657889D01*
X86479449Y-77652222D01*
X86558785Y-77502382D01*
X86600090Y-77337942D01*
X86600978Y-77168396D01*
X86561397Y-77003533D01*
X86537674Y-76957569D01*
X86487117Y-76859618D01*
X86487117Y-76859617D01*
X86483634Y-76852870D01*
X86372178Y-76725105D01*
X86313658Y-76683976D01*
X86239679Y-76631983D01*
X86239677Y-76631982D01*
X86233462Y-76627614D01*
X86075496Y-76566025D01*
X86067963Y-76565033D01*
X86067962Y-76565033D01*
X85950270Y-76549539D01*
X85950269Y-76549539D01*
X85946183Y-76549001D01*
X76026500Y-76549001D01*
X75958379Y-76528999D01*
X75911886Y-76475343D01*
X75900500Y-76423001D01*
X75900500Y-72642346D01*
X75920502Y-72574225D01*
X75937405Y-72553251D01*
X76470878Y-72019778D01*
X76533190Y-71985752D01*
X76604005Y-71990817D01*
X76660841Y-72033364D01*
X76684097Y-72087209D01*
X76697624Y-72164711D01*
X76699500Y-72186375D01*
X76699500Y-75581281D01*
X76699498Y-75581941D01*
X76699031Y-75671105D01*
X76700804Y-75678489D01*
X76707697Y-75707203D01*
X76710265Y-75721477D01*
X76714724Y-75758320D01*
X76717409Y-75765427D01*
X76717410Y-75765429D01*
X76726308Y-75788978D01*
X76730960Y-75804099D01*
X76736839Y-75828584D01*
X76738612Y-75835968D01*
X76742092Y-75842710D01*
X76742094Y-75842716D01*
X76755634Y-75868949D01*
X76761534Y-75882199D01*
X76774655Y-75916923D01*
X76786669Y-75934403D01*
X76793219Y-75943933D01*
X76801346Y-75957513D01*
X76812889Y-75979877D01*
X76816375Y-75986631D01*
X76821370Y-75992356D01*
X76821370Y-75992357D01*
X76840773Y-76014599D01*
X76849664Y-76026061D01*
X76859793Y-76040798D01*
X76870688Y-76056651D01*
X76895157Y-76078452D01*
X76906283Y-76089695D01*
X76927831Y-76114396D01*
X76958205Y-76135743D01*
X76969567Y-76144749D01*
X76991606Y-76164386D01*
X76991608Y-76164388D01*
X76997279Y-76169440D01*
X77003993Y-76172995D01*
X77026241Y-76184775D01*
X77039730Y-76193041D01*
X77060334Y-76207521D01*
X77060337Y-76207523D01*
X77066547Y-76211887D01*
X77101124Y-76225368D01*
X77114313Y-76231407D01*
X77140404Y-76245222D01*
X77140414Y-76245226D01*
X77147119Y-76248776D01*
X77154481Y-76250625D01*
X77154483Y-76250626D01*
X77178904Y-76256760D01*
X77193973Y-76261569D01*
X77224513Y-76273476D01*
X77232040Y-76274467D01*
X77261312Y-76278321D01*
X77275559Y-76281039D01*
X77300916Y-76287408D01*
X77311559Y-76290081D01*
X77319158Y-76290121D01*
X77319160Y-76290121D01*
X77351234Y-76290289D01*
X77352587Y-76290337D01*
X77353826Y-76290500D01*
X77391281Y-76290500D01*
X77391941Y-76290502D01*
X77481105Y-76290969D01*
X77482609Y-76290608D01*
X77484481Y-76290500D01*
X91047653Y-76290500D01*
X91115774Y-76310502D01*
X91136749Y-76327405D01*
X91734735Y-76925392D01*
X91834457Y-77003584D01*
X91988984Y-77073355D01*
X92155692Y-77104252D01*
X92163272Y-77103815D01*
X92163273Y-77103815D01*
X92194499Y-77102015D01*
X92324959Y-77094493D01*
X92487011Y-77044639D01*
X92632495Y-76957569D01*
X92637888Y-76952232D01*
X92637892Y-76952229D01*
X92693914Y-76896790D01*
X92753010Y-76838310D01*
X92841598Y-76693746D01*
X92882676Y-76565033D01*
X92890836Y-76539464D01*
X92890836Y-76539462D01*
X92893146Y-76532225D01*
X92897024Y-76475343D01*
X92904162Y-76370646D01*
X92904162Y-76370642D01*
X92904678Y-76363070D01*
X92875527Y-76196046D01*
X92872209Y-76188486D01*
X92810431Y-76047751D01*
X92807379Y-76040798D01*
X92791478Y-76020075D01*
X92743471Y-75957513D01*
X92727978Y-75937322D01*
X91905576Y-75114919D01*
X91899723Y-75108653D01*
X91867165Y-75071331D01*
X91862169Y-75065604D01*
X91810527Y-75029310D01*
X91805242Y-75025384D01*
X91761524Y-74991105D01*
X91761520Y-74991103D01*
X91755543Y-74986416D01*
X91748620Y-74983290D01*
X91745672Y-74981505D01*
X91732712Y-74974113D01*
X91729666Y-74972480D01*
X91723453Y-74968113D01*
X91664633Y-74945180D01*
X91658554Y-74942624D01*
X91601016Y-74916645D01*
X91593545Y-74915260D01*
X91590277Y-74914236D01*
X91575836Y-74910123D01*
X91572563Y-74909283D01*
X91565487Y-74906524D01*
X91520817Y-74900644D01*
X91502894Y-74898284D01*
X91496377Y-74897252D01*
X91441775Y-74887132D01*
X91434308Y-74885748D01*
X91426728Y-74886185D01*
X91426727Y-74886185D01*
X91372856Y-74889291D01*
X91365604Y-74889500D01*
X78226500Y-74889500D01*
X78158379Y-74869498D01*
X78111886Y-74815842D01*
X78100500Y-74763500D01*
X78100500Y-72048637D01*
X78100792Y-72040066D01*
X78102175Y-72019778D01*
X78104678Y-71983070D01*
X78103373Y-71975594D01*
X78103373Y-71975590D01*
X78093822Y-71920868D01*
X78092859Y-71914342D01*
X78086189Y-71859226D01*
X78085276Y-71851680D01*
X78082591Y-71844573D01*
X78081782Y-71841280D01*
X78077823Y-71826809D01*
X78076834Y-71823533D01*
X78075527Y-71816046D01*
X78064213Y-71790271D01*
X78050154Y-71758242D01*
X78047662Y-71752137D01*
X78037208Y-71724472D01*
X78025345Y-71693077D01*
X78021047Y-71686824D01*
X78019463Y-71683793D01*
X78012183Y-71670716D01*
X78010433Y-71667757D01*
X78007378Y-71660797D01*
X78002753Y-71654770D01*
X78002751Y-71654766D01*
X77968938Y-71610700D01*
X77965073Y-71605381D01*
X77929312Y-71553349D01*
X77883351Y-71512399D01*
X77878076Y-71507419D01*
X77845265Y-71474608D01*
X77812278Y-71448743D01*
X77809240Y-71446203D01*
X77808396Y-71445616D01*
X77802721Y-71440560D01*
X77802720Y-71440559D01*
X77802716Y-71440556D01*
X77802923Y-71440324D01*
X77800974Y-71437903D01*
X77800014Y-71439127D01*
X77751517Y-71401100D01*
X77751516Y-71401099D01*
X77745543Y-71396416D01*
X77591016Y-71326645D01*
X77476964Y-71305507D01*
X77466254Y-71303522D01*
X77402919Y-71271441D01*
X77366982Y-71210211D01*
X77369854Y-71139273D01*
X77400120Y-71090537D01*
X78525392Y-69965265D01*
X78603584Y-69865543D01*
X78673355Y-69711016D01*
X78704252Y-69544308D01*
X78694493Y-69375041D01*
X78644639Y-69212989D01*
X78557569Y-69067505D01*
X78552232Y-69062112D01*
X78552229Y-69062108D01*
X78473544Y-68982595D01*
X78438310Y-68946990D01*
X78293746Y-68858402D01*
X78184907Y-68823667D01*
X78139464Y-68809164D01*
X78139462Y-68809164D01*
X78132225Y-68806854D01*
X78124645Y-68806337D01*
X78124644Y-68806337D01*
X77970646Y-68795838D01*
X77970642Y-68795838D01*
X77963070Y-68795322D01*
X77955593Y-68796627D01*
X77955592Y-68796627D01*
X77849618Y-68815123D01*
X77796046Y-68824473D01*
X77789097Y-68827524D01*
X77789095Y-68827524D01*
X77752224Y-68843709D01*
X77640798Y-68892621D01*
X77634774Y-68897243D01*
X77634773Y-68897244D01*
X77540593Y-68969512D01*
X77537322Y-68972022D01*
X74724928Y-71784416D01*
X74718661Y-71790271D01*
X74681326Y-71822839D01*
X74681324Y-71822841D01*
X74675604Y-71827831D01*
X74647531Y-71867775D01*
X74639317Y-71879463D01*
X74635384Y-71884758D01*
X74601105Y-71928476D01*
X74601103Y-71928480D01*
X74596416Y-71934457D01*
X74593290Y-71941380D01*
X74591505Y-71944328D01*
X74584113Y-71957288D01*
X74582480Y-71960334D01*
X74578113Y-71966547D01*
X74557359Y-72019778D01*
X74555180Y-72025366D01*
X74552625Y-72031445D01*
X74526645Y-72088984D01*
X74525260Y-72096455D01*
X74524236Y-72099723D01*
X74520123Y-72114164D01*
X74519283Y-72117437D01*
X74516524Y-72124513D01*
X74515533Y-72132043D01*
X74508284Y-72187106D01*
X74507252Y-72193623D01*
X74495748Y-72255692D01*
X74496185Y-72263272D01*
X74496185Y-72263273D01*
X74499291Y-72317144D01*
X74499500Y-72324396D01*
X74499500Y-76423001D01*
X74479498Y-76491122D01*
X74425842Y-76537615D01*
X74373500Y-76549001D01*
X66826500Y-76549001D01*
X66758379Y-76528999D01*
X66711886Y-76475343D01*
X66700500Y-76423001D01*
X66700500Y-70828641D01*
X66700792Y-70820071D01*
X66704162Y-70770646D01*
X66704162Y-70770642D01*
X66704678Y-70763070D01*
X66703373Y-70755591D01*
X66693822Y-70700868D01*
X66692859Y-70694342D01*
X66686189Y-70639226D01*
X66685276Y-70631680D01*
X66682591Y-70624573D01*
X66681782Y-70621280D01*
X66677823Y-70606809D01*
X66676834Y-70603533D01*
X66675527Y-70596046D01*
X66672472Y-70589086D01*
X66650153Y-70538240D01*
X66647661Y-70532134D01*
X66628030Y-70480182D01*
X66628029Y-70480180D01*
X66625345Y-70473077D01*
X66621046Y-70466822D01*
X66619465Y-70463797D01*
X66612175Y-70450701D01*
X66610434Y-70447757D01*
X66607379Y-70440798D01*
X66568958Y-70390727D01*
X66565081Y-70385391D01*
X66533619Y-70339614D01*
X66533614Y-70339608D01*
X66529312Y-70333349D01*
X66483342Y-70292391D01*
X66478067Y-70287411D01*
X58337405Y-62146748D01*
X58303379Y-62084436D01*
X58300500Y-62057653D01*
X58300500Y-51157484D01*
X58285276Y-51031680D01*
X58225345Y-50873077D01*
X58129312Y-50733349D01*
X58123641Y-50728296D01*
X58008392Y-50625612D01*
X58008388Y-50625610D01*
X58002721Y-50620560D01*
X57852881Y-50541224D01*
X57688441Y-50499919D01*
X57680843Y-50499879D01*
X57680841Y-50499879D01*
X57608441Y-50499500D01*
X57518895Y-50499031D01*
X57511513Y-50500803D01*
X57503960Y-50501677D01*
X57503839Y-50500628D01*
X57468726Y-50502469D01*
X57446174Y-50499500D01*
X54986000Y-50499500D01*
X54917879Y-50479498D01*
X54871386Y-50425842D01*
X54860000Y-50373500D01*
X54860000Y-49426500D01*
X54880002Y-49358379D01*
X54933658Y-49311886D01*
X54986000Y-49300500D01*
X57642516Y-49300500D01*
X57768320Y-49285276D01*
X57926923Y-49225345D01*
X57933181Y-49221044D01*
X58060392Y-49133614D01*
X58060393Y-49133613D01*
X58066651Y-49129312D01*
X58071704Y-49123641D01*
X58174388Y-49008392D01*
X58174390Y-49008388D01*
X58179440Y-49002721D01*
X58258776Y-48852881D01*
X58300081Y-48688441D01*
X58300969Y-48518895D01*
X58261388Y-48354032D01*
X58249615Y-48331221D01*
X58187108Y-48210117D01*
X58187108Y-48210116D01*
X58183625Y-48203369D01*
X58178313Y-48197279D01*
X58077163Y-48081329D01*
X58072169Y-48075604D01*
X58013649Y-48034475D01*
X57939670Y-47982482D01*
X57939668Y-47982481D01*
X57933453Y-47978113D01*
X57775487Y-47916524D01*
X57767954Y-47915532D01*
X57767953Y-47915532D01*
X57650261Y-47900038D01*
X57650260Y-47900038D01*
X57646174Y-47899500D01*
X54986000Y-47899500D01*
X54917879Y-47879498D01*
X54871386Y-47825842D01*
X54860000Y-47773500D01*
X54860000Y-45988113D01*
X177594527Y-45988113D01*
X177613162Y-46355971D01*
X177613699Y-46359326D01*
X177613700Y-46359332D01*
X177654038Y-46611170D01*
X177671416Y-46719665D01*
X177768608Y-47074941D01*
X177903602Y-47417642D01*
X178074817Y-47743759D01*
X178076718Y-47746588D01*
X178076724Y-47746598D01*
X178189701Y-47914724D01*
X178280252Y-48049477D01*
X178517502Y-48331221D01*
X178620006Y-48429176D01*
X178781329Y-48583341D01*
X178781336Y-48583347D01*
X178783792Y-48585694D01*
X179076008Y-48809919D01*
X179390731Y-49001274D01*
X179724279Y-49157519D01*
X179727497Y-49158621D01*
X179727500Y-49158622D01*
X180069528Y-49275725D01*
X180069536Y-49275727D01*
X180072751Y-49276828D01*
X180432070Y-49357804D01*
X180515002Y-49367253D01*
X180794650Y-49399115D01*
X180794658Y-49399115D01*
X180798033Y-49399500D01*
X180801437Y-49399518D01*
X180801440Y-49399518D01*
X181001074Y-49400563D01*
X181166358Y-49401428D01*
X181169744Y-49401078D01*
X181169746Y-49401078D01*
X181529345Y-49363918D01*
X181529354Y-49363917D01*
X181532737Y-49363567D01*
X181536070Y-49362853D01*
X181536073Y-49362852D01*
X181773807Y-49311886D01*
X181892884Y-49286358D01*
X182242586Y-49170705D01*
X182577752Y-49017961D01*
X182844481Y-48859589D01*
X182891516Y-48831662D01*
X182891521Y-48831659D01*
X182894461Y-48829913D01*
X182921091Y-48809919D01*
X183186276Y-48610812D01*
X183189009Y-48608760D01*
X183457950Y-48357089D01*
X183698138Y-48077846D01*
X183715838Y-48052093D01*
X183810248Y-47914724D01*
X183906762Y-47774295D01*
X183908374Y-47771301D01*
X183908379Y-47771293D01*
X184079761Y-47453001D01*
X184081383Y-47449989D01*
X184219958Y-47108720D01*
X184320865Y-46754482D01*
X184382925Y-46391418D01*
X184384888Y-46359332D01*
X184405301Y-46025572D01*
X184405411Y-46023775D01*
X184405494Y-46000000D01*
X184385575Y-45632209D01*
X184326052Y-45268720D01*
X184227620Y-44913786D01*
X184224443Y-44905801D01*
X184092690Y-44574722D01*
X184091431Y-44571558D01*
X184061358Y-44514760D01*
X183920677Y-44249060D01*
X183920673Y-44249053D01*
X183919078Y-44246041D01*
X183712578Y-43941041D01*
X183474346Y-43660128D01*
X183207168Y-43406586D01*
X182914172Y-43183382D01*
X182911260Y-43181625D01*
X182911255Y-43181622D01*
X182601705Y-42994889D01*
X182601696Y-42994884D01*
X182598783Y-42993127D01*
X182595693Y-42991693D01*
X182595688Y-42991690D01*
X182431737Y-42915587D01*
X182264691Y-42838047D01*
X182261466Y-42836955D01*
X182261460Y-42836953D01*
X181919032Y-42721048D01*
X181919027Y-42721047D01*
X181915805Y-42719956D01*
X181681920Y-42668104D01*
X181559536Y-42640972D01*
X181559532Y-42640971D01*
X181556206Y-42640234D01*
X181406624Y-42623720D01*
X181193482Y-42600189D01*
X181193475Y-42600189D01*
X181190100Y-42599816D01*
X181186701Y-42599810D01*
X181186700Y-42599810D01*
X181012979Y-42599507D01*
X180821770Y-42599173D01*
X180701623Y-42612013D01*
X180458910Y-42637951D01*
X180458904Y-42637952D01*
X180455526Y-42638313D01*
X180095650Y-42716779D01*
X179746354Y-42833652D01*
X179743261Y-42835075D01*
X179743260Y-42835075D01*
X179733674Y-42839484D01*
X179411723Y-42987565D01*
X179408789Y-42989321D01*
X179408787Y-42989322D01*
X179389746Y-43000718D01*
X179095672Y-43176718D01*
X178801898Y-43398897D01*
X178533837Y-43651505D01*
X178294626Y-43931585D01*
X178292698Y-43934412D01*
X178292696Y-43934414D01*
X178286251Y-43943862D01*
X178087062Y-44235862D01*
X177913574Y-44560776D01*
X177912299Y-44563948D01*
X177912297Y-44563952D01*
X177909240Y-44571558D01*
X177776192Y-44902526D01*
X177676521Y-45257115D01*
X177675959Y-45260472D01*
X177675959Y-45260473D01*
X177674015Y-45272093D01*
X177615729Y-45620393D01*
X177594527Y-45988113D01*
X54860000Y-45988113D01*
X54860000Y-40904890D01*
X54880002Y-40836769D01*
X54884796Y-40829832D01*
X55059260Y-40594595D01*
X55067104Y-40585037D01*
X55309191Y-40317935D01*
X55317929Y-40309196D01*
X55585052Y-40067089D01*
X55594589Y-40059264D01*
X55884136Y-39844521D01*
X55894417Y-39837651D01*
X56203617Y-39652323D01*
X56214518Y-39646496D01*
X56313556Y-39599655D01*
X56540407Y-39492363D01*
X56551831Y-39487632D01*
X56891228Y-39366193D01*
X56903060Y-39362603D01*
X57076923Y-39319052D01*
X57252756Y-39275008D01*
X57264878Y-39272598D01*
X57621466Y-39219704D01*
X57633760Y-39218493D01*
X57926710Y-39204100D01*
X57963806Y-39202278D01*
X57971622Y-39202971D01*
X57971623Y-39202451D01*
X57985812Y-39202476D01*
X57999641Y-39205656D01*
X58013480Y-39202525D01*
X58018311Y-39202533D01*
X58036504Y-39200500D01*
X180962920Y-39200500D01*
X180980242Y-39202466D01*
G37*
%TD.AperFunction*%
%TA.AperFunction,Conductor*%
G36*
X82428184Y-159600953D02*
G01*
X82485020Y-159643500D01*
X82509831Y-159710020D01*
X82500561Y-159767227D01*
X82463670Y-159856291D01*
X82444750Y-160000000D01*
X82445828Y-160008187D01*
X82451796Y-160053517D01*
X82440857Y-160123666D01*
X82415969Y-160159059D01*
X79612434Y-162962595D01*
X79550122Y-162996621D01*
X79523339Y-162999500D01*
X54986000Y-162999500D01*
X54917879Y-162979498D01*
X54871386Y-162925842D01*
X54860000Y-162873500D01*
X54860000Y-161186500D01*
X54880002Y-161118379D01*
X54933658Y-161071886D01*
X54986000Y-161060500D01*
X80687634Y-161060500D01*
X80690307Y-161060696D01*
X80695342Y-161062425D01*
X80706964Y-161061989D01*
X80706966Y-161061989D01*
X80744255Y-161060589D01*
X80748981Y-161060500D01*
X80767948Y-161060500D01*
X80772683Y-161059618D01*
X80776209Y-161059390D01*
X80779949Y-161059249D01*
X80807208Y-161058226D01*
X80817893Y-161053636D01*
X80822493Y-161052599D01*
X80834214Y-161049038D01*
X80838617Y-161047339D01*
X80850053Y-161045209D01*
X80871041Y-161032272D01*
X80887411Y-161023769D01*
X80901888Y-161017549D01*
X80901892Y-161017547D01*
X80910063Y-161014036D01*
X80914949Y-161010022D01*
X80917134Y-161007837D01*
X80919397Y-161005785D01*
X80919542Y-161005945D01*
X80928549Y-160998825D01*
X80935444Y-160992573D01*
X80945348Y-160986468D01*
X80961916Y-160964680D01*
X80973110Y-160951861D01*
X82295057Y-159629914D01*
X82357369Y-159595888D01*
X82428184Y-159600953D01*
G37*
%TD.AperFunction*%
%TA.AperFunction,Conductor*%
G36*
X82428184Y-158100953D02*
G01*
X82485020Y-158143500D01*
X82509831Y-158210020D01*
X82500561Y-158267227D01*
X82463670Y-158356291D01*
X82444750Y-158500000D01*
X82447703Y-158522425D01*
X82451796Y-158553517D01*
X82440857Y-158623666D01*
X82415969Y-158659059D01*
X80652434Y-160422595D01*
X80590122Y-160456620D01*
X80563339Y-160459500D01*
X54986000Y-160459500D01*
X54917879Y-160439498D01*
X54871386Y-160385842D01*
X54860000Y-160333500D01*
X54860000Y-158646500D01*
X54880002Y-158578379D01*
X54933658Y-158531886D01*
X54986000Y-158520500D01*
X81727634Y-158520500D01*
X81730307Y-158520696D01*
X81735342Y-158522425D01*
X81746964Y-158521989D01*
X81746966Y-158521989D01*
X81784255Y-158520589D01*
X81788981Y-158520500D01*
X81807948Y-158520500D01*
X81812683Y-158519618D01*
X81816209Y-158519390D01*
X81819949Y-158519249D01*
X81847208Y-158518226D01*
X81857893Y-158513636D01*
X81862493Y-158512599D01*
X81874214Y-158509038D01*
X81878617Y-158507339D01*
X81890053Y-158505209D01*
X81911041Y-158492272D01*
X81927411Y-158483769D01*
X81941888Y-158477549D01*
X81941892Y-158477547D01*
X81950063Y-158474036D01*
X81954949Y-158470022D01*
X81957134Y-158467837D01*
X81959397Y-158465785D01*
X81959542Y-158465945D01*
X81968549Y-158458825D01*
X81975444Y-158452573D01*
X81985348Y-158446468D01*
X82001916Y-158424680D01*
X82013110Y-158411861D01*
X82295057Y-158129914D01*
X82357369Y-158095888D01*
X82428184Y-158100953D01*
G37*
%TD.AperFunction*%
%TA.AperFunction,Conductor*%
G36*
X80881450Y-150920502D02*
G01*
X80902424Y-150937405D01*
X82415969Y-152450951D01*
X82449995Y-152513263D01*
X82451796Y-152556491D01*
X82444750Y-152610010D01*
X82445828Y-152618198D01*
X82462067Y-152741541D01*
X82451128Y-152811690D01*
X82404000Y-152864789D01*
X82335646Y-152883979D01*
X82285692Y-152868168D01*
X82284082Y-152871802D01*
X82273448Y-152867090D01*
X82263854Y-152860508D01*
X82252535Y-152857822D01*
X82252533Y-152857821D01*
X82239873Y-152854817D01*
X82222276Y-152849252D01*
X82207638Y-152843412D01*
X82207635Y-152843411D01*
X82199378Y-152840117D01*
X82193085Y-152839500D01*
X82190006Y-152839500D01*
X82186933Y-152839350D01*
X82186944Y-152839134D01*
X82175569Y-152837802D01*
X82166254Y-152837346D01*
X82154934Y-152834660D01*
X82143405Y-152836229D01*
X82143404Y-152836229D01*
X82127827Y-152838349D01*
X82110836Y-152839500D01*
X54986000Y-152839500D01*
X54917879Y-152819498D01*
X54871386Y-152765842D01*
X54860000Y-152713500D01*
X54860000Y-151026500D01*
X54880002Y-150958379D01*
X54933658Y-150911886D01*
X54986000Y-150900500D01*
X80813329Y-150900500D01*
X80881450Y-150920502D01*
G37*
%TD.AperFunction*%
%TA.AperFunction,Conductor*%
G36*
X76351460Y-145840502D02*
G01*
X76372434Y-145857405D01*
X80599433Y-150084405D01*
X80633459Y-150146717D01*
X80628394Y-150217533D01*
X80585847Y-150274368D01*
X80519327Y-150299179D01*
X80510338Y-150299500D01*
X54986000Y-150299500D01*
X54917879Y-150279498D01*
X54871386Y-150225842D01*
X54860000Y-150173500D01*
X54860000Y-145946500D01*
X54880002Y-145878379D01*
X54933658Y-145831886D01*
X54986000Y-145820500D01*
X76283339Y-145820500D01*
X76351460Y-145840502D01*
G37*
%TD.AperFunction*%
%TA.AperFunction,Conductor*%
G36*
X62428184Y-137600953D02*
G01*
X62485020Y-137643500D01*
X62509831Y-137710020D01*
X62500561Y-137767227D01*
X62463670Y-137856291D01*
X62444750Y-138000000D01*
X62445828Y-138008187D01*
X62451796Y-138053518D01*
X62440857Y-138123667D01*
X62415969Y-138159060D01*
X57932434Y-142642595D01*
X57870122Y-142676621D01*
X57843339Y-142679500D01*
X54986000Y-142679500D01*
X54917879Y-142659498D01*
X54871386Y-142605842D01*
X54860000Y-142553500D01*
X54860000Y-140866500D01*
X54880002Y-140798379D01*
X54933658Y-140751886D01*
X54986000Y-140740500D01*
X59007634Y-140740500D01*
X59010307Y-140740696D01*
X59015342Y-140742425D01*
X59026964Y-140741989D01*
X59026966Y-140741989D01*
X59064255Y-140740589D01*
X59068981Y-140740500D01*
X59087948Y-140740500D01*
X59092683Y-140739618D01*
X59096209Y-140739390D01*
X59099949Y-140739249D01*
X59127208Y-140738226D01*
X59137893Y-140733636D01*
X59142493Y-140732599D01*
X59154214Y-140729038D01*
X59158617Y-140727339D01*
X59170053Y-140725209D01*
X59191041Y-140712272D01*
X59207411Y-140703769D01*
X59221888Y-140697549D01*
X59221892Y-140697547D01*
X59230063Y-140694036D01*
X59234949Y-140690022D01*
X59237134Y-140687837D01*
X59239397Y-140685785D01*
X59239542Y-140685945D01*
X59248549Y-140678825D01*
X59255444Y-140672573D01*
X59265348Y-140666468D01*
X59281916Y-140644680D01*
X59293110Y-140631861D01*
X62295057Y-137629914D01*
X62357369Y-137595888D01*
X62428184Y-137600953D01*
G37*
%TD.AperFunction*%
%TA.AperFunction,Conductor*%
G36*
X62428183Y-136100954D02*
G01*
X62485019Y-136143501D01*
X62509830Y-136210021D01*
X62500560Y-136267227D01*
X62466832Y-136348657D01*
X62463670Y-136356291D01*
X62444750Y-136500000D01*
X62445828Y-136508187D01*
X62451796Y-136553518D01*
X62440857Y-136623667D01*
X62415969Y-136659060D01*
X58972434Y-140102595D01*
X58910122Y-140136621D01*
X58883339Y-140139500D01*
X54986000Y-140139500D01*
X54917879Y-140119498D01*
X54871386Y-140065842D01*
X54860000Y-140013500D01*
X54860000Y-138326500D01*
X54880002Y-138258379D01*
X54933658Y-138211886D01*
X54986000Y-138200500D01*
X60047634Y-138200500D01*
X60050307Y-138200696D01*
X60055342Y-138202425D01*
X60066964Y-138201989D01*
X60066966Y-138201989D01*
X60104255Y-138200589D01*
X60108981Y-138200500D01*
X60127948Y-138200500D01*
X60132683Y-138199618D01*
X60136209Y-138199390D01*
X60139949Y-138199249D01*
X60167208Y-138198226D01*
X60177893Y-138193636D01*
X60182493Y-138192599D01*
X60194214Y-138189038D01*
X60198617Y-138187339D01*
X60210053Y-138185209D01*
X60231041Y-138172272D01*
X60247411Y-138163769D01*
X60261888Y-138157549D01*
X60261892Y-138157547D01*
X60270063Y-138154036D01*
X60274949Y-138150022D01*
X60277134Y-138147837D01*
X60279397Y-138145785D01*
X60279542Y-138145945D01*
X60288549Y-138138825D01*
X60295444Y-138132573D01*
X60305348Y-138126468D01*
X60321916Y-138104680D01*
X60333110Y-138091861D01*
X61538900Y-136886071D01*
X62295058Y-136129914D01*
X62357368Y-136095889D01*
X62428183Y-136100954D01*
G37*
%TD.AperFunction*%
%TA.AperFunction,Conductor*%
G36*
X62428185Y-134600954D02*
G01*
X62485020Y-134643501D01*
X62509831Y-134710021D01*
X62500561Y-134767226D01*
X62463670Y-134856291D01*
X62444750Y-135000000D01*
X62445828Y-135008187D01*
X62451796Y-135053518D01*
X62440857Y-135123667D01*
X62415969Y-135159060D01*
X60012434Y-137562595D01*
X59950122Y-137596621D01*
X59923339Y-137599500D01*
X54986000Y-137599500D01*
X54917879Y-137579498D01*
X54871386Y-137525842D01*
X54860000Y-137473500D01*
X54860000Y-135786500D01*
X54880002Y-135718379D01*
X54933658Y-135671886D01*
X54986000Y-135660500D01*
X61087634Y-135660500D01*
X61090307Y-135660696D01*
X61095342Y-135662425D01*
X61106964Y-135661989D01*
X61106966Y-135661989D01*
X61144255Y-135660589D01*
X61148981Y-135660500D01*
X61167948Y-135660500D01*
X61172683Y-135659618D01*
X61176209Y-135659390D01*
X61179949Y-135659249D01*
X61207208Y-135658226D01*
X61217893Y-135653636D01*
X61222493Y-135652599D01*
X61234214Y-135649038D01*
X61238617Y-135647339D01*
X61250053Y-135645209D01*
X61271041Y-135632272D01*
X61287411Y-135623769D01*
X61301888Y-135617549D01*
X61301892Y-135617547D01*
X61310063Y-135614036D01*
X61314949Y-135610022D01*
X61317134Y-135607837D01*
X61319397Y-135605785D01*
X61319542Y-135605945D01*
X61328549Y-135598825D01*
X61335444Y-135592573D01*
X61345348Y-135586468D01*
X61361916Y-135564680D01*
X61373103Y-135551868D01*
X62295058Y-134629913D01*
X62357369Y-134595889D01*
X62428185Y-134600954D01*
G37*
%TD.AperFunction*%
%TA.AperFunction,Conductor*%
G36*
X62480121Y-133098323D02*
G01*
X62517147Y-133158900D01*
X62515544Y-133229879D01*
X62511889Y-133239877D01*
X62467363Y-133347376D01*
X62463670Y-133356291D01*
X62444750Y-133500000D01*
X62445828Y-133508187D01*
X62451796Y-133553518D01*
X62440857Y-133623667D01*
X62415969Y-133659060D01*
X61052434Y-135022595D01*
X60990122Y-135056621D01*
X60963339Y-135059500D01*
X54986000Y-135059500D01*
X54917879Y-135039498D01*
X54871386Y-134985842D01*
X54860000Y-134933500D01*
X54860000Y-133246500D01*
X54880002Y-133178379D01*
X54933658Y-133131886D01*
X54986000Y-133120500D01*
X62127634Y-133120500D01*
X62130307Y-133120696D01*
X62135342Y-133122425D01*
X62146964Y-133121989D01*
X62146966Y-133121989D01*
X62184255Y-133120589D01*
X62188981Y-133120500D01*
X62207948Y-133120500D01*
X62212683Y-133119618D01*
X62216209Y-133119390D01*
X62219949Y-133119249D01*
X62247208Y-133118226D01*
X62257893Y-133113636D01*
X62262493Y-133112599D01*
X62274214Y-133109038D01*
X62278617Y-133107339D01*
X62290053Y-133105209D01*
X62311041Y-133092272D01*
X62327411Y-133083769D01*
X62345739Y-133075894D01*
X62416223Y-133067379D01*
X62480121Y-133098323D01*
G37*
%TD.AperFunction*%
%TA.AperFunction,Conductor*%
G36*
X60591460Y-125520502D02*
G01*
X60612434Y-125537405D01*
X62415969Y-127340941D01*
X62449995Y-127403253D01*
X62451796Y-127446481D01*
X62444750Y-127500000D01*
X62463670Y-127643709D01*
X62466831Y-127651340D01*
X62500561Y-127732773D01*
X62508150Y-127803363D01*
X62476370Y-127866850D01*
X62415312Y-127903077D01*
X62344361Y-127900543D01*
X62295057Y-127870086D01*
X61989519Y-127564548D01*
X61987763Y-127562514D01*
X61985425Y-127557731D01*
X61949523Y-127524427D01*
X61946118Y-127521147D01*
X61932723Y-127507752D01*
X61928753Y-127505028D01*
X61926105Y-127502703D01*
X61911881Y-127489508D01*
X61911878Y-127489506D01*
X61903354Y-127481599D01*
X61892550Y-127477289D01*
X61888561Y-127474767D01*
X61877773Y-127469006D01*
X61873448Y-127467089D01*
X61863854Y-127460508D01*
X61852535Y-127457822D01*
X61852533Y-127457821D01*
X61839873Y-127454817D01*
X61822276Y-127449252D01*
X61807638Y-127443412D01*
X61807635Y-127443411D01*
X61799378Y-127440117D01*
X61793085Y-127439500D01*
X61790006Y-127439500D01*
X61786933Y-127439350D01*
X61786944Y-127439134D01*
X61775569Y-127437802D01*
X61766254Y-127437346D01*
X61754934Y-127434660D01*
X61743405Y-127436229D01*
X61743404Y-127436229D01*
X61727827Y-127438349D01*
X61710836Y-127439500D01*
X54986000Y-127439500D01*
X54917879Y-127419498D01*
X54871386Y-127365842D01*
X54860000Y-127313500D01*
X54860000Y-125626500D01*
X54880002Y-125558379D01*
X54933658Y-125511886D01*
X54986000Y-125500500D01*
X60523339Y-125500500D01*
X60591460Y-125520502D01*
G37*
%TD.AperFunction*%
%TA.AperFunction,Conductor*%
G36*
X58468978Y-117834250D02*
G01*
X58514145Y-117889026D01*
X58522529Y-117959526D01*
X58487382Y-118027647D01*
X56732434Y-119782595D01*
X56670122Y-119816621D01*
X56643339Y-119819500D01*
X54986000Y-119819500D01*
X54917879Y-119799498D01*
X54871386Y-119745842D01*
X54860000Y-119693500D01*
X54860000Y-118006500D01*
X54880002Y-117938379D01*
X54933658Y-117891886D01*
X54986000Y-117880500D01*
X58107634Y-117880500D01*
X58110307Y-117880696D01*
X58115342Y-117882425D01*
X58126964Y-117881989D01*
X58126966Y-117881989D01*
X58164255Y-117880589D01*
X58168981Y-117880500D01*
X58187948Y-117880500D01*
X58192683Y-117879618D01*
X58196209Y-117879390D01*
X58199949Y-117879249D01*
X58227208Y-117878226D01*
X58237893Y-117873636D01*
X58242493Y-117872599D01*
X58254214Y-117869038D01*
X58258617Y-117867339D01*
X58270053Y-117865209D01*
X58291041Y-117852272D01*
X58307411Y-117843769D01*
X58321888Y-117837549D01*
X58321892Y-117837547D01*
X58330063Y-117834036D01*
X58334374Y-117830494D01*
X58401366Y-117812590D01*
X58468978Y-117834250D01*
G37*
%TD.AperFunction*%
%TA.AperFunction,Conductor*%
G36*
X82858442Y-92080695D02*
G01*
X82915278Y-92123242D01*
X82940089Y-92189762D01*
X82939332Y-92215197D01*
X82934750Y-92250000D01*
X82935828Y-92258187D01*
X82941796Y-92303518D01*
X82930857Y-92373667D01*
X82905969Y-92409060D01*
X58072434Y-117242595D01*
X58010122Y-117276621D01*
X57983339Y-117279500D01*
X54986000Y-117279500D01*
X54917879Y-117259498D01*
X54871386Y-117205842D01*
X54860000Y-117153500D01*
X54860000Y-115466500D01*
X54880002Y-115398379D01*
X54933658Y-115351886D01*
X54986000Y-115340500D01*
X59317634Y-115340500D01*
X59320307Y-115340696D01*
X59325342Y-115342425D01*
X59336964Y-115341989D01*
X59336966Y-115341989D01*
X59374255Y-115340589D01*
X59378981Y-115340500D01*
X59397948Y-115340500D01*
X59402683Y-115339618D01*
X59406209Y-115339390D01*
X59409949Y-115339249D01*
X59437208Y-115338226D01*
X59447893Y-115333636D01*
X59452493Y-115332599D01*
X59464214Y-115329038D01*
X59468617Y-115327339D01*
X59480053Y-115325209D01*
X59501041Y-115312272D01*
X59517411Y-115303769D01*
X59531888Y-115297549D01*
X59531892Y-115297547D01*
X59540063Y-115294036D01*
X59544949Y-115290022D01*
X59547134Y-115287837D01*
X59549397Y-115285785D01*
X59549542Y-115285945D01*
X59558549Y-115278825D01*
X59565444Y-115272573D01*
X59575348Y-115266468D01*
X59591916Y-115244680D01*
X59603110Y-115231861D01*
X82725315Y-92109656D01*
X82787627Y-92075630D01*
X82858442Y-92080695D01*
G37*
%TD.AperFunction*%
%TA.AperFunction,Conductor*%
G36*
X82866926Y-90792211D02*
G01*
X82923762Y-90834758D01*
X82948573Y-90901278D01*
X82947816Y-90926711D01*
X82944750Y-90950000D01*
X82945828Y-90958188D01*
X82945828Y-90958191D01*
X82947142Y-90968173D01*
X82936202Y-91038322D01*
X82911315Y-91073713D01*
X59282434Y-114702595D01*
X59220122Y-114736621D01*
X59193339Y-114739500D01*
X54986000Y-114739500D01*
X54917879Y-114719498D01*
X54871386Y-114665842D01*
X54860000Y-114613500D01*
X54860000Y-112926500D01*
X54880002Y-112858379D01*
X54933658Y-112811886D01*
X54986000Y-112800500D01*
X60577634Y-112800500D01*
X60580307Y-112800696D01*
X60585342Y-112802425D01*
X60596964Y-112801989D01*
X60596966Y-112801989D01*
X60634255Y-112800589D01*
X60638981Y-112800500D01*
X60657948Y-112800500D01*
X60662683Y-112799618D01*
X60666209Y-112799390D01*
X60669949Y-112799249D01*
X60697208Y-112798226D01*
X60707893Y-112793636D01*
X60712493Y-112792599D01*
X60724214Y-112789038D01*
X60728617Y-112787339D01*
X60740053Y-112785209D01*
X60761041Y-112772272D01*
X60777411Y-112763769D01*
X60791888Y-112757549D01*
X60791892Y-112757547D01*
X60800063Y-112754036D01*
X60804949Y-112750022D01*
X60807134Y-112747837D01*
X60809397Y-112745785D01*
X60809542Y-112745945D01*
X60818549Y-112738825D01*
X60825444Y-112732573D01*
X60835348Y-112726468D01*
X60851916Y-112704680D01*
X60863110Y-112691861D01*
X82733799Y-90821172D01*
X82796111Y-90787146D01*
X82866926Y-90792211D01*
G37*
%TD.AperFunction*%
%TA.AperFunction,Conductor*%
G36*
X62194804Y-110256807D02*
G01*
X62251955Y-110298929D01*
X62277261Y-110365262D01*
X62262686Y-110434747D01*
X62240747Y-110464282D01*
X60542434Y-112162595D01*
X60480122Y-112196621D01*
X60453339Y-112199500D01*
X54986000Y-112199500D01*
X54917879Y-112179498D01*
X54871386Y-112125842D01*
X54860000Y-112073500D01*
X54860000Y-110386500D01*
X54880002Y-110318379D01*
X54933658Y-110271886D01*
X54986000Y-110260500D01*
X61987634Y-110260500D01*
X61990307Y-110260696D01*
X61995342Y-110262425D01*
X62006964Y-110261989D01*
X62006966Y-110261989D01*
X62044255Y-110260589D01*
X62048981Y-110260500D01*
X62067948Y-110260500D01*
X62072683Y-110259618D01*
X62076209Y-110259390D01*
X62095581Y-110258663D01*
X62095583Y-110258662D01*
X62107208Y-110258226D01*
X62117897Y-110253634D01*
X62123953Y-110252269D01*
X62194804Y-110256807D01*
G37*
%TD.AperFunction*%
%TA.AperFunction,Conductor*%
G36*
X82860571Y-88168566D02*
G01*
X82917407Y-88211113D01*
X82942218Y-88277633D01*
X82941461Y-88303069D01*
X82924750Y-88430000D01*
X82925828Y-88438188D01*
X82925828Y-88438189D01*
X82942266Y-88563048D01*
X82931327Y-88633196D01*
X82906439Y-88668589D01*
X61952434Y-109622595D01*
X61890122Y-109656621D01*
X61863339Y-109659500D01*
X54986000Y-109659500D01*
X54917879Y-109639498D01*
X54871386Y-109585842D01*
X54860000Y-109533500D01*
X54860000Y-107846500D01*
X54880002Y-107778379D01*
X54933658Y-107731886D01*
X54986000Y-107720500D01*
X63027634Y-107720500D01*
X63030307Y-107720696D01*
X63035342Y-107722425D01*
X63046964Y-107721989D01*
X63046966Y-107721989D01*
X63084255Y-107720589D01*
X63088981Y-107720500D01*
X63107948Y-107720500D01*
X63112683Y-107719618D01*
X63116209Y-107719390D01*
X63119949Y-107719249D01*
X63147208Y-107718226D01*
X63157893Y-107713636D01*
X63162493Y-107712599D01*
X63174214Y-107709038D01*
X63178617Y-107707339D01*
X63190053Y-107705209D01*
X63211041Y-107692272D01*
X63227411Y-107683769D01*
X63241888Y-107677549D01*
X63241892Y-107677547D01*
X63250063Y-107674036D01*
X63254949Y-107670022D01*
X63257134Y-107667837D01*
X63259397Y-107665785D01*
X63259542Y-107665945D01*
X63268549Y-107658825D01*
X63275444Y-107652573D01*
X63285348Y-107646468D01*
X63301916Y-107624680D01*
X63313110Y-107611861D01*
X82727444Y-88197527D01*
X82789756Y-88163501D01*
X82860571Y-88168566D01*
G37*
%TD.AperFunction*%
%TA.AperFunction,Conductor*%
G36*
X83064659Y-86214479D02*
G01*
X83106339Y-86241266D01*
X83107379Y-86242621D01*
X83222375Y-86330861D01*
X83349466Y-86383503D01*
X83356291Y-86386330D01*
X83355850Y-86387394D01*
X83409745Y-86420245D01*
X83440767Y-86484106D01*
X83432338Y-86554601D01*
X83387134Y-86609347D01*
X83356208Y-86623470D01*
X83356291Y-86623670D01*
X83350699Y-86625986D01*
X83350693Y-86625989D01*
X83222375Y-86679139D01*
X83107379Y-86767379D01*
X83019139Y-86882375D01*
X82963670Y-87016291D01*
X82962592Y-87024480D01*
X82954839Y-87083368D01*
X82926116Y-87148295D01*
X82919012Y-87156016D01*
X62992434Y-107082595D01*
X62930122Y-107116621D01*
X62903339Y-107119500D01*
X54986000Y-107119500D01*
X54917879Y-107099498D01*
X54871386Y-107045842D01*
X54860000Y-106993500D01*
X54860000Y-105306500D01*
X54880002Y-105238379D01*
X54933658Y-105191886D01*
X54986000Y-105180500D01*
X63817634Y-105180500D01*
X63820307Y-105180696D01*
X63825342Y-105182425D01*
X63836964Y-105181989D01*
X63836966Y-105181989D01*
X63874255Y-105180589D01*
X63878981Y-105180500D01*
X63897948Y-105180500D01*
X63902683Y-105179618D01*
X63906209Y-105179390D01*
X63909949Y-105179249D01*
X63937208Y-105178226D01*
X63947893Y-105173636D01*
X63952493Y-105172599D01*
X63964214Y-105169038D01*
X63968617Y-105167339D01*
X63980053Y-105165209D01*
X64001041Y-105152272D01*
X64017411Y-105143769D01*
X64031888Y-105137549D01*
X64031892Y-105137547D01*
X64040063Y-105134036D01*
X64044949Y-105130022D01*
X64047134Y-105127837D01*
X64049397Y-105125785D01*
X64049542Y-105125945D01*
X64058549Y-105118825D01*
X64065444Y-105112573D01*
X64075348Y-105106468D01*
X64091916Y-105084680D01*
X64103110Y-105071861D01*
X82931532Y-86243440D01*
X82993844Y-86209414D01*
X83064659Y-86214479D01*
G37*
%TD.AperFunction*%
%TA.AperFunction,Conductor*%
G36*
X65310307Y-102640696D02*
G01*
X65315342Y-102642425D01*
X65326964Y-102641989D01*
X65326966Y-102641989D01*
X65364255Y-102640589D01*
X65368981Y-102640500D01*
X65380339Y-102640500D01*
X65448460Y-102660502D01*
X65494953Y-102714158D01*
X65505057Y-102784432D01*
X65475563Y-102849012D01*
X65469434Y-102855595D01*
X63782434Y-104542595D01*
X63720122Y-104576621D01*
X63693339Y-104579500D01*
X54986000Y-104579500D01*
X54917879Y-104559498D01*
X54871386Y-104505842D01*
X54860000Y-104453500D01*
X54860000Y-102766500D01*
X54880002Y-102698379D01*
X54933658Y-102651886D01*
X54986000Y-102640500D01*
X65307634Y-102640500D01*
X65310307Y-102640696D01*
G37*
%TD.AperFunction*%
%TA.AperFunction,Conductor*%
G36*
X56841621Y-51920502D02*
G01*
X56888114Y-51974158D01*
X56899500Y-52026500D01*
X56899500Y-62371359D01*
X56899208Y-62379929D01*
X56895322Y-62436930D01*
X56896627Y-62444406D01*
X56896627Y-62444409D01*
X56906178Y-62499132D01*
X56907141Y-62505658D01*
X56914724Y-62568320D01*
X56917409Y-62575427D01*
X56918218Y-62578720D01*
X56922177Y-62593191D01*
X56923166Y-62596467D01*
X56924473Y-62603954D01*
X56927528Y-62610913D01*
X56927528Y-62610914D01*
X56949847Y-62661760D01*
X56952339Y-62667866D01*
X56974655Y-62726923D01*
X56978954Y-62733178D01*
X56980535Y-62736203D01*
X56987825Y-62749299D01*
X56989566Y-62752243D01*
X56992621Y-62759202D01*
X56997246Y-62765230D01*
X56997247Y-62765231D01*
X57031042Y-62809273D01*
X57034919Y-62814609D01*
X57066381Y-62860386D01*
X57066386Y-62860392D01*
X57070688Y-62866651D01*
X57076362Y-62871706D01*
X57116657Y-62907608D01*
X57121933Y-62912589D01*
X65262595Y-71053252D01*
X65296621Y-71115564D01*
X65299500Y-71142347D01*
X65299500Y-97191359D01*
X65299208Y-97199929D01*
X65295322Y-97256930D01*
X65296627Y-97264406D01*
X65296627Y-97264409D01*
X65306178Y-97319132D01*
X65307141Y-97325658D01*
X65314724Y-97388320D01*
X65317409Y-97395427D01*
X65318218Y-97398720D01*
X65322177Y-97413191D01*
X65323166Y-97416467D01*
X65324473Y-97423954D01*
X65327528Y-97430913D01*
X65327528Y-97430914D01*
X65349847Y-97481760D01*
X65352339Y-97487866D01*
X65369954Y-97534481D01*
X65374655Y-97546923D01*
X65378955Y-97553180D01*
X65382476Y-97559915D01*
X65381032Y-97560670D01*
X65400335Y-97619604D01*
X65382449Y-97688311D01*
X65330256Y-97736440D01*
X65274395Y-97749500D01*
X64176500Y-97749500D01*
X64108379Y-97729498D01*
X64061886Y-97675842D01*
X64050500Y-97623500D01*
X64050500Y-87625444D01*
X64070502Y-87557323D01*
X64099796Y-87525482D01*
X64136071Y-87497647D01*
X64142621Y-87492621D01*
X64230861Y-87377625D01*
X64286330Y-87243709D01*
X64305250Y-87100000D01*
X64286330Y-86956291D01*
X64230861Y-86822375D01*
X64142621Y-86707379D01*
X64027625Y-86619139D01*
X63893709Y-86563670D01*
X63750000Y-86544750D01*
X63606291Y-86563670D01*
X63472375Y-86619139D01*
X63357379Y-86707379D01*
X63269139Y-86822375D01*
X63213670Y-86956291D01*
X63194750Y-87100000D01*
X63213670Y-87243709D01*
X63269139Y-87377625D01*
X63357379Y-87492621D01*
X63363929Y-87497647D01*
X63400204Y-87525482D01*
X63442071Y-87582820D01*
X63449500Y-87625444D01*
X63449500Y-97873338D01*
X63429498Y-97941459D01*
X63412595Y-97962433D01*
X61912434Y-99462595D01*
X61850122Y-99496620D01*
X61823339Y-99499500D01*
X54986000Y-99499500D01*
X54917879Y-99479498D01*
X54871386Y-99425842D01*
X54860000Y-99373500D01*
X54860000Y-84580000D01*
X56424750Y-84580000D01*
X56443670Y-84723709D01*
X56499139Y-84857625D01*
X56587379Y-84972621D01*
X56702375Y-85060861D01*
X56836291Y-85116330D01*
X56980000Y-85135250D01*
X57123709Y-85116330D01*
X57257625Y-85060861D01*
X57372621Y-84972621D01*
X57410499Y-84923258D01*
X57467835Y-84881391D01*
X57477444Y-84878593D01*
X57487208Y-84878226D01*
X57497897Y-84873634D01*
X57502502Y-84872596D01*
X57514214Y-84869038D01*
X57518617Y-84867339D01*
X57530053Y-84865209D01*
X57551041Y-84852272D01*
X57567411Y-84843769D01*
X57581888Y-84837549D01*
X57581892Y-84837547D01*
X57590063Y-84834036D01*
X57594949Y-84830022D01*
X57597134Y-84827837D01*
X57599397Y-84825785D01*
X57599542Y-84825945D01*
X57608549Y-84818825D01*
X57615444Y-84812573D01*
X57625348Y-84806468D01*
X57641916Y-84784680D01*
X57653110Y-84771861D01*
X60375452Y-82049519D01*
X60377486Y-82047763D01*
X60382269Y-82045425D01*
X60415573Y-82009523D01*
X60418853Y-82006118D01*
X60432248Y-81992723D01*
X60434972Y-81988753D01*
X60437297Y-81986105D01*
X60450490Y-81971882D01*
X60458401Y-81963354D01*
X60462713Y-81952547D01*
X60465232Y-81948562D01*
X60471004Y-81937753D01*
X60472911Y-81933448D01*
X60479493Y-81923854D01*
X60485186Y-81899864D01*
X60490751Y-81882268D01*
X60496586Y-81867642D01*
X60499883Y-81859378D01*
X60500500Y-81853085D01*
X60500500Y-81850003D01*
X60500650Y-81846933D01*
X60500866Y-81846944D01*
X60502198Y-81835569D01*
X60502653Y-81826255D01*
X60505340Y-81814934D01*
X60501651Y-81787827D01*
X60500500Y-81770836D01*
X60500500Y-74325444D01*
X60520502Y-74257323D01*
X60549796Y-74225482D01*
X60586071Y-74197647D01*
X60592621Y-74192621D01*
X60680861Y-74077625D01*
X60736330Y-73943709D01*
X60755250Y-73800000D01*
X60736330Y-73656291D01*
X60680861Y-73522375D01*
X60592621Y-73407379D01*
X60477625Y-73319139D01*
X60343709Y-73263670D01*
X60200000Y-73244750D01*
X60056291Y-73263670D01*
X59922375Y-73319139D01*
X59807379Y-73407379D01*
X59719139Y-73522375D01*
X59663670Y-73656291D01*
X59644750Y-73800000D01*
X59663670Y-73943709D01*
X59719139Y-74077625D01*
X59807379Y-74192621D01*
X59813929Y-74197647D01*
X59850204Y-74225482D01*
X59892071Y-74282820D01*
X59899500Y-74325444D01*
X59899500Y-81623338D01*
X59879498Y-81691459D01*
X59862595Y-81712433D01*
X57459259Y-84115770D01*
X57396947Y-84149795D01*
X57326132Y-84144731D01*
X57293461Y-84126637D01*
X57257625Y-84099139D01*
X57123709Y-84043670D01*
X56980000Y-84024750D01*
X56836291Y-84043670D01*
X56702375Y-84099139D01*
X56587379Y-84187379D01*
X56499139Y-84302375D01*
X56443670Y-84436291D01*
X56424750Y-84580000D01*
X54860000Y-84580000D01*
X54860000Y-69746500D01*
X54880002Y-69678379D01*
X54933658Y-69631886D01*
X54986000Y-69620500D01*
X58327634Y-69620500D01*
X58330307Y-69620696D01*
X58335342Y-69622425D01*
X58346964Y-69621989D01*
X58346966Y-69621989D01*
X58384255Y-69620589D01*
X58388981Y-69620500D01*
X58407948Y-69620500D01*
X58412683Y-69619618D01*
X58416209Y-69619390D01*
X58419949Y-69619249D01*
X58447208Y-69618226D01*
X58457893Y-69613636D01*
X58462493Y-69612599D01*
X58474214Y-69609038D01*
X58478617Y-69607339D01*
X58490053Y-69605209D01*
X58511041Y-69592272D01*
X58527411Y-69583769D01*
X58541888Y-69577549D01*
X58541892Y-69577547D01*
X58550063Y-69574036D01*
X58554949Y-69570022D01*
X58557134Y-69567837D01*
X58559397Y-69565785D01*
X58559542Y-69565945D01*
X58568549Y-69558825D01*
X58575444Y-69552573D01*
X58585348Y-69546468D01*
X58601906Y-69524693D01*
X58613107Y-69511864D01*
X58840942Y-69284030D01*
X58903254Y-69250005D01*
X58946481Y-69248204D01*
X59000000Y-69255250D01*
X59143709Y-69236330D01*
X59277625Y-69180861D01*
X59392621Y-69092621D01*
X59480861Y-68977625D01*
X59536330Y-68843709D01*
X59537408Y-68835520D01*
X59538645Y-68830904D01*
X59575595Y-68770281D01*
X59639455Y-68739258D01*
X59709950Y-68747685D01*
X59749447Y-68774418D01*
X62662595Y-71687566D01*
X62696621Y-71749878D01*
X62699500Y-71776661D01*
X62699500Y-83974556D01*
X62679498Y-84042677D01*
X62650204Y-84074518D01*
X62607379Y-84107379D01*
X62519139Y-84222375D01*
X62463670Y-84356291D01*
X62444750Y-84500000D01*
X62463670Y-84643709D01*
X62519139Y-84777625D01*
X62607379Y-84892621D01*
X62722375Y-84980861D01*
X62856291Y-85036330D01*
X63000000Y-85055250D01*
X63143709Y-85036330D01*
X63277625Y-84980861D01*
X63392621Y-84892621D01*
X63473539Y-84787167D01*
X63530876Y-84745301D01*
X63601746Y-84741079D01*
X63663649Y-84775843D01*
X63696931Y-84838556D01*
X63699500Y-84863872D01*
X63699500Y-84974556D01*
X63679498Y-85042677D01*
X63650204Y-85074518D01*
X63607379Y-85107379D01*
X63519139Y-85222375D01*
X63463670Y-85356291D01*
X63444750Y-85500000D01*
X63463670Y-85643709D01*
X63519139Y-85777625D01*
X63607379Y-85892621D01*
X63722375Y-85980861D01*
X63856291Y-86036330D01*
X64000000Y-86055250D01*
X64143709Y-86036330D01*
X64277625Y-85980861D01*
X64392621Y-85892621D01*
X64480861Y-85777625D01*
X64536330Y-85643709D01*
X64555250Y-85500000D01*
X64536330Y-85356291D01*
X64480861Y-85222375D01*
X64392621Y-85107379D01*
X64349796Y-85074518D01*
X64307929Y-85017180D01*
X64300500Y-84974556D01*
X64300500Y-71652366D01*
X64300696Y-71649693D01*
X64302425Y-71644658D01*
X64301151Y-71610700D01*
X64300589Y-71595744D01*
X64300500Y-71591018D01*
X64300500Y-71572052D01*
X64299619Y-71567317D01*
X64299390Y-71563790D01*
X64298662Y-71544415D01*
X64298226Y-71532791D01*
X64293634Y-71522104D01*
X64292595Y-71517492D01*
X64289043Y-71505800D01*
X64287339Y-71501383D01*
X64285209Y-71489947D01*
X64272272Y-71468959D01*
X64263769Y-71452589D01*
X64257549Y-71438112D01*
X64257547Y-71438108D01*
X64254036Y-71429937D01*
X64250022Y-71425051D01*
X64247837Y-71422866D01*
X64245785Y-71420603D01*
X64245945Y-71420458D01*
X64238825Y-71411451D01*
X64232573Y-71404556D01*
X64226468Y-71394652D01*
X64204680Y-71378084D01*
X64191861Y-71366890D01*
X54896905Y-62071934D01*
X54862879Y-62009622D01*
X54860000Y-61982839D01*
X54860000Y-52026500D01*
X54880002Y-51958379D01*
X54933658Y-51911886D01*
X54986000Y-51900500D01*
X56773500Y-51900500D01*
X56841621Y-51920502D01*
G37*
%TD.AperFunction*%
%TD*%
M02*
