%TF.GenerationSoftware,KiCad,Pcbnew,(6.0.4-0)*%
%TF.CreationDate,2022-10-03T08:54:47-06:00*%
%TF.ProjectId,midiori,6d696469-6f72-4692-9e6b-696361645f70,rev?*%
%TF.SameCoordinates,Original*%
%TF.FileFunction,Soldermask,Bot*%
%TF.FilePolarity,Negative*%
%FSLAX46Y46*%
G04 Gerber Fmt 4.6, Leading zero omitted, Abs format (unit mm)*
G04 Created by KiCad (PCBNEW (6.0.4-0)) date 2022-10-03 08:54:47*
%MOMM*%
%LPD*%
G01*
G04 APERTURE LIST*
G04 Aperture macros list*
%AMRoundRect*
0 Rectangle with rounded corners*
0 $1 Rounding radius*
0 $2 $3 $4 $5 $6 $7 $8 $9 X,Y pos of 4 corners*
0 Add a 4 corners polygon primitive as box body*
4,1,4,$2,$3,$4,$5,$6,$7,$8,$9,$2,$3,0*
0 Add four circle primitives for the rounded corners*
1,1,$1+$1,$2,$3*
1,1,$1+$1,$4,$5*
1,1,$1+$1,$6,$7*
1,1,$1+$1,$8,$9*
0 Add four rect primitives between the rounded corners*
20,1,$1+$1,$2,$3,$4,$5,0*
20,1,$1+$1,$4,$5,$6,$7,0*
20,1,$1+$1,$6,$7,$8,$9,0*
20,1,$1+$1,$8,$9,$2,$3,0*%
G04 Aperture macros list end*
%ADD10C,0.100000*%
%ADD11R,8.000000X1.800000*%
%ADD12C,6.400000*%
%ADD13RoundRect,0.500000X-0.500000X1.500000X-0.500000X-1.500000X0.500000X-1.500000X0.500000X1.500000X0*%
%ADD14RoundRect,0.500000X-1.500000X0.500000X-1.500000X-0.500000X1.500000X-0.500000X1.500000X0.500000X0*%
%ADD15C,1.500000*%
G04 APERTURE END LIST*
D10*
G36*
X54000000Y-175000000D02*
G01*
X44000000Y-175000000D01*
X44000000Y-47000000D01*
X54000000Y-47000000D01*
X54000000Y-175000000D01*
G37*
X54000000Y-175000000D02*
X44000000Y-175000000D01*
X44000000Y-47000000D01*
X54000000Y-47000000D01*
X54000000Y-175000000D01*
D11*
%TO.C,J1*%
X50000000Y-173460000D03*
X50000000Y-170920000D03*
X50000000Y-168380000D03*
X50000000Y-165840000D03*
X50000000Y-163300000D03*
X50000000Y-160760000D03*
X50000000Y-158220000D03*
X50000000Y-155680000D03*
X50000000Y-153140000D03*
X50000000Y-150600000D03*
X50000000Y-148060000D03*
X50000000Y-145520000D03*
X50000000Y-142980000D03*
X50000000Y-140440000D03*
X50000000Y-137900000D03*
X50000000Y-135360000D03*
X50000000Y-132820000D03*
X50000000Y-130280000D03*
X50000000Y-127740000D03*
X50000000Y-125200000D03*
X50000000Y-122660000D03*
X50000000Y-120120000D03*
X50000000Y-117580000D03*
X50000000Y-115040000D03*
X50000000Y-112500000D03*
X50000000Y-109960000D03*
X50000000Y-107420000D03*
X50000000Y-104880000D03*
X50000000Y-102340000D03*
X50000000Y-99800000D03*
X50000000Y-97260000D03*
X50000000Y-94720000D03*
X50000000Y-92180000D03*
X50000000Y-89640000D03*
X50000000Y-87100000D03*
X50000000Y-84560000D03*
X50000000Y-82020000D03*
X50000000Y-79480000D03*
X50000000Y-76940000D03*
X50000000Y-74400000D03*
X50000000Y-71860000D03*
X50000000Y-69320000D03*
X50000000Y-66780000D03*
X50000000Y-64240000D03*
X50000000Y-61700000D03*
X50000000Y-59160000D03*
X50000000Y-56620000D03*
X50000000Y-54080000D03*
X50000000Y-51540000D03*
X50000000Y-49000000D03*
%TD*%
D12*
%TO.C,H2*%
X181000000Y-182000000D03*
%TD*%
%TO.C,H1*%
X181000000Y-46000000D03*
%TD*%
D13*
%TO.C,J4*%
X180400000Y-123100000D03*
D14*
X179600000Y-116350000D03*
X179600000Y-129850000D03*
D15*
X176600000Y-121800000D03*
X176600000Y-119700000D03*
X176600000Y-126500000D03*
X174100000Y-119700000D03*
X174100000Y-126500000D03*
%TD*%
M02*
