%TF.GenerationSoftware,KiCad,Pcbnew,(6.0.4-0)*%
%TF.CreationDate,2022-10-03T08:54:47-06:00*%
%TF.ProjectId,midiori,6d696469-6f72-4692-9e6b-696361645f70,rev?*%
%TF.SameCoordinates,Original*%
%TF.FileFunction,Legend,Top*%
%TF.FilePolarity,Positive*%
%FSLAX46Y46*%
G04 Gerber Fmt 4.6, Leading zero omitted, Abs format (unit mm)*
G04 Created by KiCad (PCBNEW (6.0.4-0)) date 2022-10-03 08:54:47*
%MOMM*%
%LPD*%
G01*
G04 APERTURE LIST*
G04 Aperture macros list*
%AMRoundRect*
0 Rectangle with rounded corners*
0 $1 Rounding radius*
0 $2 $3 $4 $5 $6 $7 $8 $9 X,Y pos of 4 corners*
0 Add a 4 corners polygon primitive as box body*
4,1,4,$2,$3,$4,$5,$6,$7,$8,$9,$2,$3,0*
0 Add four circle primitives for the rounded corners*
1,1,$1+$1,$2,$3*
1,1,$1+$1,$4,$5*
1,1,$1+$1,$6,$7*
1,1,$1+$1,$8,$9*
0 Add four rect primitives between the rounded corners*
20,1,$1+$1,$2,$3,$4,$5,0*
20,1,$1+$1,$4,$5,$6,$7,0*
20,1,$1+$1,$6,$7,$8,$9,0*
20,1,$1+$1,$8,$9,$2,$3,0*%
G04 Aperture macros list end*
%ADD10C,0.150000*%
%ADD11C,0.120000*%
%ADD12C,0.127000*%
%ADD13C,0.200000*%
%ADD14C,0.100000*%
%ADD15R,2.000000X1.800000*%
%ADD16RoundRect,0.250000X-0.325000X-0.450000X0.325000X-0.450000X0.325000X0.450000X-0.325000X0.450000X0*%
%ADD17RoundRect,0.250000X0.325000X0.450000X-0.325000X0.450000X-0.325000X-0.450000X0.325000X-0.450000X0*%
%ADD18R,8.000000X1.800000*%
%ADD19RoundRect,0.250000X-0.250000X-0.475000X0.250000X-0.475000X0.250000X0.475000X-0.250000X0.475000X0*%
%ADD20R,2.000000X0.600000*%
%ADD21R,1.470000X0.280000*%
%ADD22R,0.280000X1.470000*%
%ADD23RoundRect,0.100000X-0.637500X-0.100000X0.637500X-0.100000X0.637500X0.100000X-0.637500X0.100000X0*%
%ADD24R,1.550000X0.600000*%
%ADD25R,1.060000X0.650000*%
%ADD26RoundRect,0.243750X-0.243750X-0.456250X0.243750X-0.456250X0.243750X0.456250X-0.243750X0.456250X0*%
%ADD27R,2.400000X0.740000*%
%ADD28RoundRect,0.243750X0.243750X0.456250X-0.243750X0.456250X-0.243750X-0.456250X0.243750X-0.456250X0*%
%ADD29C,6.400000*%
%ADD30RoundRect,0.500000X-0.500000X1.500000X-0.500000X-1.500000X0.500000X-1.500000X0.500000X1.500000X0*%
%ADD31RoundRect,0.500000X-1.500000X0.500000X-1.500000X-0.500000X1.500000X-0.500000X1.500000X0.500000X0*%
%ADD32C,1.500000*%
G04 APERTURE END LIST*
D10*
X162961904Y-128900000D02*
X162961904Y-127947619D01*
X163200000Y-127471428D01*
X163676190Y-126995238D01*
X164628571Y-126757142D01*
X166295238Y-126757142D01*
X167247619Y-126995238D01*
X167723809Y-127471428D01*
X167961904Y-127947619D01*
X167961904Y-128900000D01*
X167723809Y-129376190D01*
X167247619Y-129852380D01*
X166295238Y-130090476D01*
X164628571Y-130090476D01*
X163676190Y-129852380D01*
X163200000Y-129376190D01*
X162961904Y-128900000D01*
X162961904Y-124614285D02*
X167009523Y-124614285D01*
X167485714Y-124376190D01*
X167723809Y-124138095D01*
X167961904Y-123661904D01*
X167961904Y-122709523D01*
X167723809Y-122233333D01*
X167485714Y-121995238D01*
X167009523Y-121757142D01*
X162961904Y-121757142D01*
X162961904Y-120090476D02*
X162961904Y-117233333D01*
X167961904Y-118661904D02*
X162961904Y-118661904D01*
X134660857Y-68592619D02*
X134708476Y-68545000D01*
X134803714Y-68497380D01*
X135041809Y-68497380D01*
X135137047Y-68545000D01*
X135184666Y-68592619D01*
X135232285Y-68687857D01*
X135232285Y-68783095D01*
X135184666Y-68925952D01*
X134613238Y-69497380D01*
X135232285Y-69497380D01*
X135660857Y-69402142D02*
X135708476Y-69449761D01*
X135660857Y-69497380D01*
X135613238Y-69449761D01*
X135660857Y-69402142D01*
X135660857Y-69497380D01*
X136089428Y-68592619D02*
X136137047Y-68545000D01*
X136232285Y-68497380D01*
X136470380Y-68497380D01*
X136565619Y-68545000D01*
X136613238Y-68592619D01*
X136660857Y-68687857D01*
X136660857Y-68783095D01*
X136613238Y-68925952D01*
X136041809Y-69497380D01*
X136660857Y-69497380D01*
X137803714Y-68592619D02*
X137851333Y-68545000D01*
X137946571Y-68497380D01*
X138184666Y-68497380D01*
X138279904Y-68545000D01*
X138327523Y-68592619D01*
X138375142Y-68687857D01*
X138375142Y-68783095D01*
X138327523Y-68925952D01*
X137756095Y-69497380D01*
X138375142Y-69497380D01*
X138994190Y-68497380D02*
X139089428Y-68497380D01*
X139184666Y-68545000D01*
X139232285Y-68592619D01*
X139279904Y-68687857D01*
X139327523Y-68878333D01*
X139327523Y-69116428D01*
X139279904Y-69306904D01*
X139232285Y-69402142D01*
X139184666Y-69449761D01*
X139089428Y-69497380D01*
X138994190Y-69497380D01*
X138898952Y-69449761D01*
X138851333Y-69402142D01*
X138803714Y-69306904D01*
X138756095Y-69116428D01*
X138756095Y-68878333D01*
X138803714Y-68687857D01*
X138851333Y-68592619D01*
X138898952Y-68545000D01*
X138994190Y-68497380D01*
X139708476Y-68592619D02*
X139756095Y-68545000D01*
X139851333Y-68497380D01*
X140089428Y-68497380D01*
X140184666Y-68545000D01*
X140232285Y-68592619D01*
X140279904Y-68687857D01*
X140279904Y-68783095D01*
X140232285Y-68925952D01*
X139660857Y-69497380D01*
X140279904Y-69497380D01*
X140898952Y-68497380D02*
X140994190Y-68497380D01*
X141089428Y-68545000D01*
X141137047Y-68592619D01*
X141184666Y-68687857D01*
X141232285Y-68878333D01*
X141232285Y-69116428D01*
X141184666Y-69306904D01*
X141137047Y-69402142D01*
X141089428Y-69449761D01*
X140994190Y-69497380D01*
X140898952Y-69497380D01*
X140803714Y-69449761D01*
X140756095Y-69402142D01*
X140708476Y-69306904D01*
X140660857Y-69116428D01*
X140660857Y-68878333D01*
X140708476Y-68687857D01*
X140756095Y-68592619D01*
X140803714Y-68545000D01*
X140898952Y-68497380D01*
X142994190Y-69402142D02*
X142946571Y-69449761D01*
X142803714Y-69497380D01*
X142708476Y-69497380D01*
X142565619Y-69449761D01*
X142470380Y-69354523D01*
X142422761Y-69259285D01*
X142375142Y-69068809D01*
X142375142Y-68925952D01*
X142422761Y-68735476D01*
X142470380Y-68640238D01*
X142565619Y-68545000D01*
X142708476Y-68497380D01*
X142803714Y-68497380D01*
X142946571Y-68545000D01*
X142994190Y-68592619D01*
X143994190Y-69402142D02*
X143946571Y-69449761D01*
X143803714Y-69497380D01*
X143708476Y-69497380D01*
X143565619Y-69449761D01*
X143470380Y-69354523D01*
X143422761Y-69259285D01*
X143375142Y-69068809D01*
X143375142Y-68925952D01*
X143422761Y-68735476D01*
X143470380Y-68640238D01*
X143565619Y-68545000D01*
X143708476Y-68497380D01*
X143803714Y-68497380D01*
X143946571Y-68545000D01*
X143994190Y-68592619D01*
X144613238Y-68497380D02*
X144708476Y-68497380D01*
X144803714Y-68545000D01*
X144851333Y-68592619D01*
X144898952Y-68687857D01*
X144946571Y-68878333D01*
X144946571Y-69116428D01*
X144898952Y-69306904D01*
X144851333Y-69402142D01*
X144803714Y-69449761D01*
X144708476Y-69497380D01*
X144613238Y-69497380D01*
X144518000Y-69449761D01*
X144470380Y-69402142D01*
X144422761Y-69306904D01*
X144375142Y-69116428D01*
X144375142Y-68878333D01*
X144422761Y-68687857D01*
X144470380Y-68592619D01*
X144518000Y-68545000D01*
X144613238Y-68497380D01*
X145994190Y-68497380D02*
X146565619Y-68497380D01*
X146279904Y-69497380D02*
X146279904Y-68497380D01*
X146898952Y-69497380D02*
X146898952Y-68497380D01*
X147137047Y-68497380D01*
X147279904Y-68545000D01*
X147375142Y-68640238D01*
X147422761Y-68735476D01*
X147470380Y-68925952D01*
X147470380Y-69068809D01*
X147422761Y-69259285D01*
X147375142Y-69354523D01*
X147279904Y-69449761D01*
X147137047Y-69497380D01*
X146898952Y-69497380D01*
X147898952Y-69116428D02*
X148660857Y-69116428D01*
X149613238Y-69497380D02*
X149137047Y-69497380D01*
X149137047Y-68497380D01*
X149946571Y-69497380D02*
X149946571Y-68830714D01*
X149946571Y-68497380D02*
X149898952Y-68545000D01*
X149946571Y-68592619D01*
X149994190Y-68545000D01*
X149946571Y-68497380D01*
X149946571Y-68592619D01*
X150422761Y-68830714D02*
X150422761Y-69497380D01*
X150422761Y-68925952D02*
X150470380Y-68878333D01*
X150565619Y-68830714D01*
X150708476Y-68830714D01*
X150803714Y-68878333D01*
X150851333Y-68973571D01*
X150851333Y-69497380D01*
X151756095Y-68830714D02*
X151756095Y-69497380D01*
X151327523Y-68830714D02*
X151327523Y-69354523D01*
X151375142Y-69449761D01*
X151470380Y-69497380D01*
X151613238Y-69497380D01*
X151708476Y-69449761D01*
X151756095Y-69402142D01*
X152137047Y-69497380D02*
X152660857Y-68830714D01*
X152137047Y-68830714D02*
X152660857Y-69497380D01*
X130827523Y-71107380D02*
X130827523Y-70107380D01*
X131256095Y-71107380D02*
X131256095Y-70583571D01*
X131208476Y-70488333D01*
X131113238Y-70440714D01*
X130970380Y-70440714D01*
X130875142Y-70488333D01*
X130827523Y-70535952D01*
X131589428Y-70440714D02*
X131970380Y-70440714D01*
X131732285Y-70107380D02*
X131732285Y-70964523D01*
X131779904Y-71059761D01*
X131875142Y-71107380D01*
X131970380Y-71107380D01*
X132160857Y-70440714D02*
X132541809Y-70440714D01*
X132303714Y-70107380D02*
X132303714Y-70964523D01*
X132351333Y-71059761D01*
X132446571Y-71107380D01*
X132541809Y-71107380D01*
X132875142Y-70440714D02*
X132875142Y-71440714D01*
X132875142Y-70488333D02*
X132970380Y-70440714D01*
X133160857Y-70440714D01*
X133256095Y-70488333D01*
X133303714Y-70535952D01*
X133351333Y-70631190D01*
X133351333Y-70916904D01*
X133303714Y-71012142D01*
X133256095Y-71059761D01*
X133160857Y-71107380D01*
X132970380Y-71107380D01*
X132875142Y-71059761D01*
X133732285Y-71059761D02*
X133827523Y-71107380D01*
X134018000Y-71107380D01*
X134113238Y-71059761D01*
X134160857Y-70964523D01*
X134160857Y-70916904D01*
X134113238Y-70821666D01*
X134018000Y-70774047D01*
X133875142Y-70774047D01*
X133779904Y-70726428D01*
X133732285Y-70631190D01*
X133732285Y-70583571D01*
X133779904Y-70488333D01*
X133875142Y-70440714D01*
X134018000Y-70440714D01*
X134113238Y-70488333D01*
X134589428Y-71012142D02*
X134637047Y-71059761D01*
X134589428Y-71107380D01*
X134541809Y-71059761D01*
X134589428Y-71012142D01*
X134589428Y-71107380D01*
X134589428Y-70488333D02*
X134637047Y-70535952D01*
X134589428Y-70583571D01*
X134541809Y-70535952D01*
X134589428Y-70488333D01*
X134589428Y-70583571D01*
X135779904Y-70059761D02*
X134922761Y-71345476D01*
X136827523Y-70059761D02*
X135970380Y-71345476D01*
X137589428Y-70440714D02*
X137589428Y-71250238D01*
X137541809Y-71345476D01*
X137494190Y-71393095D01*
X137398952Y-71440714D01*
X137256095Y-71440714D01*
X137160857Y-71393095D01*
X137589428Y-71059761D02*
X137494190Y-71107380D01*
X137303714Y-71107380D01*
X137208476Y-71059761D01*
X137160857Y-71012142D01*
X137113238Y-70916904D01*
X137113238Y-70631190D01*
X137160857Y-70535952D01*
X137208476Y-70488333D01*
X137303714Y-70440714D01*
X137494190Y-70440714D01*
X137589428Y-70488333D01*
X138065619Y-71107380D02*
X138065619Y-70440714D01*
X138065619Y-70107380D02*
X138018000Y-70155000D01*
X138065619Y-70202619D01*
X138113238Y-70155000D01*
X138065619Y-70107380D01*
X138065619Y-70202619D01*
X138398952Y-70440714D02*
X138779904Y-70440714D01*
X138541809Y-70107380D02*
X138541809Y-70964523D01*
X138589428Y-71059761D01*
X138684666Y-71107380D01*
X138779904Y-71107380D01*
X139113238Y-71107380D02*
X139113238Y-70107380D01*
X139541809Y-71107380D02*
X139541809Y-70583571D01*
X139494190Y-70488333D01*
X139398952Y-70440714D01*
X139256095Y-70440714D01*
X139160857Y-70488333D01*
X139113238Y-70535952D01*
X140446571Y-70440714D02*
X140446571Y-71107380D01*
X140018000Y-70440714D02*
X140018000Y-70964523D01*
X140065619Y-71059761D01*
X140160857Y-71107380D01*
X140303714Y-71107380D01*
X140398952Y-71059761D01*
X140446571Y-71012142D01*
X140922761Y-71107380D02*
X140922761Y-70107380D01*
X140922761Y-70488333D02*
X141018000Y-70440714D01*
X141208476Y-70440714D01*
X141303714Y-70488333D01*
X141351333Y-70535952D01*
X141398952Y-70631190D01*
X141398952Y-70916904D01*
X141351333Y-71012142D01*
X141303714Y-71059761D01*
X141208476Y-71107380D01*
X141018000Y-71107380D01*
X140922761Y-71059761D01*
X141827523Y-71012142D02*
X141875142Y-71059761D01*
X141827523Y-71107380D01*
X141779904Y-71059761D01*
X141827523Y-71012142D01*
X141827523Y-71107380D01*
X142732285Y-71059761D02*
X142637047Y-71107380D01*
X142446571Y-71107380D01*
X142351333Y-71059761D01*
X142303714Y-71012142D01*
X142256095Y-70916904D01*
X142256095Y-70631190D01*
X142303714Y-70535952D01*
X142351333Y-70488333D01*
X142446571Y-70440714D01*
X142637047Y-70440714D01*
X142732285Y-70488333D01*
X143303714Y-71107380D02*
X143208476Y-71059761D01*
X143160857Y-71012142D01*
X143113238Y-70916904D01*
X143113238Y-70631190D01*
X143160857Y-70535952D01*
X143208476Y-70488333D01*
X143303714Y-70440714D01*
X143446571Y-70440714D01*
X143541809Y-70488333D01*
X143589428Y-70535952D01*
X143637047Y-70631190D01*
X143637047Y-70916904D01*
X143589428Y-71012142D01*
X143541809Y-71059761D01*
X143446571Y-71107380D01*
X143303714Y-71107380D01*
X144065619Y-71107380D02*
X144065619Y-70440714D01*
X144065619Y-70535952D02*
X144113238Y-70488333D01*
X144208476Y-70440714D01*
X144351333Y-70440714D01*
X144446571Y-70488333D01*
X144494190Y-70583571D01*
X144494190Y-71107380D01*
X144494190Y-70583571D02*
X144541809Y-70488333D01*
X144637047Y-70440714D01*
X144779904Y-70440714D01*
X144875142Y-70488333D01*
X144922761Y-70583571D01*
X144922761Y-71107380D01*
X146113238Y-70059761D02*
X145256095Y-71345476D01*
X146303714Y-70440714D02*
X146684666Y-70440714D01*
X146446571Y-70107380D02*
X146446571Y-70964523D01*
X146494190Y-71059761D01*
X146589428Y-71107380D01*
X146684666Y-71107380D01*
X147446571Y-71107380D02*
X147446571Y-70107380D01*
X147446571Y-71059761D02*
X147351333Y-71107380D01*
X147160857Y-71107380D01*
X147065619Y-71059761D01*
X147018000Y-71012142D01*
X146970380Y-70916904D01*
X146970380Y-70631190D01*
X147018000Y-70535952D01*
X147065619Y-70488333D01*
X147160857Y-70440714D01*
X147351333Y-70440714D01*
X147446571Y-70488333D01*
X148351333Y-71107380D02*
X148351333Y-70583571D01*
X148303714Y-70488333D01*
X148208476Y-70440714D01*
X148018000Y-70440714D01*
X147922761Y-70488333D01*
X148351333Y-71059761D02*
X148256095Y-71107380D01*
X148018000Y-71107380D01*
X147922761Y-71059761D01*
X147875142Y-70964523D01*
X147875142Y-70869285D01*
X147922761Y-70774047D01*
X148018000Y-70726428D01*
X148256095Y-70726428D01*
X148351333Y-70678809D01*
X149208476Y-71059761D02*
X149113238Y-71107380D01*
X148922761Y-71107380D01*
X148827523Y-71059761D01*
X148779904Y-70964523D01*
X148779904Y-70583571D01*
X148827523Y-70488333D01*
X148922761Y-70440714D01*
X149113238Y-70440714D01*
X149208476Y-70488333D01*
X149256095Y-70583571D01*
X149256095Y-70678809D01*
X148779904Y-70774047D01*
X150113238Y-71107380D02*
X150113238Y-70107380D01*
X150113238Y-71059761D02*
X150018000Y-71107380D01*
X149827523Y-71107380D01*
X149732285Y-71059761D01*
X149684666Y-71012142D01*
X149637047Y-70916904D01*
X149637047Y-70631190D01*
X149684666Y-70535952D01*
X149732285Y-70488333D01*
X149827523Y-70440714D01*
X150018000Y-70440714D01*
X150113238Y-70488333D01*
X150970380Y-71059761D02*
X150875142Y-71107380D01*
X150684666Y-71107380D01*
X150589428Y-71059761D01*
X150541809Y-70964523D01*
X150541809Y-70583571D01*
X150589428Y-70488333D01*
X150684666Y-70440714D01*
X150875142Y-70440714D01*
X150970380Y-70488333D01*
X151018000Y-70583571D01*
X151018000Y-70678809D01*
X150541809Y-70774047D01*
X152160857Y-70059761D02*
X151303714Y-71345476D01*
X152494190Y-71107380D02*
X152494190Y-70440714D01*
X152494190Y-70535952D02*
X152541809Y-70488333D01*
X152637047Y-70440714D01*
X152779904Y-70440714D01*
X152875142Y-70488333D01*
X152922761Y-70583571D01*
X152922761Y-71107380D01*
X152922761Y-70583571D02*
X152970380Y-70488333D01*
X153065619Y-70440714D01*
X153208476Y-70440714D01*
X153303714Y-70488333D01*
X153351333Y-70583571D01*
X153351333Y-71107380D01*
X153827523Y-71107380D02*
X153827523Y-70440714D01*
X153827523Y-70107380D02*
X153779904Y-70155000D01*
X153827523Y-70202619D01*
X153875142Y-70155000D01*
X153827523Y-70107380D01*
X153827523Y-70202619D01*
X154732285Y-71107380D02*
X154732285Y-70107380D01*
X154732285Y-71059761D02*
X154637047Y-71107380D01*
X154446571Y-71107380D01*
X154351333Y-71059761D01*
X154303714Y-71012142D01*
X154256095Y-70916904D01*
X154256095Y-70631190D01*
X154303714Y-70535952D01*
X154351333Y-70488333D01*
X154446571Y-70440714D01*
X154637047Y-70440714D01*
X154732285Y-70488333D01*
X155208476Y-71107380D02*
X155208476Y-70440714D01*
X155208476Y-70107380D02*
X155160857Y-70155000D01*
X155208476Y-70202619D01*
X155256095Y-70155000D01*
X155208476Y-70107380D01*
X155208476Y-70202619D01*
X155827523Y-71107380D02*
X155732285Y-71059761D01*
X155684666Y-71012142D01*
X155637047Y-70916904D01*
X155637047Y-70631190D01*
X155684666Y-70535952D01*
X155732285Y-70488333D01*
X155827523Y-70440714D01*
X155970380Y-70440714D01*
X156065619Y-70488333D01*
X156113238Y-70535952D01*
X156160857Y-70631190D01*
X156160857Y-70916904D01*
X156113238Y-71012142D01*
X156065619Y-71059761D01*
X155970380Y-71107380D01*
X155827523Y-71107380D01*
X156589428Y-71107380D02*
X156589428Y-70440714D01*
X156589428Y-70631190D02*
X156637047Y-70535952D01*
X156684666Y-70488333D01*
X156779904Y-70440714D01*
X156875142Y-70440714D01*
X157208476Y-71107380D02*
X157208476Y-70440714D01*
X157208476Y-70107380D02*
X157160857Y-70155000D01*
X157208476Y-70202619D01*
X157256095Y-70155000D01*
X157208476Y-70107380D01*
X157208476Y-70202619D01*
D11*
%TO.C,X1*%
X114040000Y-125990000D02*
X114640000Y-125990000D01*
X108640000Y-128250000D02*
X108640000Y-128190000D01*
X114040000Y-128250000D02*
X108640000Y-128250000D01*
X114040000Y-120850000D02*
X114040000Y-120910000D01*
X114040000Y-128190000D02*
X114040000Y-128250000D01*
X108640000Y-120850000D02*
X114040000Y-120850000D01*
X114640000Y-128190000D02*
X114040000Y-128190000D01*
X114040000Y-123110000D02*
X114040000Y-125990000D01*
X108640000Y-120910000D02*
X108640000Y-120850000D01*
X108640000Y-125990000D02*
X108640000Y-123110000D01*
%TO.C,R6*%
X80713748Y-68790000D02*
X81236252Y-68790000D01*
X80713748Y-70210000D02*
X81236252Y-70210000D01*
%TO.C,R9*%
X81231252Y-72370000D02*
X80708748Y-72370000D01*
X81231252Y-73790000D02*
X80708748Y-73790000D01*
%TO.C,C8*%
X111713748Y-134735000D02*
X112236252Y-134735000D01*
X111713748Y-133265000D02*
X112236252Y-133265000D01*
D10*
%TO.C,U4*%
X87125000Y-162875000D02*
X87125000Y-162510000D01*
X87125000Y-147400000D02*
X85300000Y-147400000D01*
X87125000Y-147125000D02*
X94875000Y-147125000D01*
X94875000Y-147125000D02*
X94875000Y-147490000D01*
X94875000Y-162875000D02*
X94875000Y-162510000D01*
X87125000Y-147125000D02*
X87125000Y-147400000D01*
X87125000Y-162875000D02*
X94875000Y-162875000D01*
%TO.C,U5*%
X74875000Y-140875000D02*
X74875000Y-140510000D01*
X74875000Y-125125000D02*
X74875000Y-125490000D01*
X67125000Y-125125000D02*
X74875000Y-125125000D01*
X67125000Y-125400000D02*
X65300000Y-125400000D01*
X67125000Y-125125000D02*
X67125000Y-125400000D01*
X67125000Y-140875000D02*
X74875000Y-140875000D01*
X67125000Y-140875000D02*
X67125000Y-140510000D01*
%TO.C,U6*%
X87125000Y-81400000D02*
X85300000Y-81400000D01*
X87125000Y-96875000D02*
X87125000Y-96510000D01*
X94875000Y-81125000D02*
X94875000Y-81490000D01*
X87125000Y-96875000D02*
X94875000Y-96875000D01*
X87125000Y-81125000D02*
X94875000Y-81125000D01*
X94875000Y-96875000D02*
X94875000Y-96510000D01*
X87125000Y-81125000D02*
X87125000Y-81400000D01*
%TO.C,U7*%
X74875000Y-147125000D02*
X74875000Y-147490000D01*
X67125000Y-162875000D02*
X74875000Y-162875000D01*
X67125000Y-147125000D02*
X74875000Y-147125000D01*
X67125000Y-162875000D02*
X67125000Y-162510000D01*
X74875000Y-162875000D02*
X74875000Y-162510000D01*
X67125000Y-147125000D02*
X67125000Y-147400000D01*
X67125000Y-147400000D02*
X65300000Y-147400000D01*
%TO.C,U9*%
X67125000Y-81125000D02*
X74875000Y-81125000D01*
X67125000Y-81125000D02*
X67125000Y-81400000D01*
X67125000Y-96875000D02*
X74875000Y-96875000D01*
X67125000Y-81400000D02*
X65300000Y-81400000D01*
X74875000Y-81125000D02*
X74875000Y-81490000D01*
X74875000Y-96875000D02*
X74875000Y-96510000D01*
X67125000Y-96875000D02*
X67125000Y-96510000D01*
D12*
%TO.C,U10*%
X100437000Y-129000000D02*
X101000000Y-129000000D01*
X100437000Y-115000000D02*
X101000000Y-115000000D01*
X101000000Y-129000000D02*
X101000000Y-128437000D01*
X87000000Y-128437000D02*
X87000000Y-129000000D01*
X87000000Y-129000000D02*
X87563000Y-129000000D01*
X101000000Y-115000000D02*
X101000000Y-115563000D01*
X87000000Y-115000000D02*
X87563000Y-115000000D01*
X87000000Y-115563000D02*
X87000000Y-115000000D01*
D13*
X85000000Y-116000000D02*
G75*
G03*
X85000000Y-116000000I-100000J0D01*
G01*
D11*
%TO.C,U1*%
X71000000Y-67390000D02*
X67400000Y-67390000D01*
X71000000Y-67390000D02*
X73200000Y-67390000D01*
X71000000Y-72610000D02*
X73200000Y-72610000D01*
X71000000Y-72610000D02*
X68800000Y-72610000D01*
D10*
%TO.C,U8*%
X74875000Y-103125000D02*
X74875000Y-103490000D01*
X67125000Y-103125000D02*
X67125000Y-103400000D01*
X67125000Y-118875000D02*
X74875000Y-118875000D01*
X67125000Y-103400000D02*
X65300000Y-103400000D01*
X67125000Y-118875000D02*
X67125000Y-118510000D01*
X74875000Y-118875000D02*
X74875000Y-118510000D01*
X67125000Y-103125000D02*
X74875000Y-103125000D01*
%TO.C,U2*%
X114075000Y-142525000D02*
X115475000Y-142525000D01*
X114075000Y-137425000D02*
X114075000Y-137570000D01*
X114075000Y-142575000D02*
X114075000Y-142525000D01*
X114075000Y-142575000D02*
X109925000Y-142575000D01*
X114075000Y-137425000D02*
X109925000Y-137425000D01*
X109925000Y-137425000D02*
X109925000Y-137570000D01*
X109925000Y-142575000D02*
X109925000Y-142430000D01*
D11*
%TO.C,U11*%
X69100000Y-56610000D02*
X70900000Y-56610000D01*
X70900000Y-53390000D02*
X68450000Y-53390000D01*
%TO.C,C1*%
X74741422Y-53290000D02*
X75258578Y-53290000D01*
X74741422Y-54710000D02*
X75258578Y-54710000D01*
%TO.C,C2*%
X84741422Y-54710000D02*
X85258578Y-54710000D01*
X84741422Y-53290000D02*
X85258578Y-53290000D01*
%TO.C,J2*%
X110235000Y-148765000D02*
X113765000Y-148765000D01*
X110235000Y-155170000D02*
X110235000Y-155235000D01*
X110235000Y-148765000D02*
X110235000Y-148830000D01*
X113765000Y-155170000D02*
X113765000Y-155235000D01*
X113765000Y-148765000D02*
X113765000Y-148830000D01*
X108910000Y-148830000D02*
X110235000Y-148830000D01*
X110235000Y-155235000D02*
X113765000Y-155235000D01*
%TO.C,U3*%
X80900000Y-53390000D02*
X78450000Y-53390000D01*
X79100000Y-56610000D02*
X80900000Y-56610000D01*
%TO.C,C4*%
X66678922Y-121290000D02*
X67196078Y-121290000D01*
X66678922Y-122710000D02*
X67196078Y-122710000D01*
%TO.C,C5*%
X95321078Y-79710000D02*
X94803922Y-79710000D01*
X95321078Y-78290000D02*
X94803922Y-78290000D01*
%TO.C,C6*%
X86678922Y-143290000D02*
X87196078Y-143290000D01*
X86678922Y-144710000D02*
X87196078Y-144710000D01*
%TO.C,C7*%
X75321078Y-143290000D02*
X74803922Y-143290000D01*
X75321078Y-144710000D02*
X74803922Y-144710000D01*
%TO.C,C9*%
X86678922Y-79710000D02*
X87196078Y-79710000D01*
X86678922Y-78290000D02*
X87196078Y-78290000D01*
%TO.C,C12*%
X75258578Y-121290000D02*
X74741422Y-121290000D01*
X75258578Y-122710000D02*
X74741422Y-122710000D01*
%TO.C,C13*%
X66678922Y-79710000D02*
X67196078Y-79710000D01*
X66678922Y-78290000D02*
X67196078Y-78290000D01*
%TO.C,C14*%
X75321078Y-79710000D02*
X74803922Y-79710000D01*
X75321078Y-78290000D02*
X74803922Y-78290000D01*
%TO.C,C15*%
X66741422Y-143290000D02*
X67258578Y-143290000D01*
X66741422Y-144710000D02*
X67258578Y-144710000D01*
%TO.C,C17*%
X75321078Y-100710000D02*
X74803922Y-100710000D01*
X75321078Y-99290000D02*
X74803922Y-99290000D01*
%TO.C,C18*%
X100803922Y-110790000D02*
X101321078Y-110790000D01*
X100803922Y-112210000D02*
X101321078Y-112210000D01*
%TO.C,C20*%
X93741422Y-135210000D02*
X94258578Y-135210000D01*
X93741422Y-133790000D02*
X94258578Y-133790000D01*
%TO.C,C22*%
X104661422Y-123810000D02*
X105178578Y-123810000D01*
X104661422Y-122390000D02*
X105178578Y-122390000D01*
%TO.C,C23*%
X83321078Y-128290000D02*
X82803922Y-128290000D01*
X83321078Y-129710000D02*
X82803922Y-129710000D01*
%TO.C,C11*%
X66678922Y-100710000D02*
X67196078Y-100710000D01*
X66678922Y-99290000D02*
X67196078Y-99290000D01*
%TO.C,C21*%
X95321078Y-144710000D02*
X94803922Y-144710000D01*
X95321078Y-143290000D02*
X94803922Y-143290000D01*
%TO.C,C16*%
X82258578Y-121290000D02*
X81741422Y-121290000D01*
X82258578Y-122710000D02*
X81741422Y-122710000D01*
%TO.C,R3*%
X110296078Y-147110000D02*
X109778922Y-147110000D01*
X110296078Y-145690000D02*
X109778922Y-145690000D01*
%TO.C,C19*%
X102741422Y-131710000D02*
X103258578Y-131710000D01*
X102741422Y-130290000D02*
X103258578Y-130290000D01*
%TO.C,C10*%
X94678922Y-112210000D02*
X95196078Y-112210000D01*
X94678922Y-110790000D02*
X95196078Y-110790000D01*
%TO.C,C3*%
X104678922Y-120210000D02*
X105196078Y-120210000D01*
X104678922Y-118790000D02*
X105196078Y-118790000D01*
%TO.C,J4*%
X185100000Y-116100000D02*
X172500000Y-116100000D01*
X185100000Y-130100000D02*
X185100000Y-116100000D01*
X172500000Y-116100000D02*
X172500000Y-130100000D01*
X172500000Y-130100000D02*
X185100000Y-130100000D01*
%TD*%
%LPC*%
D14*
G36*
X54000000Y-175000000D02*
G01*
X44000000Y-175000000D01*
X44000000Y-47000000D01*
X54000000Y-47000000D01*
X54000000Y-175000000D01*
G37*
X54000000Y-175000000D02*
X44000000Y-175000000D01*
X44000000Y-47000000D01*
X54000000Y-47000000D01*
X54000000Y-175000000D01*
D15*
%TO.C,X1*%
X113440000Y-127090000D03*
X113440000Y-122010000D03*
X109240000Y-122010000D03*
X109240000Y-127090000D03*
%TD*%
D16*
%TO.C,R6*%
X79950000Y-69500000D03*
X82000000Y-69500000D03*
%TD*%
D17*
%TO.C,R9*%
X81995000Y-73080000D03*
X79945000Y-73080000D03*
%TD*%
D18*
%TO.C,J1*%
X50000000Y-173460000D03*
X50000000Y-170920000D03*
X50000000Y-168380000D03*
X50000000Y-165840000D03*
X50000000Y-163300000D03*
X50000000Y-160760000D03*
X50000000Y-158220000D03*
X50000000Y-155680000D03*
X50000000Y-153140000D03*
X50000000Y-150600000D03*
X50000000Y-148060000D03*
X50000000Y-145520000D03*
X50000000Y-142980000D03*
X50000000Y-140440000D03*
X50000000Y-137900000D03*
X50000000Y-135360000D03*
X50000000Y-132820000D03*
X50000000Y-130280000D03*
X50000000Y-127740000D03*
X50000000Y-125200000D03*
X50000000Y-122660000D03*
X50000000Y-120120000D03*
X50000000Y-117580000D03*
X50000000Y-115040000D03*
X50000000Y-112500000D03*
X50000000Y-109960000D03*
X50000000Y-107420000D03*
X50000000Y-104880000D03*
X50000000Y-102340000D03*
X50000000Y-99800000D03*
X50000000Y-97260000D03*
X50000000Y-94720000D03*
X50000000Y-92180000D03*
X50000000Y-89640000D03*
X50000000Y-87100000D03*
X50000000Y-84560000D03*
X50000000Y-82020000D03*
X50000000Y-79480000D03*
X50000000Y-76940000D03*
X50000000Y-74400000D03*
X50000000Y-71860000D03*
X50000000Y-69320000D03*
X50000000Y-66780000D03*
X50000000Y-64240000D03*
X50000000Y-61700000D03*
X50000000Y-59160000D03*
X50000000Y-56620000D03*
X50000000Y-54080000D03*
X50000000Y-51540000D03*
X50000000Y-49000000D03*
%TD*%
D19*
%TO.C,C8*%
X111025000Y-134000000D03*
X112925000Y-134000000D03*
%TD*%
D20*
%TO.C,U4*%
X86300000Y-148015000D03*
X86300000Y-149285000D03*
X86300000Y-150555000D03*
X86300000Y-151825000D03*
X86300000Y-153095000D03*
X86300000Y-154365000D03*
X86300000Y-155635000D03*
X86300000Y-156905000D03*
X86300000Y-158175000D03*
X86300000Y-159445000D03*
X86300000Y-160715000D03*
X86300000Y-161985000D03*
X95700000Y-161985000D03*
X95700000Y-160715000D03*
X95700000Y-159445000D03*
X95700000Y-158175000D03*
X95700000Y-156905000D03*
X95700000Y-155635000D03*
X95700000Y-154365000D03*
X95700000Y-153095000D03*
X95700000Y-151825000D03*
X95700000Y-150555000D03*
X95700000Y-149285000D03*
X95700000Y-148015000D03*
%TD*%
%TO.C,U5*%
X66300000Y-126015000D03*
X66300000Y-127285000D03*
X66300000Y-128555000D03*
X66300000Y-129825000D03*
X66300000Y-131095000D03*
X66300000Y-132365000D03*
X66300000Y-133635000D03*
X66300000Y-134905000D03*
X66300000Y-136175000D03*
X66300000Y-137445000D03*
X66300000Y-138715000D03*
X66300000Y-139985000D03*
X75700000Y-139985000D03*
X75700000Y-138715000D03*
X75700000Y-137445000D03*
X75700000Y-136175000D03*
X75700000Y-134905000D03*
X75700000Y-133635000D03*
X75700000Y-132365000D03*
X75700000Y-131095000D03*
X75700000Y-129825000D03*
X75700000Y-128555000D03*
X75700000Y-127285000D03*
X75700000Y-126015000D03*
%TD*%
%TO.C,U6*%
X86300000Y-82015000D03*
X86300000Y-83285000D03*
X86300000Y-84555000D03*
X86300000Y-85825000D03*
X86300000Y-87095000D03*
X86300000Y-88365000D03*
X86300000Y-89635000D03*
X86300000Y-90905000D03*
X86300000Y-92175000D03*
X86300000Y-93445000D03*
X86300000Y-94715000D03*
X86300000Y-95985000D03*
X95700000Y-95985000D03*
X95700000Y-94715000D03*
X95700000Y-93445000D03*
X95700000Y-92175000D03*
X95700000Y-90905000D03*
X95700000Y-89635000D03*
X95700000Y-88365000D03*
X95700000Y-87095000D03*
X95700000Y-85825000D03*
X95700000Y-84555000D03*
X95700000Y-83285000D03*
X95700000Y-82015000D03*
%TD*%
%TO.C,U7*%
X66300000Y-148015000D03*
X66300000Y-149285000D03*
X66300000Y-150555000D03*
X66300000Y-151825000D03*
X66300000Y-153095000D03*
X66300000Y-154365000D03*
X66300000Y-155635000D03*
X66300000Y-156905000D03*
X66300000Y-158175000D03*
X66300000Y-159445000D03*
X66300000Y-160715000D03*
X66300000Y-161985000D03*
X75700000Y-161985000D03*
X75700000Y-160715000D03*
X75700000Y-159445000D03*
X75700000Y-158175000D03*
X75700000Y-156905000D03*
X75700000Y-155635000D03*
X75700000Y-154365000D03*
X75700000Y-153095000D03*
X75700000Y-151825000D03*
X75700000Y-150555000D03*
X75700000Y-149285000D03*
X75700000Y-148015000D03*
%TD*%
%TO.C,U9*%
X66300000Y-82015000D03*
X66300000Y-83285000D03*
X66300000Y-84555000D03*
X66300000Y-85825000D03*
X66300000Y-87095000D03*
X66300000Y-88365000D03*
X66300000Y-89635000D03*
X66300000Y-90905000D03*
X66300000Y-92175000D03*
X66300000Y-93445000D03*
X66300000Y-94715000D03*
X66300000Y-95985000D03*
X75700000Y-95985000D03*
X75700000Y-94715000D03*
X75700000Y-93445000D03*
X75700000Y-92175000D03*
X75700000Y-90905000D03*
X75700000Y-89635000D03*
X75700000Y-88365000D03*
X75700000Y-87095000D03*
X75700000Y-85825000D03*
X75700000Y-84555000D03*
X75700000Y-83285000D03*
X75700000Y-82015000D03*
%TD*%
D21*
%TO.C,U10*%
X86330000Y-116000000D03*
X86330000Y-116500000D03*
X86330000Y-117000000D03*
X86330000Y-117500000D03*
X86330000Y-118000000D03*
X86330000Y-118500000D03*
X86330000Y-119000000D03*
X86330000Y-119500000D03*
X86330000Y-120000000D03*
X86330000Y-120500000D03*
X86330000Y-121000000D03*
X86330000Y-121500000D03*
X86330000Y-122000000D03*
X86330000Y-122500000D03*
X86330000Y-123000000D03*
X86330000Y-123500000D03*
X86330000Y-124000000D03*
X86330000Y-124500000D03*
X86330000Y-125000000D03*
X86330000Y-125500000D03*
X86330000Y-126000000D03*
X86330000Y-126500000D03*
X86330000Y-127000000D03*
X86330000Y-127500000D03*
X86330000Y-128000000D03*
D22*
X88000000Y-129670000D03*
X88500000Y-129670000D03*
X89000000Y-129670000D03*
X89500000Y-129670000D03*
X90000000Y-129670000D03*
X90500000Y-129670000D03*
X91000000Y-129670000D03*
X91500000Y-129670000D03*
X92000000Y-129670000D03*
X92500000Y-129670000D03*
X93000000Y-129670000D03*
X93500000Y-129670000D03*
X94000000Y-129670000D03*
X94500000Y-129670000D03*
X95000000Y-129670000D03*
X95500000Y-129670000D03*
X96000000Y-129670000D03*
X96500000Y-129670000D03*
X97000000Y-129670000D03*
X97500000Y-129670000D03*
X98000000Y-129670000D03*
X98500000Y-129670000D03*
X99000000Y-129670000D03*
X99500000Y-129670000D03*
X100000000Y-129670000D03*
D21*
X101670000Y-128000000D03*
X101670000Y-127500000D03*
X101670000Y-127000000D03*
X101670000Y-126500000D03*
X101670000Y-126000000D03*
X101670000Y-125500000D03*
X101670000Y-125000000D03*
X101670000Y-124500000D03*
X101670000Y-124000000D03*
X101670000Y-123500000D03*
X101670000Y-123000000D03*
X101670000Y-122500000D03*
X101670000Y-122000000D03*
X101670000Y-121500000D03*
X101670000Y-121000000D03*
X101670000Y-120500000D03*
X101670000Y-120000000D03*
X101670000Y-119500000D03*
X101670000Y-119000000D03*
X101670000Y-118500000D03*
X101670000Y-118000000D03*
X101670000Y-117500000D03*
X101670000Y-117000000D03*
X101670000Y-116500000D03*
X101670000Y-116000000D03*
D22*
X100000000Y-114330000D03*
X99500000Y-114330000D03*
X99000000Y-114330000D03*
X98500000Y-114330000D03*
X98000000Y-114330000D03*
X97500000Y-114330000D03*
X97000000Y-114330000D03*
X96500000Y-114330000D03*
X96000000Y-114330000D03*
X95500000Y-114330000D03*
X95000000Y-114330000D03*
X94500000Y-114330000D03*
X94000000Y-114330000D03*
X93500000Y-114330000D03*
X93000000Y-114330000D03*
X92500000Y-114330000D03*
X92000000Y-114330000D03*
X91500000Y-114330000D03*
X91000000Y-114330000D03*
X90500000Y-114330000D03*
X90000000Y-114330000D03*
X89500000Y-114330000D03*
X89000000Y-114330000D03*
X88500000Y-114330000D03*
X88000000Y-114330000D03*
%TD*%
D23*
%TO.C,U1*%
X68137500Y-68050000D03*
X68137500Y-68700000D03*
X68137500Y-69350000D03*
X68137500Y-70000000D03*
X68137500Y-70650000D03*
X68137500Y-71300000D03*
X68137500Y-71950000D03*
X73862500Y-71950000D03*
X73862500Y-71300000D03*
X73862500Y-70650000D03*
X73862500Y-70000000D03*
X73862500Y-69350000D03*
X73862500Y-68700000D03*
X73862500Y-68050000D03*
%TD*%
D20*
%TO.C,U8*%
X66300000Y-104015000D03*
X66300000Y-105285000D03*
X66300000Y-106555000D03*
X66300000Y-107825000D03*
X66300000Y-109095000D03*
X66300000Y-110365000D03*
X66300000Y-111635000D03*
X66300000Y-112905000D03*
X66300000Y-114175000D03*
X66300000Y-115445000D03*
X66300000Y-116715000D03*
X66300000Y-117985000D03*
X75700000Y-117985000D03*
X75700000Y-116715000D03*
X75700000Y-115445000D03*
X75700000Y-114175000D03*
X75700000Y-112905000D03*
X75700000Y-111635000D03*
X75700000Y-110365000D03*
X75700000Y-109095000D03*
X75700000Y-107825000D03*
X75700000Y-106555000D03*
X75700000Y-105285000D03*
X75700000Y-104015000D03*
%TD*%
D24*
%TO.C,U2*%
X114700000Y-141905000D03*
X114700000Y-140635000D03*
X114700000Y-139365000D03*
X114700000Y-138095000D03*
X109300000Y-138095000D03*
X109300000Y-139365000D03*
X109300000Y-140635000D03*
X109300000Y-141905000D03*
%TD*%
D25*
%TO.C,U11*%
X68900000Y-54050000D03*
X68900000Y-55000000D03*
X68900000Y-55950000D03*
X71100000Y-55950000D03*
X71100000Y-54050000D03*
%TD*%
D26*
%TO.C,C1*%
X74062500Y-54000000D03*
X75937500Y-54000000D03*
%TD*%
%TO.C,C2*%
X84062500Y-54000000D03*
X85937500Y-54000000D03*
%TD*%
D27*
%TO.C,J2*%
X110050000Y-149460000D03*
X113950000Y-149460000D03*
X110050000Y-150730000D03*
X113950000Y-150730000D03*
X110050000Y-152000000D03*
X113950000Y-152000000D03*
X110050000Y-153270000D03*
X113950000Y-153270000D03*
X110050000Y-154540000D03*
X113950000Y-154540000D03*
%TD*%
D25*
%TO.C,U3*%
X78900000Y-54050000D03*
X78900000Y-55000000D03*
X78900000Y-55950000D03*
X81100000Y-55950000D03*
X81100000Y-54050000D03*
%TD*%
D26*
%TO.C,C4*%
X66000000Y-122000000D03*
X67875000Y-122000000D03*
%TD*%
D28*
%TO.C,C5*%
X96000000Y-79000000D03*
X94125000Y-79000000D03*
%TD*%
D26*
%TO.C,C6*%
X86000000Y-144000000D03*
X87875000Y-144000000D03*
%TD*%
D28*
%TO.C,C7*%
X76000000Y-144000000D03*
X74125000Y-144000000D03*
%TD*%
D26*
%TO.C,C9*%
X86000000Y-79000000D03*
X87875000Y-79000000D03*
%TD*%
D28*
%TO.C,C12*%
X75937500Y-122000000D03*
X74062500Y-122000000D03*
%TD*%
D26*
%TO.C,C13*%
X66000000Y-79000000D03*
X67875000Y-79000000D03*
%TD*%
D28*
%TO.C,C14*%
X76000000Y-79000000D03*
X74125000Y-79000000D03*
%TD*%
D26*
%TO.C,C15*%
X66062500Y-144000000D03*
X67937500Y-144000000D03*
%TD*%
D28*
%TO.C,C17*%
X76000000Y-100000000D03*
X74125000Y-100000000D03*
%TD*%
D26*
%TO.C,C18*%
X100125000Y-111500000D03*
X102000000Y-111500000D03*
%TD*%
%TO.C,C20*%
X93062500Y-134500000D03*
X94937500Y-134500000D03*
%TD*%
%TO.C,C22*%
X103982500Y-123100000D03*
X105857500Y-123100000D03*
%TD*%
D28*
%TO.C,C23*%
X84000000Y-129000000D03*
X82125000Y-129000000D03*
%TD*%
D26*
%TO.C,C11*%
X66000000Y-100000000D03*
X67875000Y-100000000D03*
%TD*%
D28*
%TO.C,C21*%
X96000000Y-144000000D03*
X94125000Y-144000000D03*
%TD*%
%TO.C,C16*%
X82937500Y-122000000D03*
X81062500Y-122000000D03*
%TD*%
%TO.C,R3*%
X110975000Y-146400000D03*
X109100000Y-146400000D03*
%TD*%
D26*
%TO.C,C19*%
X102062500Y-131000000D03*
X103937500Y-131000000D03*
%TD*%
%TO.C,C10*%
X94000000Y-111500000D03*
X95875000Y-111500000D03*
%TD*%
%TO.C,C3*%
X104000000Y-119500000D03*
X105875000Y-119500000D03*
%TD*%
D29*
%TO.C,H2*%
X181000000Y-182000000D03*
%TD*%
%TO.C,H1*%
X181000000Y-46000000D03*
%TD*%
D30*
%TO.C,J4*%
X180400000Y-123100000D03*
D31*
X179600000Y-116350000D03*
X179600000Y-129850000D03*
D32*
X176600000Y-121800000D03*
X176600000Y-119700000D03*
X176600000Y-126500000D03*
X174100000Y-119700000D03*
X174100000Y-126500000D03*
%TD*%
M02*
